<?xml version="1.0" encoding="utf-8"?>
<!-- Generator: Adobe Illustrator 24.2.3, SVG Export Plug-In . SVG Version: 6.00 Build 0)  -->
<svg version="1.1" id="Layer_1" xmlns="http://www.w3.org/2000/svg" xmlns:xlink="http://www.w3.org/1999/xlink" x="0px"
	y="0px" viewBox="0 0 1920 1080" enable-background="new 0 0 1920 1080" xml:space="preserve">
	<g>
		<g id="backbutton">
			<a href="mainmenu.html">

				<path fill="#8888BA"
					d="M81.7,152.9c-0.2,0-0.4-0.1-0.6-0.1c-1.1-0.1-2.1-0.2-3.2-0.3c-2.3-0.2-4.5-0.4-6.7-0.8
			c-8.8-1.4-16.8-4.6-23.8-9.4c-9.2-6.3-16.2-14.7-20.7-24.9c5.8,4.5,11.2,8.1,16.6,11.2c6.3,3.6,12.4,6.3,18.5,8.1
			c5.5,1.6,11.2,2.6,17,2.9c1.9,0.1,3.5,0.2,5.1,0.2c2.6,0,4.7-0.2,6.8-0.6c7.2-1.4,12.9-4.9,17.1-10.4c3.2-4.2,5.1-9.2,5.8-14.8
			c0.7-6.1-0.3-11.8-3.2-17c-2.3-4.3-5.8-8.2-10.5-12c-1.1-0.9-2.3-1.8-3.4-2.6c-0.5-0.4-1-0.7-1.5-1.1l-1.7-1.3l-24.1,24.3l0-68.4
			l0-4.1h72c-7.2,7.2-14.4,14.5-21.6,21.7c-0.2,0.2-0.4,0.4-0.6,0.6l-0.4,0.4l-2.1,2l2.5,1.9c0.2,0.1,0.3,0.2,0.4,0.3
			c4.5,3.2,8.7,7,12.6,11.8c5.4,6.6,9.1,13.2,11.4,20.3c1.6,5,2.2,9.7,1.9,14.2c-0.4,5.3-1.6,10.8-3.5,16.3
			c-2.7,7.3-6.8,13.4-12.2,18.2c-5.5,4.8-12.2,8.3-20.6,10.5c-5.2,1.4-10.8,2.3-17,2.6c-0.8,0-1.6,0.1-2.4,0.2l-1.1,0.1H81.7z" />
				<path fill="#FFFFFF" d="M135.2,34.4c-5.8,5.8-11.6,11.6-17.3,17.4c-0.2,0.2-0.3,0.3-0.5,0.5c-0.1,0.1-0.3,0.2-0.4,0.4l-4.3,4
			l4.6,3.6l0.1,0.1c0.2,0.2,0.4,0.3,0.5,0.4c4.4,3,8.3,6.7,12.1,11.4c5.2,6.3,8.8,12.7,11,19.5c1.5,4.7,2.1,9.1,1.8,13.3
			c-0.3,5.1-1.5,10.3-3.4,15.6c-2.6,7-6.3,12.6-11.5,17.2c-5.2,4.6-11.6,7.8-19.6,10c-5.1,1.4-10.5,2.2-16.5,2.6
			c-0.8,0-1.6,0.1-2.5,0.2l-0.9,0.1h-6.6c-0.2,0-0.3-0.1-0.5-0.1c-1.1-0.1-2.2-0.2-3.2-0.3c-2.3-0.2-4.4-0.4-6.5-0.7
			c-8.4-1.4-16.1-4.4-22.8-9c-5.7-3.9-10.5-8.6-14.4-14.1c2.6,1.7,5.1,3.3,7.7,4.8c6.5,3.7,12.7,6.4,19.1,8.3
			c5.7,1.7,11.6,2.7,17.6,3c1.9,0.1,3.5,0.2,5.2,0.2c2.7,0,5.1-0.2,7.3-0.6c7.8-1.5,14-5.3,18.6-11.3c3.4-4.6,5.5-9.9,6.3-16
			c0.8-6.6-0.4-12.9-3.5-18.5c-2.5-4.6-6.1-8.8-11.1-12.8c-1.2-0.9-2.4-1.8-3.5-2.7c-0.5-0.4-1-0.7-1.5-1.1l-3.5-2.6L90,79.9l-7,7.1
			L71.7,98.3l0-4.1l0-58.2c0-0.5,0-1,0-1.6H135.2 M147.2,29.4c-26.8,0-53.7,0-80.5,0c0,2.2,0,4.4,0,6.6c0,24.5,0,48.9,0,73.4
			c0,0.3,0,0.6,0,1c9-9.1,17.9-18,26.9-27c1.6,1.2,3.3,2.4,4.9,3.7c4,3.2,7.4,6.8,9.9,11.3c2.7,4.9,3.5,10,2.9,15.5
			c-0.6,5-2.2,9.6-5.3,13.6c-3.9,5.2-9.2,8.2-15.5,9.4c-2.1,0.4-4.2,0.5-6.3,0.5c-1.6,0-3.3-0.1-4.9-0.2c-5.6-0.3-11.1-1.2-16.5-2.8
			c-6.3-1.9-12.3-4.6-18-7.9c-8.1-4.6-15.5-10.2-22.7-16.1c0,0.2,0,0.4,0,0.6c0.7,2.1,1.2,4.2,2,6.2c4.7,11.2,12,20.3,22.1,27.2
			c7.5,5.1,15.8,8.3,24.8,9.8c3.3,0.5,6.7,0.7,10,1.1c0.2,0,0.4,0.1,0.6,0.1c2.4,0,4.8,0,7.2,0c1.2-0.1,2.3-0.2,3.5-0.2
			c5.9-0.4,11.8-1.2,17.5-2.7c8-2.1,15.3-5.6,21.6-11c6-5.3,10.2-11.8,12.9-19.2c2-5.5,3.3-11.1,3.7-16.9c0.4-5.2-0.5-10.2-2.1-15.1
			c-2.5-7.9-6.6-14.8-11.9-21.1c-3.8-4.7-8.2-8.8-13.1-12.3c-0.1-0.1-0.2-0.2-0.4-0.3c0.4-0.4,0.7-0.7,1.1-1
			c8.4-8.5,16.9-17,25.3-25.5C146.9,29.8,147,29.6,147.2,29.4L147.2,29.4z" />
			</a>
		</g>

	</g>
</svg>