<?xml version="1.0" encoding="utf-8"?>
<!-- Generator: Adobe Illustrator 24.3.0, SVG Export Plug-In . SVG Version: 6.00 Build 0)  -->
<svg version="1.1" xmlns="http://www.w3.org/2000/svg" xmlns:xlink="http://www.w3.org/1999/xlink" x="0px" y="0px"
	viewBox="0 0 1920 1080" enable-background="new 0 0 1920 1080" xml:space="preserve">

	<g id="foreground-test">
		<path fill="#8888BA" d="M0,903.5v176h1920v-176H0z" />
		<g id="mini_snif_head_5_">
			<path fill="#E57341" d="M370.9,747.4c0,0-174.4,66.1-108.4,121.6C324.3,920.7,357.7,927.1,370.9,747.4z" />
			<g>
				<defs>
					<path id="SVGID_47_"
						d="M370.9,747.4c0,0-174.4,66.1-108.4,121.6C324.3,920.7,357.7,927.1,370.9,747.4z" />
				</defs>
				<clipPath id="SVGID_2_">
					<use xlink:href="#SVGID_47_" overflow="visible" />
				</clipPath>
				<path clip-path="url(#SVGID_2_)" fill="#B24E2B" d="M287.7,777.7c0,0,76.6,5.3,81.9,52.9c6.7,60.6,13.2-97.8,13.2-97.8
				L287.7,777.7z" />
			</g>
			<path fill="#F9DED4" d="M37.9,730.2c0,0-3.7,140.6,61.8,173.2s59.7-44.1,59.7-44.1L37.9,730.2z" />
			<path fill="#FF884D" d="M269.2,814.7c-39.6-2.6-40.3,9.7-50.2,10.6c-29.7,2.6-41,5.3-41,5.3s-66.1-81.9-140.1-100.4
			c0,0,114.9,124.1,113.1,148.9c-0.4,5.2,1.2-13.8-39.2-13.8c0,0,28.8,21.9,20.8,21.9c-1.7,0-9.8-5.8-21.9-2.3c0,0,15,4,15,7.5
			c-6.3,15-26,11-26,11c-5.2,20.8-8.9,24.8-35.4,48.8c0,0,58.1,84.6,174.4,95.1c47.6,5.3,89.9-35.7,87.2-37
			c-15.4-7.7-107,11.9-162.5-70c0,0,27.8,66.1,149.3,71.4c32.7,1.4,100.4-23.8,92.5-81.9c-21.1-15.9-107-7.9-128.2-7.9
			c-17.4,0,58.1,1.3,58.1,1.3s-31.7-97.8-66.1-87.2c-3.6,1.1,18.5-7.9,18.5-7.9c-5-4-21.1-2.6-29.1,0
			C254.2,829.4,269.2,814.7,269.2,814.7z" />
			<path fill="#5E2D1D" d="M380.2,936.3c11.4,34.2,43.6,6.6,38.3-6.6C413.2,919.1,376.2,924.4,380.2,936.3z" />
			<path fill="#EAEAEA" d="M193.6,921.2c0,18.3,15.5,24.4,37.1,24.4c15.4,0,26.2-3.9,27.8-18.3c1.5-13.7,0-54.9-34-54.9
			C196.7,872.4,193.6,903.5,193.6,921.2z" />
			<path fill="#F4F4F4" d="M328.6,916.1c0,6.3-0.1,3.5-27.1,3.5c-5.2,0-27.5,4-28.8,0c-3-9,2.9-44.4,25.1-47.1
			C324.9,869.2,328.6,890.8,328.6,916.1z" />
			<g>
				<ellipse fill="#191919" cx="225.8" cy="914.4" rx="18.3" ry="19.1" />
				<path fill="#7DB545" d="M225.8,895.3c-10.1,0-18.3,8.5-18.3,19.1c0,10.5-3.1,19.1,18.3,19.1c21.6,0,18.3-8.5,18.3-19.1
				C244.2,903.8,236,895.3,225.8,895.3 M225.8,889.5c13.3,0,24.1,11.1,24.1,24.8c0,1.2,0,2.3,0.1,3.5c0.2,5.2,0.4,11.1-3.9,15.6
				c-3.8,4-10.1,5.7-20.2,5.7c-10.1,0-16.3-1.8-20.1-5.7c-4.4-4.6-4.2-10.5-4-15.8c0-1.1,0.1-2.2,0.1-3.3
				C201.7,900.7,212.6,889.5,225.8,889.5L225.8,889.5z" />
			</g>
			<g>
				<defs>
					<path id="SVGID_49_" d="M328.7,920.1c0,0-9.7,0-28.3,0c-13.2,0-27.1,2.3-27.1,2.5c-1.3-12.5-0.6-52.7,29.1-50.2
					C326.3,874.4,329.3,895.3,328.7,920.1z" />
				</defs>
				<clipPath id="SVGID_4_">
					<use xlink:href="#SVGID_49_" overflow="visible" />
				</clipPath>
				<g clip-path="url(#SVGID_4_)">
					<ellipse fill="#191919" cx="300.3" cy="909.5" rx="15.4" ry="16.4" />
					<path fill="#7DB545" d="M300.3,893.1c-8.5,0-15.4,7.4-15.4,16.4c0,9.1-2.6,16.4,15.4,16.4c18.2,0,15.4-7.4,15.4-16.4
					C315.7,900.4,308.8,893.1,300.3,893.1 M300.3,888.5c11.1,0,20.1,9.4,20.1,21.1c0,1,0,2,0.1,3c0.2,4.4,0.4,9.5-3.3,13.3
					c-3.2,3.3-8.4,4.8-16.8,4.8c-8.4,0-13.5-1.5-16.7-4.8c-3.7-3.8-3.5-8.9-3.4-13.4c0-0.9,0.1-1.9,0.1-2.9
					C280.2,897.9,289.2,888.5,300.3,888.5L300.3,888.5z" />
				</g>
			</g>

			<ellipse transform="matrix(0.5817 -0.8134 0.8134 0.5817 -642.0671 553.3457)" fill="#FFFFFF" cx="217"
				cy="901" rx="7.6" ry="9.6" />

			<ellipse transform="matrix(0.8716 -0.4903 0.4903 0.8716 -398.5664 205.9936)" fill="#F9DED4" cx="193.9"
				cy="863.8" rx="11.7" ry="6" />
			<ellipse transform="matrix(0.5 -0.866 0.866 0.5 -583.5585 715.2253)" fill="#F9DED4" cx="327.6" cy="863"
				rx="5.2" ry="10" />
			<path fill="#E57341"
				d="M273.3,925.3c5-0.7,10.1-1.3,15.1-1.8c5.1-0.5,10.1-1,15.2-1.5c5.1-0.4,10.2-0.8,15.3-1.2
			c5.1-0.4,10.2-0.7,15.3-1c-5.1-0.2-10.2-0.4-15.3-0.5c-5.1-0.1-10.2-0.2-15.3-0.2c-5.1,0-10.2,0-15.4,0
			c-5.1,0.1-10.2,0.2-15.4,0.4c-1.6,0.1-2.8,1.4-2.8,3c0.1,1.6,1.4,2.8,3,2.8C273,925.3,273.1,925.3,273.3,925.3L273.3,925.3z" />
			<g>
				<defs>
					<path id="SVGID_51_" d="M269.2,814.7c-39.6-2.6-40.3,9.7-50.2,10.6c-29.7,2.6-41,5.3-41,5.3s-66.1-81.9-140.1-100.4
					c0,0,114.9,124.1,113.1,148.9c-0.4,5.2,1.2-13.8-39.2-13.8c0,0,28.8,21.9,20.8,21.9c-1.7,0-9.8-5.8-21.9-2.3c0,0,15,4,15,7.5
					c-6.3,15-26,11-26,11c-5.2,20.8-8.9,24.8-35.4,48.8c0,0,58.1,84.6,174.4,95.1c47.6,5.3,89.9-35.7,87.2-37
					c-15.4-7.7-107,11.9-162.5-70c0,0,27.8,66.1,149.3,71.4c32.7,1.4,100.4-23.8,92.5-81.9c-21.1-15.9-107-7.9-128.2-7.9
					c-17.4,0,58.1,1.3,58.1,1.3s-31.7-97.8-66.1-87.2c-3.6,1.1,18.5-7.9,18.5-7.9c-5-4-21.1-2.6-29.1,0
					C254.2,829.4,269.2,814.7,269.2,814.7z" />
				</defs>
				<clipPath id="SVGID_6_">
					<use xlink:href="#SVGID_51_" overflow="visible" />
				</clipPath>
				<path clip-path="url(#SVGID_6_)" fill="#F9DED4" d="M163.5,938.8c0,0-8.4,20.5-56.8,21.6c56.5,63.5,136.4,137.6,274.9,40.7
				C354.4,1009.2,232.1,1038,163.5,938.8z" />
				<path clip-path="url(#SVGID_6_)" fill="#B24E2B" d="M154.9,787.5c0,0-42.1-53.4-122.9,66.3c-32.2,47.7,0.5-153.9,0.5-153.9
				L154.9,787.5z" />
			</g>
			<path fill="#4C280F" d="M249.4,1015.2c-0.1,0-0.2-0.1-0.3-0.1c-0.1,0-0.2,0-0.4,0c-0.2,0-0.5,0-0.7,0c-0.5,0-0.9,0.1-1.4,0.1
			c-0.9,0.1-1.7,0.3-2.6,0.5c-1.7,0.3-3.3,0.7-4.8,1.1c-3.1,0.7-6.1,1.2-8.6,1.2c-2.6,0-4.6-0.5-6.8-2c-2.2-1.5-4.1-3.7-6.3-6.1
			c-0.1,0.7-0.2,1.5-0.2,2.3c0,0.7,0.1,1.5,0.3,2.3l0.3,1.1c0.1,0.4,0.3,0.7,0.5,1.1c0.1,0.2,0.2,0.4,0.2,0.6l0.3,0.5
			c0.2,0.4,0.4,0.7,0.7,1.1c1.1,1.4,2.7,2.7,4.7,3.6c2,0.9,4.2,1.3,6.3,1.3c2.1,0,4.1-0.3,5.9-0.9c1.8-0.5,3.5-1.2,5-2
			c1.5-0.8,2.9-1.7,4.2-2.7c0.6-0.5,1.3-1,1.9-1.5l0.9-0.8C248.7,1015.7,249,1015.4,249.4,1015.2z" />
			<path fill="#89472E" d="M238.5,810.2c6.2-1.2,16.7-0.6,14.4,1.7c-4.6,4.6-29.7,13-29.7,13c-29.7,19.9-46.4,22.4-61.4,12.4
			c-1.7-1.2-6.9-4-6.6-7.2c0-2.7,28.2-1.4,28.2-1.4C181.7,828.4,223.5,813.1,238.5,810.2z" />
			<path fill="#89472E" d="M203.5,768.7c0,0-25.4,19.9-27.8,35.3c0,0-11-5.1-15-2.8c-4,2.3-2.6,10.4,0,25.9s72-15.4,72-15.4
			S222.1,778.2,203.5,768.7z" />
			<g>
				<defs>
					<path id="SVGID_53_" d="M203.5,768.7c0,0-25.4,19.9-27.8,35.3c0,0-11-5.1-15-2.8c-4,2.3-2.6,10.4,0,25.9s72-15.4,72-15.4
					S222.1,778.2,203.5,768.7z" />
				</defs>
				<clipPath id="SVGID_8_">
					<use xlink:href="#SVGID_53_" overflow="visible" />
				</clipPath>
				<path clip-path="url(#SVGID_8_)" fill="#3F221B" d="M231.5,794.6c0,0-67.5,24.2-91.1,48.5c-42.8,43.8,110.2-29,110.2-29
				L231.5,794.6z" />
			</g>

			<ellipse transform="matrix(0.5817 -0.8134 0.8134 0.5817 -607.0187 614.4916)" fill="#FFFFFF" cx="294"
				cy="897.5" rx="6.8" ry="8.5" />
		</g>
		<g>
			<circle fill="#BABABA" cx="1246.5" cy="986.5" r="65" />
			<g>
				<path fill="#9B9B9B" d="M1280.9,1020.9L1280.9,1020.9c6.9-6.9,6.9-18.1,0-25l-44.3-44.3c-6.9-6.9-18.1-6.9-25,0v0
				c-6.9,6.9-6.9,18.1,0,25l44.3,44.3C1262.8,1027.8,1274,1027.8,1280.9,1020.9z" />
				<path fill="#9B9B9B" d="M1211.6,1020.9L1211.6,1020.9c-6.9-6.9-6.9-18.1,0-25l44.3-44.3c6.9-6.9,18.1-6.9,25,0v0
				c6.9,6.9,6.9,18.1,0,25l-44.3,44.3C1229.7,1027.8,1218.5,1027.8,1211.6,1020.9z" />
			</g>
		</g>
		<g>
			<circle fill="#BABABA" cx="1410.5" cy="986.5" r="65" />
			<g>
				<path fill="#9B9B9B" d="M1444.9,1020.9L1444.9,1020.9c6.9-6.9,6.9-18.1,0-25l-44.3-44.3c-6.9-6.9-18.1-6.9-25,0v0
				c-6.9,6.9-6.9,18.1,0,25l44.3,44.3C1426.8,1027.8,1438,1027.8,1444.9,1020.9z" />
				<path fill="#9B9B9B" d="M1375.6,1020.9L1375.6,1020.9c-6.9-6.9-6.9-18.1,0-25l44.3-44.3c6.9-6.9,18.1-6.9,25,0v0
				c6.9,6.9,6.9,18.1,0,25l-44.3,44.3C1393.7,1027.8,1382.5,1027.8,1375.6,1020.9z" />
			</g>
		</g>
		<g>
			<circle fill="#BABABA" cx="1569.5" cy="986.5" r="65" />
			<g>
				<path fill="#9B9B9B" d="M1603.9,1020.9L1603.9,1020.9c6.9-6.9,6.9-18.1,0-25l-44.3-44.3c-6.9-6.9-18.1-6.9-25,0v0
				c-6.9,6.9-6.9,18.1,0,25l44.3,44.3C1585.8,1027.8,1597,1027.8,1603.9,1020.9z" />
				<path fill="#9B9B9B" d="M1534.6,1020.9L1534.6,1020.9c-6.9-6.9-6.9-18.1,0-25l44.3-44.3c6.9-6.9,18.1-6.9,25,0v0
				c6.9,6.9,6.9,18.1,0,25l-44.3,44.3C1552.7,1027.8,1541.5,1027.8,1534.6,1020.9z" />
			</g>
		</g>
		<g>
			<circle fill="#BABABA" cx="1728.5" cy="986.5" r="65" />
			<g>
				<path fill="#9B9B9B" d="M1762.9,1020.9L1762.9,1020.9c6.9-6.9,6.9-18.1,0-25l-44.3-44.3c-6.9-6.9-18.1-6.9-25,0v0
				c-6.9,6.9-6.9,18.1,0,25l44.3,44.3C1744.8,1027.8,1756,1027.8,1762.9,1020.9z" />
				<path fill="#9B9B9B" d="M1693.6,1020.9L1693.6,1020.9c-6.9-6.9-6.9-18.1,0-25l44.3-44.3c6.9-6.9,18.1-6.9,25,0v0
				c6.9,6.9,6.9,18.1,0,25l-44.3,44.3C1711.7,1027.8,1700.5,1027.8,1693.6,1020.9z" />
			</g>
		</g>
	</g>

</svg>