<?xml version="1.0" encoding="utf-8"?>
<!-- Generator: Adobe Illustrator 24.2.3, SVG Export Plug-In . SVG Version: 6.00 Build 0)  -->
<svg version="1.1" xmlns="http://www.w3.org/2000/svg" xmlns:xlink="http://www.w3.org/1999/xlink" x="0px" y="0px"
	viewBox="0 0 1920 1080" enable-background="new 0 0 1920 1080" xml:space="preserve">

	<g id="start">
		<g>
			<defs>
				<rect id="SVGID_86_" x="-2098.4" y="1121.4" width="1920" height="1262" />
			</defs>
			<clipPath id="SVGID_2_">
				<use xlink:href="#SVGID_86_" overflow="visible" />
			</clipPath>
			<path clip-path="url(#SVGID_2_)" fill="#FFCF36" d="M1013.9,2726.3c0,0-629.6-162.5-504.5-473.3
			c125-310.9-230.2-278.3-230.2-278.3s-453.4,121.6-322.8-238.5s-357.8-102.2-665.9-265.3S-892.5,892-892.5,892l2443.2,667.2
			L1013.9,2726.3z" />
			<path clip-path="url(#SVGID_2_)" fill="#8CC94D" d="M-1442.9,2451.7c0,0,235-495.7,537.4-359.3c302.5,136.4,308.7-157,308.7-157
			s-73.5-383.4,278.4-236.9s143.6-280.6,343.7-513.9s609.1-85.4,609.1-85.4l-949.3,1919.6L-1442.9,2451.7z" />
		</g>
		<path fill="#8888BA" d="M1146.5,619.4h-373c-54.7,0-99-44.3-99-99v0c0-54.7,44.3-99,99-99h373c54.7,0,99,44.3,99,99v0
		C1245.5,575.1,1201.2,619.4,1146.5,619.4z" />
		<text transform="matrix(1 0 0 1 817.5532 549.6566)" fill="#FFFFFF" font-family="'Chaloops-Bold'"
			font-size="100.4211px">START</text>
	</g>

</svg>