<?xml version="1.0" encoding="utf-8"?>
<!-- Generator: Adobe Illustrator 24.2.3, SVG Export Plug-In . SVG Version: 6.00 Build 0)  -->
<svg version="1.1" xmlns="http://www.w3.org/2000/svg" xmlns:xlink="http://www.w3.org/1999/xlink" x="0px" y="0px"
	viewBox="0 0 1920 1080" enable-background="new 0 0 1920 1080" xml:space="preserve">

	<g id="gamescreen">
		<g id="heat-icon">
			<g>
				<circle fill="#FF884D" cx="1728.6" cy="985.6" r="64.6" />
				<path fill="#E57341" d="M1728.6,927c15.6,0,30.3,6.1,41.4,17.1c11.1,11.1,17.1,25.8,17.1,41.4c0,15.6-6.1,30.3-17.1,41.4
				s-25.8,17.1-41.4,17.1c-15.6,0-30.3-6.1-41.4-17.1c-11.1-11.1-17.1-25.8-17.1-41.4c0-15.6,6.1-30.3,17.1-41.4
				C1698.3,933.1,1713,927,1728.6,927 M1728.6,921c-35.7,0-64.6,28.9-64.6,64.6c0,35.7,28.9,64.6,64.6,64.6
				c35.7,0,64.6-28.9,64.6-64.6C1793.3,949.9,1764.3,921,1728.6,921L1728.6,921z" />
			</g>
			<circle fill="#FF884D" cx="1728.8" cy="985.8" r="64.8" />
			<path fill="#E57341" d="M1728.8,927c15.7,0,30.4,6.1,41.5,17.2c11.1,11.1,17.2,25.8,17.2,41.5c0,15.7-6.1,30.4-17.2,41.5
			c-11.1,11.1-25.8,17.2-41.5,17.2s-30.4-6.1-41.5-17.2c-11.1-11.1-17.2-25.8-17.2-41.5c0-15.7,6.1-30.4,17.2-41.5
			C1698.4,933.2,1713.1,927,1728.8,927 M1728.8,921c-35.8,0-64.8,29-64.8,64.8s29,64.8,64.8,64.8s64.8-29,64.8-64.8
			S1764.7,921,1728.8,921L1728.8,921z" />
			<path fill="#FFFFFF" d="M1729.1,948.5c3.5,2.4,6.2,5.4,8.5,8.7c4.2,6.2,6.3,13.3,7.4,20.6c0.6,3.8,1.1,7.6,1.7,11.4
			c0.2,1.1,0.6,2.2,1,3.2c1,2,2.4,2.6,4.6,1.9c0.7-0.2,1.4-0.6,2.5-1c-0.3,2.1-0.4,4.1-0.9,6c-2.9,11.8-13.7,20.1-25.5,19.7
			c-12.6-0.5-22.8-9.4-24.8-21.7c-0.6-3.9-0.1-7.6,1.3-11.3c2.7-7.2,6.8-13.7,11.1-20.1c0-0.1,0.1-0.1,0.2-0.1
			c0.8,2.2,1.5,4.4,2.3,6.6c0.4,1.1,0.9,2.1,1.5,3.1c1.6,2.4,3.2,2.4,4.3-0.3c0.8-2,1.6-4,1.9-6.1c0.9-5.4,1.6-10.8,2.3-16.3
			C1728.8,951.4,1728.9,950,1729.1,948.5z M1728.9,979.7c-0.9,1-1.7,1.9-2.5,2.7c-3.8,3.9-5.6,8.5-4.7,14.1c0.1,0.9,0.1,1.8,0,2.7
			c-0.2,2.1-1.3,3-3.4,2.8c-0.7-0.1-1.3-0.2-2.3-0.4c0.3,1.4,0.4,2.7,0.7,3.9c1.8,6.4,8.2,10.5,14.5,9.3c6.6-1.3,11.4-7.7,10.5-14.3
			c-0.7-4.8-3.6-8.7-6.2-12.6c-0.8,1.1-1.5,2.1-2.3,2.9c-1.1,1.1-2.1,1-2.7-0.5c-0.5-1.1-0.8-2.3-1-3.5
			C1729.3,984.5,1729.2,982.2,1728.9,979.7z" />
			<path fill="none" d="M1728.9,978.9c0.2,2.6,0.4,4.8,0.7,7.1c0.2,1.2,0.5,2.4,1,3.5c0.6,1.5,1.6,1.6,2.7,0.5
			c0.8-0.9,1.5-1.9,2.3-2.9c2.6,3.9,5.5,7.7,6.2,12.6c0.9,6.6-3.9,13-10.5,14.3c-6.3,1.2-12.7-2.9-14.5-9.3
			c-0.3-1.2-0.5-2.5-0.7-3.9c0.9,0.2,1.6,0.3,2.3,0.4c2.1,0.2,3.2-0.6,3.4-2.8c0.1-0.9,0.2-1.8,0-2.7c-0.9-5.5,0.9-10.1,4.7-14.1
			C1727.3,980.8,1728,980,1728.9,978.9z" />
		</g>
		<g id="el-icon">
			<circle fill="#FFCF36" cx="1568.7" cy="985.8" r="64.8" />
			<path fill="#FFFFFF" d="M1558.1,989.8c1-11.7,2-23.3,3-35c0-0.2,0.2-0.3,0.3-0.3c6.8,0.9,13.5,1.7,20.3,2.6c0.2,0,0.3,0.2,0.3,0.4
			c-1.8,6.3-3.6,12.6-5.4,19c0,0.2,0.1,0.3,0.2,0.4c3,0.8,5.9,1.5,8.9,2.2c0.2,0,0.3,0.2,0.2,0.4c-6.6,14.6-13.2,29.1-19.7,43.7
			c-0.3-0.1-0.2-0.1-0.6-0.1c0.7-10.4,1.4-20.7,2.1-31.2c0-0.2-0.1-0.3-0.3-0.3c-3.1-0.5-6-0.9-9.1-1.4
			C1558.1,990.1,1558,990,1558.1,989.8z" />
			<path fill="#EDAF14" d="M1568.7,927.1c15.7,0,30.4,6.1,41.5,17.2c11.1,11.1,17.2,25.8,17.2,41.5c0,15.7-6.1,30.4-17.2,41.5
			c-11.1,11.1-25.8,17.2-41.5,17.2s-30.4-6.1-41.5-17.2c-11.1-11.1-17.2-25.8-17.2-41.5c0-15.7,6.1-30.4,17.2-41.5
			C1538.3,933.2,1553,927.1,1568.7,927.1 M1568.7,921c-35.8,0-64.8,29-64.8,64.8c0,35.8,29,64.8,64.8,64.8s64.8-29,64.8-64.8
			C1633.6,950,1604.5,921,1568.7,921L1568.7,921z" />
		</g>
		<g id="water-icon">
			<g>
				<circle fill="#71E2D0" cx="1248.5" cy="985.8" r="64.6" />
				<path fill="#39B79F" d="M1248.5,927.2c15.6,0,30.4,6.1,41.4,17.2c11.1,11.1,17.2,25.8,17.2,41.4s-6.1,30.4-17.2,41.4
				c-11.1,11.1-25.8,17.2-41.4,17.2s-30.4-6.1-41.4-17.2c-11.1-11.1-17.2-25.8-17.2-41.4s6.1-30.4,17.2-41.4
				C1218.1,933.3,1232.8,927.2,1248.5,927.2 M1248.5,921.2c-35.7,0-64.6,28.9-64.6,64.6c0,35.7,28.9,64.6,64.6,64.6
				s64.6-28.9,64.6-64.6C1313.1,950.1,1284.2,921.2,1248.5,921.2L1248.5,921.2z" />
			</g>
			<path fill="#FFFFFF" d="M1248.4,1020.7L1248.4,1020.7c-17.8,0-31.8-16.9-20-36c14.2-20.9,19.4-31.5,20-32.6c0,0,0,0,0-0.1
			c0,0,0,0,0,0.1c0.6,1.2,5.8,11.8,20,32.6C1280.1,1003.7,1266.1,1020.7,1248.4,1020.7z" />
			<path fill="#71E2D0" d="M1265.7,993.7c-0.7,20.1-20.5,18-20.5,18C1252.5,1018.6,1273,1013.8,1265.7,993.7z" />
		</g>
		<g id="light-icon">
			<g>
				<circle fill="#8CC94D" cx="1408.6" cy="985.8" r="64.6" />
				<path fill="#6DAD21" d="M1408.6,927.2c15.6,0,30.3,6.1,41.4,17.1c11.1,11.1,17.1,25.8,17.1,41.4c0,15.6-6.1,30.3-17.1,41.4
				c-11.1,11.1-25.8,17.1-41.4,17.1s-30.3-6.1-41.4-17.1c-11.1-11.1-17.1-25.8-17.1-41.4c0-15.6,6.1-30.3,17.1-41.4
				S1393,927.2,1408.6,927.2 M1408.6,921.2c-35.7,0-64.6,28.9-64.6,64.6c0,35.7,28.9,64.6,64.6,64.6s64.6-28.9,64.6-64.6
				C1473.3,950.1,1444.3,921.2,1408.6,921.2L1408.6,921.2z" />
			</g>
			<g>
				<path fill="#FFFFFF" d="M1408.3,951.8c-11.4,0-20.6,9.2-20.6,20.6c0,4,1.2,7.8,3.2,11c2,3.6,7.4,9.3,8.5,19.8
				c0,0.1,0.1,0.2,0.2,0.1c1.8-0.3,17.9-3.2,17.9-3.1c2-7.3,3.1-8.9,7.5-15.8c2.4-3.4,3.8-7.5,3.8-12
				C1428.9,961,1419.7,951.8,1408.3,951.8z" />
				<path fill="#FFFFFF" d="M1415.9,1007.5l-14.2,2.5c-1,0.2-2-0.5-2.2-1.5l0,0c-0.2-1,0.5-2,1.5-2.2l14.2-2.5c1-0.2,2,0.5,2.2,1.5
				l0,0C1417.6,1006.4,1416.9,1007.4,1415.9,1007.5z" />
				<path fill="#FFFFFF" d="M1403.1,1016.1c0,0,0.4,4.1,6.4,3.2c5.9-0.8,6-5.2,6-5.2L1403.1,1016.1z" />
				<path fill="#FFFFFF" d="M1416.4,1011.1l-14.1,2.4c-1,0.2-2-0.5-2.2-1.5l0,0c-0.2-1,0.5-2,1.5-2.2l14.1-2.4c1-0.2,2,0.5,2.2,1.5
				l0,0C1418.1,1009.9,1417.4,1010.9,1416.4,1011.1z" />
			</g>
			<path fill="#8CC94D" d="M1395,977.6c-0.7-23,20.3-17.8,20.3-17.8C1408.1,952.8,1387.8,957.7,1395,977.6z" />
			<path fill="#8CC94D" d="M1395,977.6c0.7-19.9,20.3-17.8,20.3-17.8C1408.1,953,1387.8,957.7,1395,977.6z" />
		</g>
	</g>

</svg>