<?xml version="1.0" encoding="utf-8"?>
<!-- Generator: Adobe Illustrator 24.3.0, SVG Export Plug-In . SVG Version: 6.00 Build 0)  -->
<svg version="1.1" xmlns="http://www.w3.org/2000/svg" xmlns:xlink="http://www.w3.org/1999/xlink" x="0px" y="0px"
	width="1920px" height="1080px" viewBox="0 0 1920 1080" enable-background="new 0 0 1920 1080" xml:space="preserve">

	<!-- <g id="kitchen">
		<g id="_x33_jCuI3_1_" display="none">

			<image display="inline" overflow="visible" width="1024" height="854" id="_x33_jCuI3_2_"
				xlink:href="A2671A046906CFC5.jpg" transform="matrix(1 0 0 1 1366.5 -135.5514)">
			</image>
		</g>
		<rect x="0.5" y="999.5" display="none" fill="#6DAD21" width="1920" height="80.9" />
		<g display="none">
			<rect x="0.5" y="991.1" display="inline" fill="#8CC94D" width="1920" height="12.4" />
		</g>
		<path display="none" fill="#6DAD21" d="M1352,986.2c0,1.7-0.1,3.3-0.3,4.9h-127.6c0-18.6,15.1-33.7,33.7-33.7c2.5,0,5,0.3,7.4,0.8
		c8.9-10.8,22.7-17.7,38.3-17.7C1330.3,940.5,1352,961,1352,986.2z" />
		<g display="none">
			<path display="inline" fill="#8CC94D" d="M1364.6,991.1h-103.7c0.8-14.4,12.7-25.9,27.4-25.9c1.7,0,3.4,0.2,5,0.5
			c7.5-8.5,18.4-13.9,30.7-13.9C1345.9,951.8,1363.8,969.2,1364.6,991.1z" />
		</g>
	</g>
	<g id="foreground">
	</g>
	<g id="gamescreen">
	</g> -->
	<g id="intro">
		<rect id="background" x="0.5" y="1.4" fill="#8888BA" width="1920" height="1080" />
		<ellipse id="shadow" fill="#6060A5" cx="939.5" cy="999.4" rx="886" ry="42" />
		<g>
			<ellipse fill="#FFFFFF" cx="1094.5" cy="255.9" rx="310" ry="190.5" />
			<path fill="#FFFFFF" d="M1254.3,487.8c2.1,1.6,5.2,0.3,5.6-2.4l5.3-42.7l5.3-42.7c0.3-2.7-2.3-4.7-4.8-3.6l-39.6,16.7l-39.6,16.7
			c-2.5,1-2.9,4.4-0.7,6l34.3,25.9L1254.3,487.8z" />
		</g>
		<g id="house">
			<g>
				<polygon opacity="0.61" points="834.4,769.3 820,781.9 228.5,781.9 234.6,769.3 			" />
				<polygon opacity="0.61" points="820,781.9 805.6,794.6 222.4,794.6 228.5,781.9 			" />
				<polygon opacity="0.61" points="805.6,794.6 788,810 214.9,810 222.4,794.6 			" />
			</g>
			<g>
				<polygon fill="#46467A" points="1253,634.4 225.8,634.4 184,634.4 241.6,496.8 1191.2,496.8 			" />
				<polygon fill="#46467A" points="1196.3,508 236.9,508 241.6,496.8 1191.2,496.8 			" />
				<polygon fill="#46467A" points="1201.3,519.3 232.2,519.3 236.9,508 1196.3,508 			" />
				<polygon fill="#46467A" points="1206.4,530.5 227.5,530.5 232.2,519.3 1201.3,519.3 			" />
				<polygon fill="#46467A" points="1211.4,541.7 222.8,541.7 227.5,530.5 1206.4,530.5 			" />
				<polygon fill="#46467A" points="1216.5,553 218.1,553 222.8,541.7 1211.4,541.7 			" />
				<polygon fill="#46467A" points="1221.5,564.2 213.4,564.2 218.1,553 1216.5,553 			" />
				<polygon fill="#46467A" points="1226.5,575.4 208.7,575.4 213.4,564.2 1221.5,564.2 			" />
				<polygon fill="#46467A" points="1231.6,586.7 204,586.7 208.7,575.4 1226.5,575.4 			" />
				<polygon fill="#46467A" points="1236.6,597.9 199.3,597.9 204,586.7 1231.6,586.7 			" />
				<polygon fill="#46467A" points="1241.7,609.2 194.6,609.2 199.3,597.9 1236.6,597.9 			" />
				<polygon fill="#46467A" points="1246.7,620.4 189.9,620.4 194.6,609.2 1241.7,609.2 			" />
				<polygon fill="#46467A" points="1253,634.4 184,634.4 189.9,620.4 1246.7,620.4 			" />
			</g>
			<polygon fill="#8CC94D"
				points="1210.9,769.3 234.6,769.3 234.6,628.8 477.6,450.4 726.2,634.4 1210.9,634.4 		" />
			<rect x="234.6" y="798.8" fill="#8CC94D" width="553.5" height="189.6" />
			<polygon fill="#46467A" points="788,810 214.9,810 234.6,769.3 834.4,769.3 		" />
			<polygon fill="#71E2D0" points="597,634.4 692.5,555.8 788.1,634.4 788.1,776.3 597,776.3 		" />
			<polygon fill="#71E2D0" points="1275.5,801.6 1033.9,630.2 786.7,801.6 786.7,1001.1 1275.5,1001.1 		" />
			<polygon fill="#6DAD21" points="657.1,577.7 649.6,584.5 529.3,496.8 476.9,458.6 424.4,496.8 235,634.4 218.2,634.4 407.6,496.8 
			476.9,446.4 546,496.8 		" />
			<polygon fill="#39B79F"
				points="804.3,648.5 787.7,648.5 692.5,560.6 596.1,648.5 579.4,648.5 692.6,545.3 		" />
			<polygon fill="#39B79F" points="1298.1,810 1278.9,810 1033.9,634.3 790.2,810 771,810 1033.9,620.5 		" />
			<g>
				<rect x="264.1" y="649.9" fill="#FBFFFD" width="84.3" height="111" />
				<rect x="272.5" y="661" fill="#C5E2E1" width="67.4" height="88.8" />
				<rect x="302" y="656.9" fill="#FBFFFD" width="8.4" height="96.9" />

				<rect x="300.6" y="668.2" transform="matrix(-1.836970e-16 1 -1 -1.836970e-16 1010.9108 401.2712)"
					fill="#FBFFFD" width="8.4" height="75.9" />
			</g>
			<g>
				<rect x="263.5" y="832.9" fill="#FBFFFD" width="84.3" height="111" />
				<rect x="271.9" y="844" fill="#C5E2E1" width="67.4" height="88.8" />
				<rect x="301.4" y="839.9" fill="#FBFFFD" width="8.4" height="96.9" />

				<rect x="300" y="851.2" transform="matrix(-1.836970e-16 1 -1 -1.836970e-16 1193.3131 584.9194)"
					fill="#FBFFFD" width="8.4" height="75.9" />
			</g>
			<g>
				<rect x="398.4" y="649.5" fill="#FBFFFD" width="167.7" height="111" />
				<rect x="406.8" y="660.6" fill="#C5E2E1" width="150.9" height="88.8" />
				<rect x="514.1" y="658.3" fill="#FBFFFD" width="8.4" height="96.9" />
				<rect x="441.1" y="658.3" fill="#FBFFFD" width="8.4" height="96.9" />

				<rect x="479.3" y="624.3" transform="matrix(-1.836970e-16 1 -1 -1.836970e-16 1188.1913 221.1812)"
					fill="#FBFFFD" width="8.4" height="160.7" />
			</g>
			<g>
				<rect x="398.9" y="833.1" fill="#FBFFFD" width="167.7" height="111" />
				<rect x="405.9" y="844.2" fill="#C5E2E1" width="150.9" height="88.8" />
				<rect x="513.2" y="842" fill="#FBFFFD" width="8.4" height="96.9" />
				<rect x="440.2" y="842" fill="#FBFFFD" width="8.4" height="96.9" />

				<rect x="478.4" y="808" transform="matrix(-1.836970e-16 1 -1 -1.836970e-16 1370.9731 405.7336)"
					fill="#FBFFFD" width="8.4" height="160.7" />
			</g>
			<g>
				<rect x="834.4" y="833.1" fill="#FBFFFD" width="167.7" height="111" />
				<rect x="841.4" y="844.2" fill="#C5E2E1" width="150.9" height="88.8" />
				<rect x="948.7" y="842" fill="#FBFFFD" width="8.4" height="96.9" />
				<rect x="875.7" y="842" fill="#FBFFFD" width="8.4" height="96.9" />

				<rect x="913.9" y="808" transform="matrix(-1.836970e-16 1 -1 -1.836970e-16 1806.4496 -29.7429)"
					fill="#FBFFFD" width="8.4" height="160.7" />
			</g>
			<g>
				<rect x="1067.6" y="833.1" fill="#FBFFFD" width="167.7" height="111" />
				<rect x="1074.6" y="844.2" fill="#C5E2E1" width="150.9" height="88.8" />
				<rect x="1181.9" y="842" fill="#FBFFFD" width="8.4" height="96.9" />
				<rect x="1108.9" y="842" fill="#FBFFFD" width="8.4" height="96.9" />

				<rect x="1147.1" y="808" transform="matrix(-1.836970e-16 1 -1 -1.836970e-16 2039.6403 -262.9335)"
					fill="#FBFFFD" width="8.4" height="160.7" />
			</g>
			<g>
				<rect x="827.4" y="655.5" fill="#FBFFFD" width="74.5" height="46.4" />
				<rect x="838.6" y="665.4" fill="#C5E2E1" width="53.4" height="26.7" />
			</g>
			<g>
				<circle fill="#C5E2E1" cx="1033.9" cy="699.1" r="8.4" />
				<path fill="#FFFFFF" d="M1033.9,690.6c4.7,0,8.4,3.8,8.4,8.4c0,4.7-3.8,8.4-8.4,8.4s-8.4-3.8-8.4-8.4
				C1025.5,694.4,1029.2,690.6,1033.9,690.6 M1033.9,679.4c-10.8,0-19.7,8.8-19.7,19.7c0,10.8,8.8,19.7,19.7,19.7
				s19.7-8.8,19.7-19.7C1053.6,688.2,1044.7,679.4,1033.9,679.4L1033.9,679.4z" />
			</g>
			<g>
				<path fill="#FBFFFD" d="M693.2,607.8L693.2,607.8c-20.6,0-37.2,16.7-37.2,37.2v115.9h74.5V645
				C730.5,624.4,713.8,607.8,693.2,607.8z" />
				<path fill="#C5E2E1"
					d="M693.2,619L693.2,619c-15.1,0-27.4,12.3-27.4,27.4v103.3h54.8V646.4C720.6,631.3,708.4,619,693.2,619z" />
				<rect x="688.3" y="644.3" fill="#FBFFFD" width="9.8" height="108.2" />

				<rect x="687.6" y="667.5" transform="matrix(-1.836970e-16 1 -1 -1.836970e-16 1393.7086 8.64)"
					fill="#FBFFFD" width="9.8" height="67.4" />

				<rect x="687.6" y="614.1" transform="matrix(-1.836970e-16 1 -1 -1.836970e-16 1340.3276 -44.741)"
					fill="#FBFFFD" width="9.8" height="67.4" />

				<rect x="678.4" y="616.6" transform="matrix(-0.7071 0.7071 -0.7071 -0.7071 1616.1687 602.446)"
					fill="#FBFFFD" width="9.8" height="38.7" />

				<rect x="698.7" y="616.6" transform="matrix(0.7071 0.7071 -0.7071 0.7071 655.7625 -311.2657)"
					fill="#FBFFFD" width="9.8" height="38.7" />
			</g>
			<g>
				<circle fill="#C5E2E1" cx="476.2" cy="523.5" r="8.4" />
				<path fill="#FFFFFF" d="M476.2,515c4.7,0,8.4,3.8,8.4,8.4c0,4.7-3.8,8.4-8.4,8.4c-4.7,0-8.4-3.8-8.4-8.4
				C467.8,518.8,471.5,515,476.2,515 M476.2,503.8c-10.8,0-19.7,8.8-19.7,19.7s8.8,19.7,19.7,19.7c10.8,0,19.7-8.8,19.7-19.7
				S487,503.8,476.2,503.8L476.2,503.8z" />
			</g>
			<rect x="155.9" y="988.4" fill="#C6C6C8" width="632.1" height="5.6" />
			<rect x="155.9" y="994.1" fill="#AAAAAA" width="632.1" height="7" />
			<g>
				<rect x="656" y="843.8" opacity="0.2" width="74.5" height="144.7" />
				<rect x="661.6" y="849.4" width="64.6" height="133.5" />
			</g>
		</g>
		<g>
			<rect x="391.4" y="127" fill="none" width="178.1" height="89.5" />
			<text transform="matrix(1 0 0 1 391.3867 198.7848)" fill="#FF884D" font-family="'Chaloops-Bold'"
				font-size="80px">Snif!</text>
		</g>
		<rect x="53.5" y="44" fill="none" width="451" height="112.4" />
		<text transform="matrix(1 0 0 1 53.5 115.8121)" fill="#46467A" font-family="'Chaloops-Bold'"
			font-size="80px">Energiagent</text>
		<g>
			<path fill="#E57341" d="M1329.3,433.8c0,0,200.8,76.1,124.7,139.9C1383.1,633.4,1344.5,640.7,1329.3,433.8z" />
			<path fill="#B24E2B" d="M1406.9,471.4c-21.2,4.1-55.1,14.3-69.5,38.7c-3.2-21.3-5.8-46.6-8-76.3
			C1329.3,433.8,1369.3,448.9,1406.9,471.4z" />
			<path fill="#F9DED4" d="M1712.7,414c0,0,4.2,161.8-71.1,199.3s-68.7-50.8-68.7-50.8L1712.7,414z" />
			<path fill="#E57341" d="M1811.5,659.2c0,0-75-114.9-207.8-20.6c-27.2,19.3-23.3,187.4-31,232.7l-68.9-4.1l34.9,63.6
			c0,0,227.1,51.8,211.8-212.5C1750.4,665.1,1811.5,659.2,1811.5,659.2z" />
			<path fill="#F9DED4" d="M1750.4,718.3c0.5,8.2,0.7,16.1,0.7,23.7c-7.5,0-14.8-6.6-18.3-28.7c0,0-40.5,56.4-46.5-11.3
			c0,0-37.2,59.1-55.1-5.3c-9.4-33.9-15.2-53.4-18.6-64.2c127.2-83,198.8,26.7,198.8,26.7S1750.4,665.1,1750.4,718.3z" />
			<path fill="#CE623C" d="M1751.1,741.9c0.6,200.5-151.4,197-198.7,191.1c-5-3.6-8.6-8.1-10.5-13.6c0,0,174,46.1,158.8-184.5
			c13.8,3.9,32.2-21.6,32.2-21.6C1736.3,735.3,1743.7,741.9,1751.1,741.9z" />
			<path fill="#E57341"
				d="M1541.9,919.4c1.9,5.2,5.3,9.6,10,13.1c-6.4-0.6-10.8-1.3-12.5-1.7c-0.3-0.1-0.5-0.1-0.7-0.1
			c0,0-0.1,0-0.1,0c0,0,0,0,0,0l-34.9-63.6l68.9,4.1c7.7-45.3,3.8-213.4,31-232.7c3-2.2,6-4.2,9-6.1c1.2,3.8,2.6,8.6,4.5,14.8
			c3.4,11.4,8,27.4,14.1,49.4c17.9,64.4,55.1,5.3,55.1,5.3c2,22.2,7.6,31,14.3,32.9C1715.9,965.5,1541.9,919.4,1541.9,919.4z" />
			<path fill="#FF884D" d="M1471.3,763.2c0,0-70.1-6.8-107.1,36.4c-9.1,14.6,2.8,51.8,2.8,51.8l0.3,21.6c0,0-15.9,10.6,4.6,29.2
			c18.6,6.6,45.2,0.7,45.2,0.7l3.3-64.4c0,0-7.1-2.8-6-14.6c0.2,0.1,12.3-11,14.3-18.3c0.3,0-41.2,95.7-12.8,141.6l-30.7,24
			c0,0-40.3-3.2-24.4,34c12.2,3.6,49.6,4.5,55.6,3.9s54.8-25.2,54.8-25.2s15.7-13-2-33.1c0.3-0.2,0-18.1,0-18.1s27,6,31.6,4.7
			l9.5,16c0,0-5.7,23.5,0,30c5.7,6.4,35.6,35.7,42.2,37c6.6,1.3,39.2-2,63.7-8c6.6-1.3,5.3-31.2-18.6-33.2
			c-10-0.7-58.4-47.8-54.4-161.4l21.9,4l-12,15.3c0,0-49.8,19.9-29.9,51.8c10.6,10.6,32.7,17.3,53.1,19.9c6-0.7,15.8-7.4,10.6-26.6
			c-0.7-5.3,7.3-25.9,7.3-25.9S1688.8,754.4,1471.3,763.2z" />
			<path fill="#B24E2B" d="M1367,851.4c0,0,37.2,2,51.8-13.9c0.1-0.2-10.5,20.3-12.1,67.1c-0.2,0.3-28.1,3.7-34.8-2.3
			c-20.6-18.6-4.6-29.2-4.6-29.2L1367,851.4z" />
			<path fill="#B24E2B" d="M1594.4,856.4c0,0-22.6,0-41.2-19.3c0,0-49.8,19.9-29.9,51.8c5.3,8.6,41.8,19.9,53.1,19.9
			s14.3-14.3,10.6-26.6C1587.1,882.2,1589.7,867.7,1594.4,856.4z" />
			<path fill="#FF884D" d="M1446.5,511.4c45.6-3,46.4,11.2,57.8,12.2c34.2,3,47.2,6.1,47.2,6.1s76.1-94.3,161.2-115.6
			c0,0-132.2,142.9-130.2,171.4c0.4,6-1.3-15.9,45.2-15.9c0,0-33.1,25.2-23.9,25.2c2,0,11.3-6.6,25.2-2.7c0,0-17.3,4.6-17.3,8.6
			c7.3,17.3,29.9,12.6,29.9,12.6c6,23.9,10.2,28.6,40.7,56.2c0,0-66.9,97.4-200.8,109.5c-54.8,6.1-103.4-41.1-100.4-42.6
			c17.7-8.8,123.2,13.7,187.1-80.6c0,0-31.9,76.1-171.9,82.1c-37.6,1.6-115.6-27.4-106.5-94.3c24.3-18.3,123.2-9.1,147.5-9.1
			c20.1,0-66.9,1.5-66.9,1.5s36.5-112.6,76.1-100.4c4.2,1.3-21.3-9.1-21.3-9.1c5.8-4.6,24.3-3,33.5,0
			C1463.7,528.3,1446.5,511.4,1446.5,511.4z" />
			<path fill="#B24E2B" d="M1471.3,983.9c0,0-48.9,24.5-54.9,25.2s-43.4-0.3-55.6-3.8c-15.9-37.2,24.4-34,24.4-34l30.6-24
			c7.8,3.5,23,6.8,53.7,3.9C1486.8,971,1471.3,983.9,1471.3,983.9z" />
			<path fill="#B24E2B" d="M1616.3,1012.4c-24.6,6-57.1,9.3-63.7,8c-6.6-1.3-36.5-30.5-42.2-37c-5.7-6.4,0-30,0-30l-0.2-0.3
			c10.5,0.5,33.4,0.3,57.7-7.2c12.2,22.6,25.2,33.1,29.9,33.4C1621.6,981.2,1622.9,1011.1,1616.3,1012.4z" />
			<path fill="#5E2D1D"
				d="M1318.7,651.3c-13.1,39.4-50.2,7.6-44.1-7.6C1280.7,631.5,1323.3,637.6,1318.7,651.3z" />
			<path fill="#EAEAEA" d="M1533.5,633.9c0,21-17.8,28.1-42.7,28.1c-17.7,0-30.2-4.5-32.1-21c-1.8-15.8,0-63.1,39.2-63.1
			C1529.9,577.8,1533.5,613.6,1533.5,633.9z" />
			<path fill="#F4F4F4" d="M1378.1,628.1c0,7.3,0.1,4,31.2,4c6,0,31.7,4.6,33.2,0c3.5-10.4-3.3-51.1-28.9-54.2
			C1382.3,574,1378.1,598.9,1378.1,628.1z" />
			<g>
				<path fill="#191919" d="M1427.3,633.8c-7.3-0.6-15.1-1.7-18-1.7c-6.6,0-11.9,0.2-16,0.3c-1-3.3-0.4-7.4-0.4-11.9
				c0-10.4,8-18.9,17.8-18.9c4.6,0,8.8,1.9,11.9,4.9c0.8,0.8,1.6,1.7,2.3,2.7c0.3,0.5,0.7,1,1,1.5c0.3,0.5,0.6,1.1,0.8,1.6
				c1.1,2.5,1.8,5.3,1.8,8.2C1428.4,625.6,1429.1,630.4,1427.3,633.8z" />
				<path fill="#7DB545" d="M1433.8,623.8c0-1.1-0.1-2.2-0.1-3.3c0-13.4-10.4-24.2-23.1-24.2s-23.1,10.9-23.1,24.2
				c0,1.1,0,2.3-0.1,3.5c-0.1,2.8-0.2,5.8,0.4,8.7c1.6-0.1,3.3-0.2,5.4-0.2c-1-3.3-0.4-7.4-0.4-11.9c0-10.4,8-18.9,17.8-18.9
				c4.6,0,8.8,1.9,11.9,4.9c0.8,0.8,1.6,1.7,2.3,2.7c0.3,0.5,0.7,1,1,1.5c0.3,0.5,0.6,1.1,0.8,1.6c1.1,2.5,1.8,5.3,1.8,8.2
				c0,5.2,0.7,9.9-1.1,13.3c1.9,0.2,3.8,0.3,5.6,0.3C1434,630.8,1433.9,627.1,1433.8,623.8z" />
			</g>
			<g>
				<ellipse fill="#191919" cx="1496.4" cy="626" rx="21.1" ry="22" />
				<path fill="#7DB545" d="M1496.4,604.1c11.7,0,21.1,9.8,21.1,22c0,12.1,3.5,22-21.1,22c-24.9,0-21.1-9.8-21.1-22
				C1475.3,613.9,1484.7,604.1,1496.4,604.1 M1496.4,597.4c-15.3,0-27.7,12.8-27.7,28.6c0,1.3-0.1,2.7-0.1,4c-0.2,6-0.5,12.8,4.5,18
				c4.4,4.6,11.6,6.6,23.3,6.6c11.6,0,18.8-2,23.2-6.6c5.1-5.3,4.8-12.1,4.6-18.2c0-1.3-0.1-2.6-0.1-3.8
				C1524.1,610.3,1511.7,597.4,1496.4,597.4L1496.4,597.4z" />
			</g>

			<ellipse transform="matrix(0.8134 -0.5817 0.5817 0.8134 -74.0646 990.3648)" fill="#FFFFFF" cx="1506.5"
				cy="610.6" rx="11.1" ry="8.8" />

			<ellipse transform="matrix(0.4903 -0.8716 0.8716 0.4903 286.624 1625.644)" fill="#F9DED4" cx="1533.1"
				cy="567.8" rx="6.9" ry="13.5" />
			<ellipse transform="matrix(0.866 -0.5 0.5 0.866 -98.6703 765.5505)" fill="#F9DED4" cx="1379.2" cy="566.9"
				rx="11.5" ry="6" />
			<path fill="#E57341" d="M1441.8,638.6c-5.7-0.8-11.6-1.5-17.4-2.1c-5.8-0.6-11.7-1.2-17.5-1.7c-5.8-0.5-11.7-1-17.6-1.4
			c-5.9-0.4-11.7-0.8-17.6-1.1c5.9-0.2,11.8-0.4,17.6-0.5c5.9-0.1,11.8-0.2,17.7-0.3c5.9,0,11.8,0,17.7,0c5.9,0.1,11.8,0.2,17.8,0.4
			c1.8,0.1,3.3,1.6,3.2,3.5c-0.1,1.8-1.6,3.3-3.5,3.2C1442,638.6,1441.9,638.6,1441.8,638.6L1441.8,638.6z" />
			<path fill="#89472E" d="M1481.8,506.1c-7.2-1.4-19.3-0.7-16.6,2c5.2,5.2,34.2,14.9,34.2,14.9c34.2,22.9,53.4,25.8,70.7,14.3
			c2-1.3,8-4.6,7.6-8.3c0-3.1-32.4-1.7-32.4-1.7C1547.2,527.1,1499.1,509.4,1481.8,506.1z" />
			<path fill="#89472E" d="M1522.1,458.4c0,0,29.2,22.9,32,40.6c0,0,12.7-5.9,17.3-3.2s3,11.9,0,29.8c-3,17.9-82.9-17.7-82.9-17.7
			S1500.6,469.3,1522.1,458.4z" />
			<path fill="#F9DED4" d="M1471.3,763.2c37.2-6.3,49.4,18.8,41.4,78.5c-3.7,27.8,23.2,95.6-30.5,87
			C1377.9,911.5,1447,768.7,1471.3,763.2z" />

			<ellipse transform="matrix(0.8134 -0.5817 0.5817 0.8134 -88.2531 938.0662)" fill="#FFFFFF" cx="1417.9"
				cy="606.6" rx="9.8" ry="7.8" />
			<path fill="none"
				d="M1552.5,933c-6.7-0.8-11.3-1.7-13.1-2.1c1.7,0.3,6.1,1.1,12.5,1.7C1552.1,932.7,1552.3,932.9,1552.5,933z" />
			<path fill="#B24E2B" d="M1712.7,414c0,0-29.3,31.7-60.1,68.2c-14.4-10-26.7-14.4-36.9-15.5C1643.1,444.5,1677.1,422.9,1712.7,414z
			" />
			<path fill="#F9DED4" d="M1633.6,679.1c-41.3,46.3-93.4,97.6-166.7,100.4c-45.3-2.3-83.2-36.6-85.8-42.3c-1.1-0.2-2.3-0.3-3.4-0.5
			c56.9,4.3,137.6-6,190.5-82.6C1568.1,654.2,1577.8,677.7,1633.6,679.1z" />
			<path fill="#4C280F" d="M1469.3,742.1c0.1,0,0.3-0.1,0.4-0.1c0.1,0,0.3,0,0.4,0c0.3,0,0.5,0,0.8,0c0.5,0,1.1,0.1,1.6,0.2
			c1,0.1,2,0.3,3,0.5c1.9,0.4,3.8,0.8,5.6,1.2c3.6,0.8,7,1.4,9.9,1.4c2.9,0,5.3-0.6,7.8-2.3c2.5-1.7,4.7-4.3,7.3-7
			c0.1,0.9,0.3,1.7,0.2,2.6c-0.1,0.9-0.1,1.8-0.3,2.6l-0.3,1.3c-0.1,0.4-0.3,0.9-0.5,1.3c-0.1,0.2-0.2,0.4-0.3,0.7l-0.4,0.6
			c-0.3,0.4-0.5,0.9-0.8,1.3c-1.2,1.7-3.1,3.1-5.4,4.1c-2.3,1-4.8,1.5-7.3,1.4c-2.4,0-4.7-0.4-6.8-1c-2.1-0.6-4-1.4-5.7-2.3
			c-1.8-0.9-3.4-2-4.9-3.1c-0.7-0.6-1.5-1.2-2.2-1.8l-1-0.9C1470.1,742.6,1469.7,742.3,1469.3,742.1z" />
			<path fill="#89472E" d="M1571.4,525.6c0,0.2-0.1,0.4-0.1,0.5c-26.6-16.4-61.8-30.5-75.6-35.8c5.7-11.7,14.7-26,26.4-32
			c0,0,29.2,22.9,32,40.6c0,0,12.7-5.9,17.3-3.2C1575.9,498.5,1574.4,507.7,1571.4,525.6z" />
			<path fill="#3F221B"
				d="M1571.2,526.1c-4.5,16.6-82.8-18.2-82.8-18.2s2.5-7.9,7.2-17.5C1509.4,495.6,1544.7,509.7,1571.2,526.1z" />
		</g>
	</g>

</svg>