<?xml version="1.0" encoding="utf-8"?>
<!-- Generator: Adobe Illustrator 24.2.3, SVG Export Plug-In . SVG Version: 6.00 Build 0)  -->
<svg version="1.1" xmlns="http://www.w3.org/2000/svg" xmlns:xlink="http://www.w3.org/1999/xlink" x="0px" y="0px"
	 viewBox="0 0 140 350" enable-background="new 0 0 140 350" xml:space="preserve">
<g id="rooms_moodboard">
</g>
<g id="snif_moodboard">
</g>
<g id="icon_moodboard">
</g>
<g id="bathroom">
</g>
<g id="bedroom">
</g>
<g id="kitchen">
</g>
<g id="gamescreen">
</g>
<g id="start">
</g>
<g id="icons">
	<path fill="#FFE966" d="M28.6,177.9c3-34.9,5.9-69.5,8.9-104.5c0-0.5,0.5-0.9,1-0.8c20.2,2.5,40.2,5.1,60.6,7.6
		c0.5,0.1,0.9,0.6,0.8,1.1C94.5,100.3,89.1,119,83.6,138c-0.1,0.5,0.2,1,0.6,1.1c8.9,2.3,17.5,4.4,26.5,6.7c0.5,0.1,0.8,0.7,0.6,1.2
		c-19.7,43.6-39.3,87-58.9,130.4c-1-0.2-0.7-0.2-1.7-0.4c2.1-31,4.2-62,6.4-93.1c0-0.5-0.3-0.9-0.8-0.9c-9.1-1.4-18-2.7-27.1-4.1
		C28.8,178.8,28.5,178.4,28.6,177.9z"/>
</g>
<g id="snif_and_icons_02">
</g>
<g id="snif_and_icons_01">
</g>
<g id="snif_01">
	<g>
		<defs>
			<rect id="SVGID_133_" x="895.8" y="-4696.8" width="892.9" height="946"/>
		</defs>
		<clipPath id="SVGID_2_">
			<use xlink:href="#SVGID_133_"  overflow="visible"/>
		</clipPath>
		<g id="D3Q6wf_3_" clip-path="url(#SVGID_2_)">
			
				<image overflow="visible" width="590" height="1320" id="D3Q6wf_4_" xlink:href="9B857D75F3161B7E.jpg"  transform="matrix(4.5817 0 0 4.5817 -896.548 -5593.7935)">
			</image>
		</g>
	</g>
</g>
</svg>
