<?xml version="1.0" encoding="utf-8"?>
<!-- Generator: Adobe Illustrator 24.2.3, SVG Export Plug-In . SVG Version: 6.00 Build 0)  -->
<svg version="1.1" id="Layer_1" xmlns="http://www.w3.org/2000/svg" xmlns:xlink="http://www.w3.org/1999/xlink" x="0px" y="0px"
	 viewBox="0 0 1920 1080" style="enable-background:new 0 0 1920 1080;" xml:space="preserve">
<style type="text/css">
	.st0{fill:#8C6F57;}
	.st1{fill:#F5B9BA;}
	.st2{fill:#EEEEEC;}
	.st3{fill:#E1E3E2;}
	.st4{fill:#493835;}
	.st5{fill:#105E7B;}
	.st6{fill:#13546F;}
	.st7{fill:#186080;}
	.st8{fill:#0C5169;}
	.st9{fill:#276987;}
	.st10{fill:none;}
	.st11{fill:#3A2A28;}
	.st12{opacity:0.2;fill:#FFE966;enable-background:new    ;}
	.st13{fill:#FCFEF9;}
	.st14{fill:#8CC94D;}
	.st15{display:none;}
	.st16{display:inline;fill:#8888BA;}
	.st17{display:inline;}
	.st18{fill:#FFCF36;}
	.st19{fill:#FFFFFF;}
	.st20{fill:#EDAF14;}
	.st21{fill:#6DAD21;}
	.st22{fill:#BABABA;}
	.st23{fill:#9B9B9B;}
	.st24{fill:#71E2D0;}
	.st25{fill:#39B79F;}
	.st26{fill:#93DCD8;}
	.st27{fill:#3A3A3A;}
	.st28{fill:#79D6D2;}
	.st29{fill:#E5E5E5;}
	.st30{fill:#386D00;}
	.st31{fill:#438600;}
	.st32{fill:#386C00;}
	.st33{fill:#549C00;}
	.st34{fill:#448700;}
	.st35{fill:#75563F;}
	.st36{fill:#438800;}
	.st37{fill:#00BDE6;}
	.st38{fill:#FF4E48;}
	.st39{fill:#27282C;}
	.st40{fill:#323337;}
	.st41{fill:#3DB8B5;}
	.st42{fill:#FFD5FF;}
	.st43{fill:#96D0E2;}
	.st44{fill:#F37081;}
	.st45{fill:#474C55;}
	.st46{display:none;fill:#8CC94D;}
</style>
<g id="livingroom">
	<rect y="734" class="st0" width="1920" height="343.4"/>
	<rect class="st1" width="1920" height="734"/>
	<rect y="723.7" class="st2" width="1920" height="8.1"/>
	<rect y="731.9" class="st3" width="1920" height="2.1"/>
	<rect y="721.6" class="st3" width="1920" height="2.1"/>
	<rect y="719" class="st2" width="1920" height="2.6"/>
	<g>
		<rect x="247.4" y="751.8" class="st4" width="526.2" height="9.7"/>
		<polygon class="st4" points="281.4,761.5 258.7,761.5 255.5,802 266.8,802 		"/>
		<polygon class="st4" points="737.8,761.5 760.4,761.5 763.7,802 752.3,802 		"/>
		<path class="st5" d="M255.5,645l6.5-69.6c3.2-24.3,20.6-45.3,46-45.3h401.8c25.4,0,42.7,22.7,46,46l13,73.8
			C768.7,675.2,255.5,670.4,255.5,645z"/>
		<path class="st6" d="M761.6,609.2v47.1H258.7v-47.1c0,0,35,13.1,51.2,32.5h400.6C726.6,622.3,761.6,609.2,761.6,609.2z"/>
		<path class="st7" d="M833.4,640.1c0,0-11.3,118.2-82.6,111.7h-480c-71.2,6.5-82.6-111.7-82.6-111.7s-16.8-40.5,35.9-40.5
			c52.2,0,66.9,53.4,66.9,53.4l214.6,1.6H516v0.2l13.9-0.1l200.7-1.7c0,0,14.7-53.4,66.9-53.4C850.2,599.6,833.4,640.1,833.4,640.1z
			"/>
		<path class="st8" d="M760.6,692.5v1.6c0,5.9-4.8,10.7-10.7,10.7H272.6c-5.9,0-10.7-4.8-10.7-10.7v-1.6c0-18.2,14.7-33,32.9-33
			h432.9C745.9,659.5,760.6,674.3,760.6,692.5z"/>
		<path class="st9" d="M268.5,696.8H503c3.7,0,6.6-3,6.6-6.6v-30.5c0-3.7-3-6.6-6.6-6.6H282.3c-11.3,0-20.4,9.1-20.4,20.4v16.7
			C261.9,693.8,264.9,696.8,268.5,696.8z"/>
		<path class="st9" d="M754,696.8H519.5c-3.7,0-6.6-3-6.6-6.6v-30.5c0-3.7,3-6.6,6.6-6.6h220.7c11.3,0,20.4,9.1,20.4,20.4v16.7
			C760.6,693.8,757.6,696.8,754,696.8z"/>
		<rect x="761.6" y="641.7" class="st10" width="0.6" height="14.6"/>
		<polygon class="st10" points="505.7,654.7 505.7,654.9 491.8,654.7 491.8,654.7 		"/>
	</g>
	<g>
		<path class="st11" d="M690.6,742.7c0,0,16.9-3.2,17.1,0c0.2,3.2-4.7,70.9-4.7,70.9h-8.6L690.6,742.7z"/>
		<polygon class="st4" points="513,721.6 491.1,721.6 465,856.6 474,856.6 		"/>
		<polygon class="st4" points="887,721.6 908.9,721.6 935,856.6 926,856.6 		"/>
		<ellipse class="st4" cx="698" cy="726.1" rx="246" ry="17.5"/>
		<ellipse class="st4" cx="698" cy="731.1" rx="246" ry="17.5"/>
		<rect x="452" y="725.6" class="st4" width="13" height="6"/>
		<rect x="938" y="726.6" class="st4" width="6" height="4"/>
	</g>
	<path class="st12" d="M881.6,836.1c0,0-109.6,47.5-373.6,47.5s-373-47.7-373-47.7l294-491.3l79-62l79,62L881.6,836.1z"/>
	<g id="lamp">
		<g>
			<g>
				<path class="st4" d="M168.7,792.6h6V399.5c0-14.6,5.6-34.6,13-46.5l82.2-128.1c10-16.1,29.4-23,47.3-16.8
					c61,21,185.7,65.9,191.4,69.3c0,0-0.2-0.1-0.4-0.3l4.2-4.2c-3.5-3.5-154.2-57-193.3-70.4c-20.5-7.1-42.8,0.9-54.3,19.3
					l-82.2,128.1c-8,12.8-14,34.2-14,49.7v393H168.7z"/>
			</g>
			<g>
				<path class="st9" d="M500.6,283.2h15v-20.5c0-2.8-2.2-5-5-5h-5c-2.7,0-5,2.2-5,5L500.6,283.2L500.6,283.2z"/>
			</g>
			<g>
				<path class="st13" d="M507.5,281.7c78,0,101.5,62.9,101.5,62.9H406C406,344.6,429.5,281.7,507.5,281.7z"/>
			</g>
			<g>
				<rect x="135" y="791.1" class="st13" width="71.9" height="10.5"/>
			</g>
		</g>
	</g>
	<path class="st14" d="M304,199.8c5,0,10.2,0.8,15.2,2.6c32.9,11.3,144.6,50.9,181.4,65.3v-5c0-2.8,2.2-5,5-5h5c2.8,0,5,2.2,5,5
		v19.2c71.6,4.1,93.4,62.7,93.4,62.7H406c0,0,22.1-59.2,94.6-62.7V274c-29.4-11.5-130.4-47.8-183.4-66c-4.4-1.5-8.8-2.2-13.2-2.2
		c-13.6,0-26.5,6.9-34.1,19l-82.2,128.1c-7.4,11.9-13,31.9-13,46.5V791h32.2v10.5H135V791h33.7V399.5c0-15.6,6-37,14-49.7
		l82.2-128.1C273.5,207.8,288.4,199.8,304,199.8 M304,191.8c-18.8,0-35.9,9.6-45.9,25.6l-82.1,128l0,0l0,0
		c-8.8,14.1-15.2,36.8-15.2,54V783H135h-8v8v10.5v8h8h71.9h8v-8V791v-8h-8h-24.2V399.5c0-13.1,5.2-31.6,11.8-42.3l82.1-128l0,0l0,0
		c6-9.6,16.2-15.3,27.3-15.3c3.6,0,7.2,0.6,10.6,1.8c46.2,15.9,128.4,45.4,168.2,60.2c-30.2,5.5-50.3,20.5-62.5,33.2
		c-15.5,16.2-21.6,32.1-21.8,32.8l-4,10.8H406h203h11.5l-4-10.8c-0.2-0.7-6.2-16.4-21.6-32.5c-13.2-13.9-36.1-30.7-71.3-34.7v-11.9
		c0-7.2-5.8-13-13-13h-5c-5,0-9.3,2.8-11.5,6.9c-44.7-16.9-144-52.1-172.4-61.8C316,192.8,310,191.8,304,191.8L304,191.8z"/>
	<g class="st15">
		<path class="st16" d="M-0.7,900v180h1921V900H-0.7z"/>
		<g class="st17">
			<circle class="st18" cx="1566.9" cy="988.7" r="64.8"/>
			<path class="st19" d="M1556.2,992.8c1-11.7,2-23.3,3-35c0-0.2,0.2-0.3,0.3-0.3c6.8,0.9,13.5,1.7,20.3,2.6c0.2,0,0.3,0.2,0.3,0.4
				c-1.8,6.3-3.6,12.6-5.4,19c0,0.2,0.1,0.3,0.2,0.4c3,0.8,5.9,1.5,8.9,2.2c0.2,0,0.3,0.2,0.2,0.4c-6.6,14.6-13.2,29.1-19.7,43.7
				c-0.3-0.1-0.2-0.1-0.6-0.1c0.7-10.4,1.4-20.7,2.1-31.2c0-0.2-0.1-0.3-0.3-0.3c-3.1-0.5-6-0.9-9.1-1.4
				C1556.3,993.1,1556.2,992.9,1556.2,992.8z"/>
			<path class="st20" d="M1566.9,930c15.7,0,30.4,6.1,41.5,17.2c11.1,11.1,17.2,25.8,17.2,41.5s-6.1,30.4-17.2,41.5
				c-11.1,11.1-25.8,17.2-41.5,17.2s-30.4-6.1-41.5-17.2s-17.2-25.8-17.2-41.5s6.1-30.4,17.2-41.5
				C1536.4,936.1,1551.2,930,1566.9,930 M1566.9,923.9c-35.8,0-64.8,29-64.8,64.8s29,64.8,64.8,64.8s64.8-29,64.8-64.8
				C1631.7,952.9,1602.7,923.9,1566.9,923.9L1566.9,923.9z"/>
		</g>
		<g class="st17">
			<g>
				<circle class="st14" cx="1404.8" cy="988.7" r="64.6"/>
				<path class="st21" d="M1404.8,930.2c15.6,0,30.3,6.1,41.4,17.1c11.1,11.1,17.1,25.8,17.1,41.4c0,15.6-6.1,30.3-17.1,41.4
					c-11.1,11.1-25.8,17.1-41.4,17.1s-30.3-6.1-41.4-17.1c-11.1-11.1-17.1-25.8-17.1-41.4c0-15.6,6.1-30.3,17.1-41.4
					S1389.2,930.2,1404.8,930.2 M1404.8,924.1c-35.7,0-64.6,28.9-64.6,64.6s28.9,64.6,64.6,64.6s64.6-28.9,64.6-64.6
					C1469.5,953,1440.5,924.1,1404.8,924.1L1404.8,924.1z"/>
			</g>
			<g>
				<path class="st19" d="M1404.5,954.8c-11.4,0-20.6,9.2-20.6,20.6c0,4,1.2,7.8,3.2,11c2,3.6,7.4,9.3,8.5,19.8
					c0,0.1,0.1,0.2,0.2,0.1c1.8-0.3,17.9-3.2,17.9-3.1c2-7.3,3.1-8.9,7.5-15.8c2.4-3.4,3.8-7.5,3.8-12
					C1425.1,964,1415.9,954.8,1404.5,954.8z"/>
				<path class="st19" d="M1412.1,1010.5l-14.2,2.5c-1,0.2-2-0.5-2.2-1.5l0,0c-0.2-1,0.5-2,1.5-2.2l14.2-2.5c1-0.2,2,0.5,2.2,1.5
					l0,0C1413.8,1009.3,1413.1,1010.3,1412.1,1010.5z"/>
				<path class="st19" d="M1399.3,1019c0,0,0.4,4.1,6.4,3.2c5.9-0.8,6-5.2,6-5.2L1399.3,1019z"/>
				<path class="st19" d="M1412.6,1014l-14.1,2.4c-1,0.2-2-0.5-2.2-1.5l0,0c-0.2-1,0.5-2,1.5-2.2l14.1-2.4c1-0.2,2,0.5,2.2,1.5l0,0
					C1414.3,1012.9,1413.6,1013.8,1412.6,1014z"/>
			</g>
			<path class="st14" d="M1391.2,980.5c-0.7-23,20.3-17.8,20.3-17.8C1404.3,955.7,1384,960.6,1391.2,980.5z"/>
			<path class="st14" d="M1391.2,980.6c0.7-19.9,20.3-17.8,20.3-17.8C1404.3,955.9,1384,960.7,1391.2,980.6z"/>
		</g>
		<g class="st17">
			<circle class="st22" cx="1728.2" cy="989.4" r="65"/>
			<g>
				<path class="st23" d="M1762.6,1023.8L1762.6,1023.8c6.9-6.9,6.9-18.1,0-25l-44.3-44.3c-6.9-6.9-18.1-6.9-25,0l0,0
					c-6.9,6.9-6.9,18.1,0,25l44.3,44.3C1744.5,1030.6,1755.8,1030.6,1762.6,1023.8z"/>
				<path class="st23" d="M1693.3,1023.8L1693.3,1023.8c-6.9-6.9-6.9-18.1,0-25l44.3-44.3c6.9-6.9,18.1-6.9,25,0l0,0
					c6.9,6.9,6.9,18.1,0,25l-44.3,44.3C1711.5,1030.6,1700.2,1030.6,1693.3,1023.8z"/>
			</g>
		</g>
		<g class="st17">
			<circle class="st24" cx="1243.7" cy="989.6" r="64.1"/>
			<path class="st19" d="M1243.8,1024.4L1243.8,1024.4c-17.4,0-31.2-16.7-19.7-35.4c13.9-20.5,19.1-30.9,19.6-32.1c0,0,0,0,0-0.1
				c0,0,0,0,0,0.1c0.6,1.2,5.7,11.6,19.6,32.1C1275,1007.7,1261.2,1024.4,1243.8,1024.4z"/>
			<path class="st24" d="M1259.9,997.9c-0.6,19.7-20.1,17.7-20.1,17.7C1246.9,1022.3,1267.1,1017.6,1259.9,997.9z"/>
			<path class="st25" d="M1243.7,931.1c15.6,0,30.3,6.1,41.3,17.1s17.1,25.7,17.1,41.3s-6.1,30.3-17.1,41.3s-25.7,17.1-41.3,17.1
				c-15.6,0-30.3-6.1-41.3-17.1s-17.1-25.7-17.1-41.3s6.1-30.3,17.1-41.3C1213.4,937.2,1228.1,931.1,1243.7,931.1 M1243.7,925.1
				c-35.6,0-64.4,28.8-64.4,64.4c0,35.6,28.8,64.4,64.4,64.4s64.4-28.8,64.4-64.4S1279.3,925.1,1243.7,925.1L1243.7,925.1z"/>
		</g>
	</g>
	<g id="tv">
		<rect x="839.6" y="235.3" class="st26" width="342.3" height="211"/>
		<path class="st27" d="M1181.9,235.3v211H839.6v-211L1181.9,235.3 M1195.2,222h-13.3H839.6h-13.3v13.3v211v13.3h13.3h342.3h13.3
			v-13.3v-211V222L1195.2,222z"/>
		<polygon class="st28" points="938.9,446 839.6,446 839.6,235.5 1094.9,235.5 		"/>
	</g>
	<path class="st14" d="M1195.2,222v237.6H826.3V222H1195.2 M1203.2,214h-8H826.3h-8v8v237.6v8h8h368.9h8v-8V222V214L1203.2,214z"/>
	<path class="st23" d="M1506.1,707.5h-12c-1.4,0-2.5-1.1-2.5-2.5v-7h17v7C1508.6,706.3,1507.5,707.5,1506.1,707.5z"/>
	<rect x="1495.3" y="707.5" class="st13" width="9.4" height="32.1"/>
	<path class="st23" d="M1507.8,797.5h-15.6c-2.5,0-4.5-2-4.4-4.5l1.1-48.5c0.1-2.7,2.3-4.9,5-4.9h12.2c2.7,0,5,2.2,5,4.9l1.1,48.5
		C1512.3,795.5,1510.3,797.5,1507.8,797.5z"/>
	<path class="st13" d="M1487.8,791.8l-80.8,11.7c-0.9,0.1-1.7-0.6-1.7-1.5v-5c0-1.5,1.1-2.8,2.5-3.2l80.6-17.7L1487.8,791.8z"/>
	<path class="st13" d="M1512.3,791.8l80.8,11.7c0.9,0.1,1.7-0.6,1.7-1.5v-5c0-1.5-1.1-2.8-2.5-3.2l-80.6-17.7L1512.3,791.8z"/>
	<path class="st23" d="M1505.3,835h-10.4c-2.2,0-3.9-1.8-3.9-3.9v-12.3c0-2.2,1.8-3.9,3.9-3.9h10.4c2.2,0,3.9,1.8,3.9,3.9v12.3
		C1509.2,833.2,1507.4,835,1505.3,835z"/>
	<path class="st23" d="M1410.8,828.4h-10.4c-2.2,0-3.9-1.8-3.9-3.9v-12.3c0-2.2,1.8-3.9,3.9-3.9h10.4c2.2,0,3.9,1.8,3.9,3.9v12.3
		C1414.7,826.6,1413,828.4,1410.8,828.4z"/>
	<path class="st23" d="M1600.4,828.4H1590c-2.2,0-3.9-1.8-3.9-3.9v-12.3c0-2.2,1.8-3.9,3.9-3.9h10.4c2.2,0,3.9,1.8,3.9,3.9v12.3
		C1604.3,826.6,1602.5,828.4,1600.4,828.4z"/>
	<rect x="1502.9" y="747.8" class="st22" width="4.4" height="39.7"/>
	<path class="st13" d="M1501.9,809.6h-3.7c-2.3,0-4.1-1.8-4.1-4.1V779c0-2.3,1.8-4.1,4.1-4.1h3.7c2.3,0,4.1,1.8,4.1,4.1v26.5
		C1506,807.8,1504.2,809.6,1501.9,809.6z"/>
	<path class="st4" d="M1857.9,590.8h-582c-3.3,0-5.9-2.7-5.9-5.9v-13.2c0-3.3,2.7-5.9,5.9-5.9h582c3.3,0,5.9,2.7,5.9,5.9v13.2
		C1863.8,588.2,1861.2,590.8,1857.9,590.8z"/>
	<rect x="1778.3" y="581" class="st4" width="21.1" height="221"/>
	<rect x="1778.3" y="590.8" class="st11" width="21.1" height="17.7"/>
	<rect x="1335" y="587" class="st4" width="21.1" height="215"/>
	<rect x="1335" y="590.8" class="st11" width="21.1" height="17.7"/>
	<rect x="1356.1" y="632.5" class="st11" width="422.1" height="9.1"/>
	<path class="st14" d="M1735.9,414c2,0,3.7,1.6,3.7,3.7v122.7c0,2-1.6,3.7-3.7,3.7h-69.4v18.2h8.6v3.4h-67.3v-3.4h8.6v-18.2H1547
		c-2,0-3.7-1.7-3.7-3.7V417.7c0-2,1.6-3.7,3.7-3.7H1735.9 M1735.9,406H1547c-6.4,0-11.7,5.2-11.7,11.7v122.7
		c0,6.4,5.2,11.7,11.7,11.7h61.4v2.2h-0.6h-8v8v3.4v8h8h67.3h8v-8v-3.4v-8h-8h-0.6v-2.2h61.4c6.4,0,11.7-5.2,11.7-11.7V417.7
		C1747.6,411.2,1742.4,406,1735.9,406L1735.9,406z"/>
	<g id="computer">
		<path class="st27" d="M1735.9,544.1H1547c-2,0-3.7-1.6-3.7-3.7V417.7c0-2,1.6-3.7,3.7-3.7h188.9c2,0,3.7,1.6,3.7,3.7v122.7
			C1739.6,542.4,1738,544.1,1735.9,544.1z"/>
		<rect x="1551.4" y="420.8" class="st26" width="179.1" height="103.3"/>
		<polygon class="st28" points="1599.9,524 1551.4,524 1551.4,420.9 1676.2,420.9 		"/>
		<path class="st13" d="M1546.9,544.1H1736c2,0,3.6-1.6,3.6-3.6v-10.7h-196.2v10.7C1543.4,542.5,1545,544.1,1546.9,544.1z"/>
		<rect x="1607.8" y="562.3" class="st13" width="67.3" height="3.4"/>
		<rect x="1616.4" y="544.1" class="st13" width="50.2" height="18.3"/>
		<rect x="1616.4" y="544.1" class="st29" width="50.2" height="3.9"/>
	</g>
	<path class="st5" d="M1564.2,648.9H1436c-11.8,0-21.1-10.1-20.1-21.8l10.4-125.4c0.9-11.1,10.2-19.6,21.3-19.6H1553
		c11.2,0,20.5,8.6,21.3,19.7l9.9,125.4C1585.2,638.9,1576,648.9,1564.2,648.9z"/>
	<path class="st5" d="M1567.8,693h-135.4c-15.3,0-27.7-12.4-27.7-27.7v-0.5c0-6,4.8-10.8,10.8-10.8h169.2c6,0,10.8,4.8,10.8,10.8
		v0.5C1595.5,680.6,1583.1,693,1567.8,693z"/>
	<path class="st9" d="M1508,698h-15.8c-3.8,0-6.9-3.1-6.9-6.9V538.6c0-3.8,3.1-6.9,6.9-6.9h15.8c3.8,0,6.9,3.1,6.9,6.9v152.5
		C1514.9,694.9,1511.8,698,1508,698z"/>
	<rect x="1803" y="271" class="st11" width="7" height="40"/>
	<rect x="1669" y="271" class="st11" width="7" height="40"/>
	<rect x="1639" y="258" class="st4" width="201" height="17"/>
	<g>
		<path class="st30" d="M1802.7,206.7c-1.9-31.8,13.4-55.1,13.6-55.3l1,0.7c-0.2,0.2-15.2,23.2-13.4,54.6L1802.7,206.7z"/>
		<path class="st30" d="M1802.1,206.7l-1.2-0.1c1.4-19.5-1.4-51-1.4-51.3l1.2-0.1C1800.7,155.5,1803.4,187.1,1802.1,206.7z"/>
		<path class="st30" d="M1804.6,206.1c-1.8-15.4-17-41.2-17.1-41.4l1.1-0.6c0,0.1,3.9,6.6,7.9,15c5.4,11.3,8.6,20.3,9.4,26.9
			L1804.6,206.1z"/>
		<path class="st30" d="M1806.4,206c0-10.4,4.6-20.2,4.8-20.6l1.1,0.5c0,0.1-4.7,10-4.6,20.1H1806.4z"/>
		<path class="st31" d="M1770.1,156.5c0,0-11.9-8.8-21.3,16.9l2.5-1.3c0,0-9.4,11.3-5,26.3c0,0,6.9-6.9,20-9.4
			c13.2-2.5,5-11.9,5-11.9l5,5c0,0,13.2-7.5,5-15c-9.5-8.8,5.6,3.1,5.6,3.1S1788.9,144.6,1770.1,156.5"/>
		<path class="st32" d="M1781.4,167.2c8.1,7.5-5,15-5,15l-5-5c0.5,0.6,7.7,9.5-5,11.9c-13.2,2.5-20,9.4-20,9.4c0-0.1,0-0.2-0.1-0.2
			c5.5-5.7,12.8-14.6,13-22.3c0.5-15.7,10.9-19.4,10.9-19.4c18.8-11.9,16.9,13.8,16.9,13.8S1771.9,158.4,1781.4,167.2z"/>
		<path class="st33" d="M1797.1,130.8c0,0-11.3-9.4-20,18.2l2.5-1.3c0,0-8.1,5.6-3.1,26.3c0,0,12.5-10.7,18.2-11.3
			c5.6-0.6,9.5-2.8,5.7-11.1l4.3,4.2c0,0,16.3-11.3-1.3-19.4c0,0,10,2.5,10.7,6.3C1814,142.7,1812.7,117.7,1797.1,130.8z"/>
		<path class="st34" d="M1787,149c0.6,12.8-10,24.3-10.6,25l0,0c-5-20.7,3.1-26.3,3.1-26.3l-2.5,1.3c8.6-26.9,19.5-18.6,20-18.2l0,0
			C1797,130.8,1786.4,135.8,1787,149z"/>
		<polygon class="st0" points="1839,204.7 1837.8,212.3 1768.9,212.3 1767.6,204.7 		"/>
		<polygon class="st35" points="1829.6,258 1776.4,258 1772,212.3 1834.6,212.3 		"/>
		<path class="st36" d="M1819.6,165.3c0,0,10.7-12.5,28.8,15l-4.4-1.9c0,0,12.3,10.7,10.8,20c-0.8,5,2.3,9.4,2.3,9.4
			s-9.4-5.6-18.2-5.6c-3.4,0-13.8,0.6-15.7-3.1s0-9.4,0-9.4s-5,3.1-4.4,6.3c0,0-22.6-11.3-20.7-19.4c1.9-8.1,11.7-13.3,11.7-13.3
			S1817.1,163.4,1819.6,165.3z"/>
		<path class="st30" d="M1857.2,207.9L1857.2,207.9c-0.1-0.1-0.9-0.5-2.1-1.1l0,0c-5.1-2.9-17.6-11.2-18.6-22.7
			c-1.3-14.4-16.9-18.8-16.9-18.8s10.7-12.5,28.8,15l-4.4-1.9c0.4,0.3,12.3,10.8,10.8,20C1854.1,203.4,1857,207.7,1857.2,207.9z"/>
		<path class="st14" d="M1797.7,167.2c0,0-15-2.5-15,22.6l1.3-1.9c0,0-4.9,13,3.2,27.2c0,0,6.8-10.9,11.9-13.4
			c6.4-3.2,13.8-7.5,6.3-14.4c0,0,3.1,0,5,3.1c14.4-15.7-5-18.2-5-18.2c4.4-2.5,11.9,3.8,11.9,3.8
			C1820.2,170.9,1809,154.6,1797.7,167.2z"/>
		<path class="st21" d="M1792,187.8c3.2,11.1-3,23.4-5,27.1c-7.9-13.9-3.3-26.7-3.1-27.1l-1.2,1.9c0-25.1,15-22.6,15-22.6
			S1788.5,175.4,1792,187.8z"/>
		<path class="st14" d="M1821.5,134c0,0,10.7-8.8,20.7,13.2l-3.1-1.3c0,0,8.8,6.3,6.9,23.2c0,0-10-6.3-18.8-6.9
			c-10.1-0.7-4.4-9.4-4.4-9.4l-4.4,3.8c0,0-9.4-5.6-8.1-8.1s6.9-8.1,6.9-8.1s-4.4,0-8.8,6.9C1808.3,147.1,1805.8,125.8,1821.5,134z"
			/>
		<path class="st21" d="M1845.9,169c0,0-0.1,0-0.2-0.1l0,0c-6.3-5.9-13.6-14.9-13.6-23.1c0-5-5-9.4-10.7-11.9
			c3.8-2.5,12.6-4.4,20.7,13.2l-3.1-1.3C1839,145.9,1847.8,152.1,1845.9,169z"/>
	</g>
	<g id="switch">
		<path class="st37" d="M1660.1,209v49h-6.9c-5,0-9.1-4.1-9.1-9.1v-30.8c0-5,4.1-9.1,9.1-9.1L1660.1,209L1660.1,209z"/>
		<path class="st38" d="M1759.9,218.1v30.8c0,5-4.1,9.1-9.1,9.1h-6.8v-49h6.8C1755.8,209,1759.9,213.1,1759.9,218.1z"/>
		<rect x="1660.1" y="209" class="st39" width="84" height="49"/>
		<path d="M1739.4,256.5H1663c-0.7,0-1.3-0.6-1.3-1.3v-43.1c0-0.7,0.6-1.3,1.3-1.3h76.3c0.7,0,1.3,0.6,1.3,1.3v43.1
			C1740.6,255.9,1740.1,256.5,1739.4,256.5z"/>
		<rect x="1668.5" y="214.7" class="st26" width="66.9" height="37.7"/>
		<circle cx="1751.4" cy="235.3" r="3.8"/>
		<circle cx="1652.6" cy="221.6" r="3.8"/>
		<circle cx="1648.8" cy="235.2" r="1.9"/>
		<circle cx="1656.4" cy="235.2" r="1.9"/>
		<circle cx="1652.6" cy="238.9" r="1.9"/>
		<circle cx="1652.6" cy="231.6" r="1.9"/>
		<rect x="1656.2" y="213.7" width="2.7" height="0.8"/>
		<rect x="1653.8" y="242.8" width="3" height="3"/>
		<circle cx="1751.4" cy="218" r="1.9"/>
		<circle cx="1751.4" cy="225.2" r="1.9"/>
		<circle cx="1755.2" cy="221.5" r="1.9"/>
		<circle cx="1747.6" cy="221.5" r="1.9"/>
		<circle cx="1748.7" cy="244.4" r="1.9"/>
		<rect x="1745.2" y="213.7" width="2.5" height="0.7"/>
		<rect x="1746.1" y="212.8" width="0.7" height="2.5"/>
		<polygon class="st28" points="1686.3,252.4 1668.6,252.4 1668.6,214.8 1714,214.8 		"/>
	</g>
	<path class="st14" d="M1750.8,209c5,0,9.1,4.1,9.1,9.1v30.8c0,5-4.1,9.1-9.1,9.1h-97.7c-5,0-9.1-4.1-9.1-9.1v-30.8
		c0-5,4.1-9.1,9.1-9.1L1750.8,209 M1750.8,201h-97.7c-9.4,0-17.1,7.7-17.1,17.1v30.8c0,9.4,7.7,17.1,17.1,17.1h97.7
		c9.4,0,17.1-7.7,17.1-17.1v-30.8C1767.9,208.7,1760.2,201,1750.8,201L1750.8,201z"/>
	<rect x="1189" y="529" class="st11" width="7" height="40"/>
	<rect x="828" y="528" class="st11" width="7" height="40"/>
	<path class="st4" d="M806.1,532h411.7c2.3,0,4.1-1.9,4.1-4.1v-8.7c0-2.3-1.9-4.1-4.1-4.1H806.1c-2.3,0-4.1,1.9-4.1,4.1v8.7
		C802,530.1,803.9,532,806.1,532z"/>
	<g id="playstation">
		<rect x="868.7" y="483" class="st27" width="158.8" height="32"/>
		<path class="st22" d="M927.4,515h-66.1c-0.5,0-0.9-0.4-0.8-0.9l0.9-12.4c0-0.2,0.2-0.4,0.4-0.4h65.9c0.2,0,0.3,0.1,0.3,0.3
			l-0.3,13C927.8,514.8,927.6,515,927.4,515z"/>
		<path class="st22" d="M927.5,495.6h-65.1c-0.3,0-0.5-0.2-0.5-0.5l1-12.8c0-0.1,0.1-0.2,0.2-0.2h65.1c0.1,0,0.1,0,0.1,0.1
			l-0.1,12.8C928.2,495.3,927.9,495.6,927.5,495.6z"/>
		<path class="st22" d="M1034.3,495.1c0,0.3-0.2,0.5-0.5,0.5h-103c-0.3,0-0.5-0.2-0.5-0.5l0.1-12.7c0-0.3,0.2-0.5,0.5-0.5H1033
			c0.1,0,0.2,0.1,0.2,0.2L1034.3,495.1z"/>
		<path class="st22" d="M1035.2,515H930.4c-0.3,0-0.4-0.3-0.4-0.4l0.3-12.8c0-0.5,0.1-0.5,0.5-0.5h103.1c0.1,0,0.8,0,0.8,0.6
			l0.8,12.6C1035.6,514.7,1035.5,515,1035.2,515z"/>
		<path class="st27" d="M1024.1,490.2C1024.1,490.2,1024,490.2,1024.1,490.2c-0.3,0-0.5,0-0.7,0c-0.1,0-0.1,0-0.1,0.1s0,0.2,0,0.2
			s0,0.1-0.1,0.1c-0.2,0-0.4,0-0.6,0c0,0-0.1,0-0.1-0.1s0-0.2,0-0.2c0-0.1,0-0.1-0.1-0.1l0,0c-1.2,0-2.4,0-3.6,0c-0.1,0-0.1,0-0.2,0
			c-0.1,0-0.2-0.2-0.1-0.3c0-0.1,0.1-0.1,0.2-0.1c1-0.6,2-1.3,3-1.9c0.3-0.2,0.6-0.4,0.9-0.6c0.1-0.1,0.2-0.1,0.4-0.1
			c0.1,0,0.2,0,0.2,0.2c0,0.1,0,0.2,0,0.2c0,0.7,0,1.5,0,2.2c0,0.1,0,0.1,0.1,0.1c0.2,0,0.4,0,0.6,0h0.1
			C1024.1,489.9,1024.1,490,1024.1,490.2z M1019.4,489.8L1019.4,489.8C1019.4,489.8,1019.5,489.8,1019.4,489.8c0.4,0,0.7,0,1.1,0
			c0.7,0,1.4,0,2.1,0c0.1,0,0.1,0,0.1-0.1c0-0.6,0-1.3,0-1.9c0,0,0,0,0-0.1c0,0,0,0-0.1,0C1021.5,488.4,1020.5,489.1,1019.4,489.8
			C1019.5,489.7,1019.4,489.8,1019.4,489.8z"/>
		<path class="st27" d="M1008.4,487.5c0-0.1,0-0.2,0-0.3h0.1c1.3,0,2.7,0,4,0c0.4,0,0.8,0.3,0.8,0.8c0,0.2,0,0.3,0,0.5
			c-0.1,0.3-0.4,0.5-0.7,0.6c-0.1,0-0.1,0-0.2,0c-0.9,0-1.8,0-2.7,0c-0.3,0-0.5,0.2-0.5,0.5s0,0.7,0,1c0,0.1,0,0.1-0.1,0.1
			c-0.2,0-0.4,0-0.6,0c0,0-0.1,0-0.1-0.1c0-0.3,0-0.7,0-1s0.1-0.6,0.4-0.8c0.1-0.1,0.3-0.1,0.4-0.1c0.9,0,1.9,0,2.8,0
			c0.4,0,0.6-0.2,0.6-0.6c0-0.1,0-0.2,0-0.2c-0.1-0.2-0.2-0.3-0.4-0.3h-0.1C1010.8,487.5,1009.6,487.5,1008.4,487.5L1008.4,487.5z"
			/>
		<path class="st27" d="M1018.9,487.1c0,0.1,0,0.2,0,0.3l0,0c0,0,0,0-0.1,0c-0.6,0-1.2,0-1.8,0c-0.1,0-0.1,0-0.2,0
			c-0.2,0-0.3,0.2-0.3,0.4c0,0.1,0,0.1,0,0.2c0,0.5,0,1.1,0,1.6s-0.3,0.8-0.8,0.8c-0.2,0-0.4,0-0.6,0c-0.6,0-1.2,0-1.8,0
			c-0.1,0-0.1,0-0.1-0.1s0-0.1,0-0.2s0-0.1,0.1-0.1c0.4,0,0.8,0,1.2,0c0.3,0,0.5,0,0.8,0s0.5-0.2,0.5-0.4c0-0.1,0-0.2,0-0.3
			c0-0.5,0-1,0-1.5c0-0.3,0.1-0.6,0.4-0.7c0.1-0.1,0.2-0.1,0.4-0.1C1017.3,487.1,1018,487.1,1018.9,487.1
			C1018.8,487.1,1018.8,487.1,1018.9,487.1z"/>
		<rect x="1048.1" y="478.7" class="st23" width="41.7" height="23"/>
		<path class="st40" d="M1094.5,478h-10.4c0-2.2,1.8-4,4-4h2.3C1092.7,473.9,1094.5,475.8,1094.5,478z"/>
		<path class="st40" d="M1053.4,478H1043c0-2.2,1.8-4,4-4h2.3C1051.6,473.9,1053.4,475.8,1053.4,478z"/>
		<path class="st23" d="M1053.6,477.5v1.2h-10.9v-1.2c0-1.6,1.3-2.8,2.8-2.8h5.2C1052.4,474.7,1053.6,476,1053.6,477.5z"/>
		<path class="st23" d="M1094.8,477.5v1.2h-10.9v-1.2c0-1.6,1.3-2.8,2.8-2.8h5.2C1093.5,474.7,1094.8,476,1094.8,477.5z"/>
		<path class="st23" d="M1045.8,514.1c-3.3,3.5-12.4-0.3-11.9-5.3s3.5-23.2,3.5-23.2l17.7,11.9
			C1055.1,497.4,1049.1,510.6,1045.8,514.1z"/>
		<path class="st23" d="M1092.1,514c3.3,3.5,12.4-0.3,11.9-5.3s-3.6-23.1-3.6-23.1l-17.9,11.1C1082.4,496.7,1088.8,510.5,1092.1,514
			z"/>
		<circle class="st22" cx="1048.1" cy="487.9" r="10.9"/>
		<circle class="st22" cx="1089.7" cy="487.9" r="10.9"/>
		<circle class="st23" cx="1058.7" cy="498.7" r="7.1"/>
		<circle class="st23" cx="1079.1" cy="498.7" r="7.1"/>
		<path class="st29" d="M1092,495.9h-4.3c-0.6,0-1-0.5-1-1v-14.1c0-0.6,0.5-1,1-1h4.3c0.6,0,1,0.5,1,1v14.1
			C1093,495.5,1092.6,495.9,1092,495.9z"/>
		<path class="st29" d="M1097.9,485.7v4.3c0,0.6-0.5,1-1,1h-14.1c-0.6,0-1-0.5-1-1v-4.3c0-0.6,0.5-1,1-1h14.1
			C1097.5,484.7,1097.9,485.1,1097.9,485.7z"/>
		<path class="st29" d="M1050.4,496.1h-4.3c-0.6,0-1-0.5-1-1V481c0-0.6,0.5-1,1-1h4.3c0.6,0,1,0.5,1,1v14.1
			C1051.4,495.6,1050.9,496.1,1050.4,496.1z"/>
		<path class="st29" d="M1056.3,485.8v4.3c0,0.6-0.5,1-1,1h-14.1c-0.6,0-1-0.5-1-1v-4.3c0-0.6,0.5-1,1-1h14.1
			C1055.8,484.8,1056.3,485.3,1056.3,485.8z"/>
		<circle class="st40" cx="1089.9" cy="482.8" r="2.5"/>
		<path class="st41" d="M1091.3,483.8h-2.8c-0.2,0-0.3-0.2-0.2-0.4l1.4-2.3c0.1-0.2,0.3-0.2,0.4,0l1.4,2.3
			C1091.6,483.6,1091.5,483.8,1091.3,483.8z M1088.9,483.3h1.8l0.1-0.1l-0.9-1.5h-0.1L1088.9,483.3L1088.9,483.3z"/>
		<circle class="st40" cx="1084.7" cy="487.8" r="2.5"/>
		<path class="st42" d="M1086,489.3h-2.5c-0.1,0-0.3-0.1-0.3-0.3v-2.4c0-0.1,0.1-0.3,0.3-0.3h2.5c0.1,0,0.3,0.1,0.3,0.3v2.4
			C1086.2,489.2,1086.1,489.3,1086,489.3z M1083.8,488.8h1.9c0,0,0.1,0,0.1-0.1V487c0,0,0-0.1-0.1-0.1h-1.9c0,0-0.1,0-0.1,0.1
			L1083.8,488.8C1083.7,488.7,1083.7,488.8,1083.8,488.8z"/>
		<circle class="st40" cx="1089.9" cy="493.1" r="2.5"/>
		<circle class="st40" cx="1095" cy="487.8" r="2.5"/>
		<path class="st43" d="M1088.6,494.3L1088.6,494.3c-0.1-0.1-0.1-0.3,0-0.4l2.1-2c0.1-0.1,0.3-0.1,0.4,0l0,0c0.1,0.1,0.1,0.3,0,0.4
			l-2.1,2C1088.9,494.4,1088.7,494.4,1088.6,494.3z"/>
		<path class="st43" d="M1091.1,494.3L1091.1,494.3c0.1-0.1,0.1-0.3,0-0.4l-2.1-2c-0.1-0.1-0.3-0.1-0.4,0l0,0
			c-0.1,0.1-0.1,0.3,0,0.4l2.1,2C1090.8,494.4,1091,494.4,1091.1,494.3z"/>
		<path class="st44" d="M1095,489.6c-1,0-1.8-0.8-1.8-1.8s0.8-1.8,1.8-1.8s1.8,0.8,1.8,1.8C1096.8,488.8,1096,489.6,1095,489.6z
			 M1095,486.6c-0.7,0-1.3,0.6-1.3,1.3c0,0.7,0.6,1.3,1.3,1.3s1.3-0.6,1.3-1.3C1096.3,487.1,1095.7,486.6,1095,486.6z"/>
		<path class="st40" d="M1050,485.6l-1.6,1.1c-0.1,0.1-0.2,0.1-0.3,0l-1.6-1.1c-0.1,0-0.1-0.1-0.1-0.2v-3.1c0-0.1,0.1-0.3,0.3-0.3
			h3.3c0.1,0,0.3,0.1,0.3,0.3v3.1C1050.1,485.5,1050.1,485.6,1050,485.6z"/>
		<path class="st40" d="M1050,490.3l-1.6-1.1c-0.1-0.1-0.2-0.1-0.3,0l-1.6,1.1c-0.1,0-0.1,0.1-0.1,0.2v3.1c0,0.1,0.1,0.3,0.3,0.3
			h3.3c0.1,0,0.3-0.1,0.3-0.3v-3.1C1050.1,490.4,1050.1,490.3,1050,490.3z"/>
		<path class="st40" d="M1050.5,489.7l-1.1-1.6c-0.1-0.1-0.1-0.2,0-0.3l1.1-1.6c0-0.1,0.1-0.1,0.2-0.1h3.1c0.1,0,0.3,0.1,0.3,0.3
			v3.3c0,0.1-0.1,0.3-0.3,0.3h-3.1C1050.7,489.9,1050.6,489.8,1050.5,489.7z"/>
		<path class="st40" d="M1046.1,489.7l1.1-1.6c0.1-0.1,0.1-0.2,0-0.3l-1.1-1.6c0-0.1-0.1-0.1-0.2-0.1h-3.1c-0.1,0-0.3,0.1-0.3,0.3
			v3.3c0,0.1,0.1,0.3,0.3,0.3h3.1C1046,489.9,1046.1,489.8,1046.1,489.7z"/>
		<circle class="st45" cx="1058.7" cy="498.7" r="5"/>
		<circle class="st40" cx="1058.7" cy="498.7" r="3.8"/>
		<circle class="st45" cx="1079.1" cy="498.7" r="5"/>
		<circle class="st40" cx="1079.1" cy="498.7" r="3.8"/>
		<rect x="1067" y="497.4" class="st40" width="3.8" height="1.5"/>
	</g>
	<path class="st46" d="M1090.5,473.9c1,0,2,0.4,2.7,1c1,0.4,1.7,1.4,1.7,2.6v0.7c2.8,1.5,4.9,4.1,5.5,7.3c0,0.1,0,0.1,0,0.2
		s0,0.1,0,0.2s0,0.1,0,0.2c0,0,0,0,0,0.1c0.6,3.4,3.1,18,3.5,22.4c0.4,3.7-4.3,6.7-8.2,6.7c-1.4,0-2.8-0.4-3.7-1.4
		c-1.9-2-4.8-7.4-6.9-11.7c0.1-0.2,0.2-0.4,0.3-0.6h-0.6c0.1,0.2,0.2,0.4,0.3,0.6c-1.2,2-3.5,3.4-6,3.4c-2.8,0-5.2-1.7-6.4-4h-7.7
		c-1.1,2.4-3.6,4-6.4,4c-2.5,0-4.7-1.3-6-3.3c-2,4.1-5,9.5-6.9,11.6c-0.9,1-2.2,1.4-3.7,1.4c-2.4,0-5.1-1.1-6.7-2.9l0.1,1.9
		c0,0.3-0.1,0.5-0.4,0.5H861.3c-0.5,0-0.9-0.4-0.8-0.9l0.9-12.4c0-0.2,0.2-0.4,0.4-0.4h6.9v-5.7h-6.3c-0.3,0-0.5-0.2-0.5-0.5l1-12.9
		c0-0.1,0.1-0.2,0.2-0.2h65.1c0.1,0,0.1,0,0.1,0.1v0.9h2.1v-0.5c0-0.2,0.2-0.5,0.5-0.5H1033c0.1,0,0.2,0.1,0.2,0.2l1,12.9
		c0,0.3-0.2,0.5-0.5,0.5h-6.2v5.7h6.4c0.1,0,0.8,0,0.8,0.5v0.7c0.9-5.8,2.1-13.3,2.5-16c0-0.1,0-0.1,0-0.2s0-0.2,0-0.3
		c0-0.1,0-0.2,0.1-0.4c0-0.1,0-0.1,0-0.1l0,0c0.7-3.1,2.6-5.7,5.3-7.2v-0.8c0-1.1,0.6-2.1,1.6-2.5c0.7-0.7,1.7-1.1,2.7-1.1h2.3
		c1.1,0,2,0.4,2.7,1c0.9,0.5,1.6,1.4,1.6,2.5v1.2h30.3v-1.2c0-1.1,0.6-2,1.5-2.5c0.7-0.7,1.7-1.1,2.8-1.1h2.4 M1090.5,465.9h-2.3
		c-2.7,0-5.4,0.9-7.5,2.6c-0.9,0.6-1.7,1.3-2.3,2.2h-19.1c-0.7-0.9-1.6-1.7-2.6-2.3c-2.1-1.6-4.6-2.5-7.3-2.5h-2.3
		c-2.7,0-5.2,0.9-7.3,2.5c-2,1.3-3.6,3.2-4.4,5.5c-0.1,0.1-0.2,0.2-0.4,0.3c-0.6-0.2-1.3-0.2-2-0.2H930.9c-0.5,0-0.9,0-1.3,0.1
		c-0.4-0.1-0.9-0.1-1.3-0.1h-65.1c-4.2,0-7.8,3.3-8.2,7.5l0,0l0,0l-1,12.9c-0.1,1.1,0.1,2.3,0.4,3.3c-0.5,1-0.8,2.1-0.9,3.3l0,0l0,0
		l-0.9,12.4l0,0l0,0c-0.2,2.4,0.7,4.8,2.4,6.6s4,2.8,6.4,2.8h173.9c0.7,0,1.4-0.1,2.1-0.3c1.6,0.5,3.2,0.7,4.8,0.7
		c3.8,0,7.2-1.4,9.5-3.9c0.9-1,2.2-2.5,4.2-6c0.9,0.2,1.9,0.3,2.8,0.3c3.8,0,7.5-1.5,10.2-4c2.7,2.5,6.4,4,10.2,4c1,0,2-0.1,2.9-0.3
		c2,3.5,3.3,5.1,4.2,6c2.4,2.5,5.8,3.9,9.5,3.9c4.7,0,9.6-2.2,12.7-5.6c2.6-2.8,3.8-6.3,3.4-9.9c-0.4-4-2.2-14.7-3.5-22.3l-0.1-0.4
		c0-0.2-0.1-0.4-0.1-0.5l0,0c0-0.2,0-0.3-0.1-0.4l0,0l-0.1-0.3c-0.9-4-3-7.6-6.1-10.3c-0.9-2.2-2.4-4.1-4.5-5.3
		C1095.5,466.8,1093,465.9,1090.5,465.9L1090.5,465.9z"/>
</g>
</svg>
