<?xml version="1.0" encoding="utf-8"?>
<!-- Generator: Adobe Illustrator 24.2.3, SVG Export Plug-In . SVG Version: 6.00 Build 0)  -->
<svg version="1.1" xmlns="http://www.w3.org/2000/svg" xmlns:xlink="http://www.w3.org/1999/xlink" x="0px" y="0px"
	viewBox="0 0 1920 1080" enable-background="new 0 0 1920 1080" xml:space="preserve">
	<g id="startscreen">
		<g>
			<defs>
				<rect id="SVGID_1_" width="1920" height="1080" />
			</defs>
			<clipPath id="SVGID_2_">
				<use xlink:href="#SVGID_1_" overflow="visible" />
			</clipPath>
			<path clip-path="url(#SVGID_2_)" fill="#FFCF36" d="M3187.2,1607.9c0,0-663.8-137.1-562.4-505.2
			c101.4-368-262.1-302.3-262.1-302.3s-456.9,176-354.1-249.1c102.8-425.2-378.1-89.3-710.3-252.8s-240.2-652-240.2-652L3637.3,221
			L3187.2,1607.9z" />
			<path clip-path="url(#SVGID_2_)" fill="#71E2D0" d="M563.5-161.2c0,0,53.7,581.4-275,590.3C-40.2,438,105.3,721,105.3,721
			s259.8,332.3-116.4,354.3c-376.2,22.1,21.4,334-29.9,648.8s-476.9,361.7-476.9,361.7L-692.3-183.8L563.5-161.2z" />
			<path clip-path="url(#SVGID_2_)" fill="#8CC94D" d="M636.5,1266.1c0,0,229.3-540.3,524.6-391.6s301.3-171.2,301.3-171.2
			s-71.7-417.9,271.8-258.3s562.4,48.6,757.6-205.7C2687-14.9,2664-208.1,2664-208.1l-926.5,2092.3L636.5,1266.1z" />
			<path clip-path="url(#SVGID_2_)" fill="#FF884D" d="M590.4,1031.2c7,81.2,23.3,159.1,13.1,259.2c-9.3,100.1-44.3,223.3-116.2,251
			c-71.4,28.2-179.2-38.5-292.7-56.3c-114-18.2-233.7,12.4-312.3-25.2c-78.2-37.2-116.4-142.7-129.2-254.2
			c-13.3-111-2.2-228.8,68.5-288.9c71.2-59.7,201.5-62.2,307.3-120.5c104.9-58.2,184.4-172.1,256.8-183.7c72-12,137.3,78.7,168,166
			C585.4,866.1,583.5,950.1,590.4,1031.2z" />
		</g>
		<g>
			<path fill="#71E2D0" d="M612.1,201.7c-4.2,3.7-11,5.9-20.8,6.2c-0.3-4.6-1.2-14.5-2.3-24.5c0-0.1-0.1-0.3-0.1-0.5
			c-0.3-3.4-0.9-9.8-4.6-20.1l7.2-3.2c2.9-1.3,5.9-2.1,8.7-2.1c3.5,0,6.3,1.1,8.2,2.8c2.1,2.1,3.1,4.5,3.1,7.1c0,2.9-1,5.9-3.1,9.1
			c2.4,0.9,4.6,2.3,6.1,4c2.5,2.7,3.8,5.8,3.8,9C618.4,194,616.3,198,612.1,201.7z M598.9,166.2c-0.5-0.1-2.6,0.3-3.8,0.9
			c0.6,2.3,1.2,6,2.3,10.9c1.8-1.3,3.7-3.5,3.7-3.5c1.1-1.4,1.3-3.3,1.1-5.1C601.7,167.7,600.6,166.5,598.9,166.2z M603.5,185.3
			c-0.4-0.2-2.5-0.2-4.2,0.5c0.3,2.7,0.9,7.7,1.4,11c0.5-0.4,3-1.9,3.5-2.3c1.3-1.4,2.1-3.1,2.1-5.1
			C606.3,187.6,605.4,185.9,603.5,185.3z" />
			<path fill="#71E2D0" d="M622.5,208.2c0,0,0.2-6.8,0.3-10.3c0.5-7,0.2-13,0.2-21c0-8.8,0.1-17.9-0.3-26.5c0.1-1.7-0.6-3.8-1.1-5.1
			c3-1.1,5.1-1.5,7.2-1.4c0.7,0,5,0.4,5.8,0.5c-1,12.3-0.6,17.4-0.9,26.7c-0.1,3.8-0.1,16.8-0.2,24.7c-0.1,4.7,0.3,9.4,0.5,11.7
			C632.9,208.3,625.3,209.1,622.5,208.2z" />
			<path fill="#71E2D0" d="M646.8,168.2c-3.1,0-6.6-2.5-6.6-5.9s3.4-5.8,6.6-5.8c3.5,0,6.4,2.5,6.6,5.8
			C653.2,165.8,650.2,168.2,646.8,168.2z M649.8,207.5c-0.8,0-1.7,0-5.5-0.7c-0.3-6.8-1.3-20.1-2.7-32.3c3.6-1.1,7.4-1.6,11.2-1.1
			l0.5,4.2l-0.1-0.1c0.2,1.2,0.5,6.1,1.1,12.1c0.3,2.9,0.9,9.2,1.2,17C655.5,206.5,651.7,207.3,649.8,207.5z" />
			<path fill="#71E2D0" d="M684,190l-6.4,15.8c-1.7,0.5-4.4,1.1-6,1.3l-4.5-8.4c-1.3-2.6-2.3-4.6-3.1-6.4c-0.9-2.1-1.7-3.7-2.7-5.9
			c-1-2.3-2-4.4-2.9-6.6l-3.1-6.8c2.9-2.7,6.4-4.3,10.9-4.9c0.9,2.7,3,9,5.3,15.2c0.7,2.1,1.4,3.9,2.1,5.4c1.6-4.1,3.6-9.2,5.9-13.9
			l-0.1,0.1l2.9-6.6l9.1,5.5l-2.7,5.8C688,180.9,685.7,185.6,684,190z" />
		</g>
		<g>
			<g>
				<path fill="#FFCF36" d="M661.1,273.5c1,0,5-0.6,10.6-1.3c-0.7,6.4-2.8,12.3-6.2,17.9l-6.6-1.2c-4.5-0.7-9.1-2-12.6-3.8h0.1
				c-6.2-3-10.3-6.5-12.6-10.8c-3.2-5.8-4.5-11.9-4.5-18c0-3.6,0.7-7.9,2.1-11.2c4.3-10.4,11.5-16,20.8-15.3H652
				c14.3,0.8,21.3,11.1,20.9,30.8l-26.5,4.8C648.8,271,653.6,273.5,661.1,273.5z M655.4,251.5c-0.2-2.7-0.1-4.4-0.8-6.4
				c-0.8-2.1-2-2.7-3.6-2.7c-1.3-0.1-3.7,1.7-4.9,4.8c-0.7,2.2-1.1,4.4-1.1,6.2C648.4,252.7,651.9,252.2,655.4,251.5z" />
			</g>
			<g>
				<path fill="#FFCF36" d="M721.1,280.1c0,0.9,0,1.8,0.7,8l-18.3-3.4c0.6-3.6,0.6-5.4,0.8-7.4c0.4-2.5,0.8-8.4,1.8-13.3
				c0.7-3.7,1.2-7.2,1.2-11.3c0-2.4-0.5-4.5-1.4-5.1c-1.7,0.1-8,5.8-10.8,9.3c0.2,5.9,0.1,8.4,0,11.1c-0.1,2.2-0.5,16-0.1,17.5
				l-16.3,1.4c0,0,1-20.6,1.1-26.6c0.1-5.5-1.5-24.8-1.5-24.8c3.1-0.7,9.2-2,15.3-1.3c0,0,0.4,7.5,0.4,8.6c2.2-3.5,7.5-8.2,12.2-9.3
				c2-0.5,5.6,0,7.3,0.7c8,3.5,9.7,10.6,9.7,17.6c0,3.2-0.7,7.3-1.1,10.8C721.5,265.9,721.1,274.2,721.1,280.1z" />
			</g>
			<g>
				<path fill="#FFCF36" d="M753.1,273.5c2.8,0,9.2-1.6,12.4-6.1c3.9,2.2,7.3,10.9,7.3,10.9c-3.9,2.1-9.3,7.9-20.4,7.9
				c-9.8,0-16.5-5.6-19.1-9.8c-3.2-5.2-5.1-12.6-5.1-17.9c0-3.6,0.8-8.8,2.2-12c4.2-9.4,11.5-14.5,20.7-13.8
				c13.7,0.7,19.9,10.7,19.7,28.3l-26.1,4.5C746,270.2,750,273.5,753.1,273.5z M755.1,254.1c-0.7-3-1.6-5.6-2-6.4
				c-0.7-1.6-1.8-2.4-3.6-2.6c-1-0.1-2.7,0.3-4.1,3.4c-1.2,2.4-1.2,5.2-1.3,7.5C747.4,255.4,751.7,254.5,755.1,254.1z" />
			</g>
			<g>
				<path fill="#FFCF36" d="M819.9,257.3c0,0-9.7,1.8-14.3,1.8l0.3-6.9c0-1.6-0.5-3.5-1.7-3.2c-2.3,0.6-3.5,1.2-7.2,5.4l-2.2,3.4
				c-0.1,3.6-0.4,7.8-0.2,12c0.1,4.4,0,5,0.7,16l-17.2-0.3l0.1-7.5c0.6-10.8,0.9-16.5,0.7-29.3c-0.1-5-0.3-7.5-0.7-12.8
				c3.6-1.6,15.6-3,15.6-3c0.2,4,0.6,8.8,0.6,8.8c2.1-1.9,7-7.3,9.9-7.7c4.9-0.7,8,0.7,10.9,3.8c2.7,2.7,4.7,9.3,4.6,13.4
				L819.9,257.3z" />
			</g>
			<g>
				<path fill="#FFCF36" d="M863.3,232.1c4.6,4,10.5,11.1,10.5,16.4c0,13.2-9.2,21.7-23.3,21.7c-0.9,0-5.8-0.2-7.8-0.9
				c-1.3,1.3-0.6,4.2-0.6,4.2c0,0.4,0.8,1.7,2.3,2.7c1.3-0.7,5.4-1,7-1c10.9,0,20.2,7.6,20.2,20.8c0,6.7-1,11.8-6.5,16.5
				c-3.2,2.7-9.8,5-15.5,5c-8.4,0-23.4-7.4-23.4-23.2c0-5.4,1.7-9.7,5.2-13.1c-2.9-3.3-4.6-6.4-4.6-9.2c0-3.6,1.3-5.8,5-7.9
				c-4.4-3.8-7.6-8.7-7.6-12.3c0-3.7,0.5-7.3,3.2-11.4c5.6-8.4,13.6-11.3,22.6-11.3h2.6c2.7-7,8.6-10.9,17.1-10.9c2.4,0,5,0.1,5,0.1
				c1.4,4.1,1.4,5.7,1.4,7.4c0,1.2-0.6,3.7-1,5.5l-2.4-1C871.4,230.2,866.2,228.8,863.3,232.1z M857.8,247.9c0-2.8-2.1-6.4-6.1-6.4
				c-1.7,0-4.1,0.5-5.6,1.1c-1.6,0.7-5,5.4-5,8.9c0,0.7,0.7,1.9,1.5,2.8c1.9,2.3,2.6,3.2,7.8,3.2c4.8,0,6.9-3.2,7.4-8.6v-0.2
				C857.8,248.5,857.8,248.3,857.8,247.9z M847.4,287.6c-2.9,0-5.2,1.8-5.2,6.5c0,3.4,0.2,6.6,1.4,8.1c1.6,1.9,4.4,2.7,5.6,2.6
				c2.2-0.1,5.8-1.6,5.8-5.5C855,296.5,855.3,287.6,847.4,287.6z" />
			</g>
			<g>
				<path fill="#FFCF36" d="M888.9,233.1c-4.4,0-9.3-3.6-9.3-8.2c0-4.7,4.8-8.1,9.3-8.1c5,0,9,3.5,9.3,8.1
				C898,229.8,893.8,233.1,888.9,233.1z M893.1,288.3c-1.1,0-2.4,0-7.8-0.9c-0.5-9.6-1.9-28.2-3.7-45.4c5-1.6,10.4-2.2,15.8-1.5
				l0.7,5.9l-0.1-0.2c0.3,1.7,0.7,8.6,1.5,17c0.4,4.1,1.2,13,1.7,23.8C901.1,287,895.8,288.1,893.1,288.3z" />
			</g>
			<g>
				<path fill="#FFCF36"
					d="M947.2,287.8c-4.5,2.8-8.3,3.6-11.7,3.4c-1.7-1.9-2.5-8.1-2.5-8.1c-2.1,0.7-6.4,2.9-8.7,2.9
				c-9.6,0-17.9-4.7-17.9-15c0-1.8,0.2-3.5,0.7-5.1c1.1-4.1,3.6-8.2,7-11.1c3.2-2.6,7.2-3.8,11.9-3.8c1.8,0,4.1,0.4,5.7,0.7v-2.4
				l-0.2-4c-0.7-4-1.4-3.7-3.3-3.3c-0.8,0.2-6,1.7-6.9,2.1c-1.9,1.1-4.3,2.2-6.6,4.5c-1.8-1.2-2.6-4.1-3.5-7.2
				c-0.6-2-0.6-5.8-0.1-7.2c5.3-3.7,11-5.6,17.3-5.6c3,0,5.6,0.5,7.8,1.3c5.2,1.6,9,5,10.4,9.7c0.9,2.8,1.3,6.6,1.3,11.3
				c0,2.2-0.2,5.1-0.2,7.8c-0.1,4.1-0.1,6-0.1,8.1c0,9.4,0.9,14.9,3.5,16.8C951.1,283.6,949.1,286.7,947.2,287.8z M926.3,261.1
				c-2,0-3.5,5.5-3.5,8.1c0,4,1.1,5.8,2.8,5.8c2.2,0,5.5-1.1,6.4-3.9l-0.1-7.2l-0.7-0.7C929.7,261.6,927.6,261.1,926.3,261.1z" />
			</g>
			<g>
				<path fill="#FFCF36" d="M993.3,232.1c4.6,4,10.5,11.1,10.5,16.4c0,13.2-9.2,21.7-23.3,21.7c-0.9,0-5.8-0.2-7.8-0.9
				c-1.3,1.3-0.6,4.2-0.6,4.2c0,0.4,0.8,1.7,2.3,2.7c1.3-0.7,5.4-1,7-1c10.9,0,20.2,7.6,20.2,20.8c0,6.7-1,11.8-6.5,16.5
				c-3.2,2.7-9.8,5-15.5,5c-8.4,0-23.4-7.4-23.4-23.2c0-5.4,1.7-9.7,5.2-13.1c-2.9-3.3-4.6-6.4-4.6-9.2c0-3.6,1.3-5.8,5-7.9
				c-4.4-3.8-7.6-8.7-7.6-12.3c0-3.7,0.5-7.3,3.2-11.4c5.6-8.4,13.6-11.3,22.6-11.3h2.6c2.7-7,8.6-10.9,17.1-10.9c2.4,0,5,0.1,5,0.1
				c1.4,4.1,1.4,5.7,1.4,7.4c0,1.2-0.6,3.7-1,5.5l-2.4-1C1001.4,230.2,996.2,228.8,993.3,232.1z M987.9,247.9c0-2.8-2.1-6.4-6.1-6.4
				c-1.7,0-4.1,0.5-5.6,1.1c-1.6,0.7-5,5.4-5,8.9c0,0.7,0.7,1.9,1.5,2.8c1.9,2.3,2.6,3.2,7.8,3.2c4.8,0,6.9-3.2,7.4-8.6v-0.2
				C987.9,248.5,987.9,248.3,987.9,247.9z M977.4,287.6c-2.9,0-5.2,1.8-5.2,6.5c0,3.4,0.2,6.6,1.4,8.1c1.6,1.9,4.4,2.7,5.6,2.6
				c2.1-0.1,5.8-1.6,5.8-5.5C985,296.5,985.4,287.6,977.4,287.6z" />
			</g>
			<g>
				<path fill="#FFCF36"
					d="M1037.4,273.5c1,0,5-0.6,10.6-1.3c-0.7,6.4-2.8,12.3-6.2,17.9l-6.6-1.2c-4.5-0.7-9.1-2-12.6-3.8h0.1
				c-6.2-3-10.3-6.5-12.6-10.8c-3.2-5.8-4.5-11.9-4.5-18c0-3.6,0.7-7.9,2.1-11.2c4.3-10.4,11.5-16,20.8-15.3h-0.1
				c14.3,0.8,21.3,11.1,20.9,30.8l-26.5,4.8C1025.2,271,1030,273.5,1037.4,273.5z M1031.8,251.5c-0.2-2.7-0.1-4.4-0.8-6.4
				c-0.8-2.1-2-2.7-3.6-2.7c-1.3-0.1-3.7,1.7-4.9,4.8c-0.7,2.2-1.1,4.4-1.1,6.2C1024.8,252.7,1028.3,252.2,1031.8,251.5z" />
			</g>
			<g>
				<path fill="#FFCF36" d="M1097.5,280.1c0,0.9,0,1.8,0.7,8l-18.3-3.4c0.6-3.6,0.6-5.4,0.8-7.4c0.4-2.5,0.8-8.4,1.8-13.3
				c0.7-3.7,1.2-7.2,1.2-11.3c0-2.4-0.5-4.5-1.4-5.1c-1.7,0.1-8,5.8-10.8,9.3c0.2,5.9,0.1,8.4,0,11.1c-0.1,2.2-0.5,16-0.1,17.5
				l-16.3,1.4c0,0,1-20.6,1.1-26.6c0.1-5.5-1.5-24.8-1.5-24.8c3.1-0.7,9.2-2,15.3-1.3c0,0,0.4,7.5,0.4,8.6c2.2-3.5,7.5-8.2,12.2-9.3
				c2-0.5,5.6,0,7.3,0.7c8,3.5,9.7,10.6,9.7,17.6c0,3.2-0.7,7.3-1.1,10.8C1097.9,265.9,1097.5,274.2,1097.5,280.1z" />
			</g>
			<g>
				<path fill="#FFCF36" d="M1127.8,253.8c0,3.4-0.2,9.4-0.2,17.5c0,3.1,0.7,6.3,2.8,6.3c1.6-0.2,6.4-7.2,6.7-8.1
				c5.1,0.7,9.1,2.4,12.2,6.3c-4.1,12.2-15.8,17.9-24.2,17.9c-1,0-2.3-0.1-3.5-0.4h0.1c-7.1-1.5-10.8-7.3-10.7-17.5
				c0-1.8,0-5.9,0.1-12.2v-8.1c-3,0.3-6.1,0.5-7.4,0.6v-14.3c2.4,0,6.1,0.3,7.1,0.2c0-3,0-5.7,0.2-7.5c0.2-5.8,0.9-14.2,1.5-22.7
				c6.3-0.7,11.7-0.1,16.2,1.7l-0.2,5.7l-0.3,3.7c-0.1,3.5-0.5,6.3-0.7,12.3c-0.2,2.1-0.2,1.1-0.2,5.1c2.9-0.3,6.5-0.5,9.4-0.7
				l7.6-0.5c1.4,2.9,1.3,5.8,1.3,7.9c0,1.2-0.3,5.3-0.6,6.7l-9.3,0.1C1134,253.7,1130.1,253.7,1127.8,253.8z" />
			</g>
		</g>
		<g>
			<g>
				<path fill="#8CC94D" d="M506.8,347.7c5.6,1.9,12.6,4.4,12.6,13.3c0,7.3-6,12.3-14.3,12.3c-11.8,0-13.7-6.5-13.5-15.8l10.7,0.8
				c-0.8,2.7-0.3,4.4-0.1,5.1c0.1,0.8,1,1.8,2.6,1.8c2.2,0,3.9-2.1,3.9-4.5c0-3.1-3-4.1-6-5.2c-5.4-1.9-10.9-3.9-11-10.2
				c-0.1-8.4,8-11.2,14.5-11.2c6.1,0,11.4,0.6,11.7,12.1l-7.7,0.6c-0.2-3.3-2.1-4.9-3.5-5c-2.3-0.1-4.3,1.6-4.2,3.5
				C502.9,346.4,504.3,346.8,506.8,347.7z" />
			</g>
			<g>
				<path fill="#8CC94D"
					d="M549.8,372.4c-3,1.9-5.6,2.5-7.9,2.3c-1.1-1.3-1.7-5.5-1.7-5.5c-1.4,0.5-4.3,2-5.9,2
				c-6.5,0-12.1-3.2-12.1-10.1c0-1.2,0.1-2.3,0.4-3.5c0.8-2.8,2.4-5.6,4.7-7.5c2.1-1.8,4.9-2.6,8-2.6c1.2,0,2.8,0.3,3.9,0.5v-1.6
				l-0.1-2.7c-0.4-2.7-0.9-2.5-2.2-2.2c-0.6,0.1-4,1.1-4.7,1.5c-1.3,0.8-2.9,1.5-4.5,3c-1.2-0.8-1.8-2.8-2.3-4.9
				c-0.4-1.3-0.4-3.9-0.1-4.9c3.6-2.5,7.5-3.8,11.7-3.8c2,0,3.8,0.3,5.2,0.9c3.5,1.1,6.1,3.3,7,6.6c0.6,1.9,0.9,4.5,0.9,7.6
				c0,1.5-0.1,3.5-0.1,5.2c-0.1,2.8-0.1,4-0.1,5.5c0,6.4,0.6,10,2.3,11.4C552.3,369.5,551,371.6,549.8,372.4z M535.6,354.3
				c-1.3,0-2.3,3.7-2.3,5.5c0,2.7,0.8,3.9,1.9,3.9c1.5,0,3.7-0.8,4.3-2.7l-0.1-4.9l-0.5-0.5C537.9,354.7,536.5,354.3,535.6,354.3z" />
			</g>
			<g>
				<path fill="#8CC94D" d="M603.1,368.2l-11,0.9c-0.4-2.7-0.6-7.5-0.6-10.5c0-4.5-0.3-7.8-0.5-9.7c-0.3-1.8-1-2.5-0.9-2.6
				c-2.9-0.6-4.9,6.3-5,9.9c-0.3,5.1-0.4,7.8-0.3,12.4l-11.4-0.4l0.6-4.1c0.6-4.2,0.9-7.4,0.9-11.7c0-2-0.6-5.2-1.5-5.6
				c-0.9-0.4-4.9,0.8-6.5,4.4c-0.3,8.7,0.1,6.8,0.1,13c0,1.8,0.2,5.5,0.2,5.5l-11.7,0.1c0.1-0.2,0.8-9.3,1.1-12.6
				c0.5-4.2,0-13-2.4-16.7c0,0,7.6-3.8,10-4.5c0,0,1.5,2.5,2,5.1c1.5-1.8,4.2-4.2,7-4.7c1.5-0.3,3.6-0.1,5.5,1
				c2.3,1.5,3.5,2.7,4.4,4.4c1.1-2.5,4.8-4.9,7.3-5.1c4-0.2,6.6,0.8,9,3.7c2.5,3.3,2.3,8.4,2.4,13.1c0,4.2,0.2,5.6,0.4,8.7
				C602.4,363.7,602.8,366,603.1,368.2z" />
			</g>
			<g>
				<path fill="#8CC94D" d="M655.1,372.6l-11,0.9c-0.4-2.7-0.6-7.5-0.6-10.5c0-4.5-0.3-12.2-0.5-14.1c-0.3-1.8-1-2.5-0.9-2.6
				c-2.9-0.6-4.9,6.3-5,9.9c-0.3,5.1-0.4,9.7-0.3,14.3l-11.4-0.4l0.6-4.1c0.6-4.2,0.9-9.3,0.9-13.6c0-2-0.6-5.2-1.5-5.6
				c-0.9-0.4-4.9,0.8-6.5,4.4c-0.3,8.7,0.1,5.5,0.1,11.7c0,1.8,0.2,5.5,0.2,5.5l-11.7-0.6c0.1-0.2,0.8-7.4,1.1-10.7
				c0.5-4.2,0-13-2.4-16.7c0,0,7.6-3.8,10-4.5c0,0,1.5,2.5,2,5.1c1.5-1.8,4.2-4.2,7-4.7c1.5-0.3,3.6-0.1,5.5,1
				c2.3,1.5,3.5,2.7,4.4,4.4c1.1-2.5,4.8-4.9,7.3-5.1c4-0.2,6.6,0.8,9,3.7c2.5,3.3,2.3,8.4,2.4,13.1c0,4.2,0.2,10,0.4,13.1
				C654.3,368.1,654.8,370.4,655.1,372.6z" />
			</g>
			<g>
				<path fill="#8CC94D" d="M680,362.7c0.7,0,3.4-0.4,7.1-0.9c-0.5,4.4-1.9,8.3-4.2,12.1l-4.5-0.8c-3-0.5-6.1-1.3-8.5-2.6h0.1
				c-4.2-2-6.9-4.4-8.5-7.3c-2.1-3.9-3-8-3-12.2c0-2.5,0.5-5.3,1.4-7.6c2.9-7,7.8-10.8,14.1-10.4h-0.1c9.7,0.6,14.4,7.5,14.1,20.8
				l-17.9,3.2C671.7,361,675,362.7,680,362.7z M676.2,347.8c-0.1-1.8-0.1-3-0.6-4.4c-0.6-1.4-1.3-1.8-2.4-1.8
				c-0.9-0.1-2.5,1.1-3.3,3.2c-0.5,1.5-0.8,3-0.8,4.2C671.5,348.6,673.8,348.3,676.2,347.8z" />
			</g>
			<g>
				<path fill="#8CC94D" d="M720.6,367.1c0,0.6,0,1.2,0.4,5.4l-12.4-2.3c0.4-2.4,0.4-3.7,0.6-5c0.3-1.7,0.6-5.7,1.2-9
				c0.4-2.5,0.8-4.9,0.8-7.6c0-1.6-0.3-3-0.9-3.5c-1.1,0.1-5.4,3.9-7.3,6.3c0.1,4,0.1,5.7,0,7.5c-0.1,1.5-0.3,10.8-0.1,11.8l-11,0.9
				c0,0,0.7-13.9,0.8-18c0.1-3.7-1-16.7-1-16.7c2.1-0.5,6.2-1.3,10.4-0.9c0,0,0.3,5.1,0.3,5.8c1.5-2.3,5.1-5.6,8.2-6.3
				c1.3-0.3,3.8,0,4.9,0.4c5.4,2.3,6.6,7.1,6.6,11.9c0,2.1-0.5,4.9-0.8,7.3C720.9,357.6,720.6,363.1,720.6,367.1z" />
			</g>
			<path fill="#8CC94D" d="M794,399l-11,0.9c-0.4-2.7-0.6-7.5-0.6-10.5c0-4.5-0.3-12.2-0.5-14.1c-0.3-1.8-1-2.5-0.9-2.6
			c-2.9-0.6-4.9,6.3-5,9.9c-0.3,5.1-0.4,9.7-0.3,14.3l-11.4-0.4l0.6-4.1c0.6-4.2,0.9-9.3,0.9-13.6c0-2-0.6-5.2-1.5-5.6
			c-0.9-0.4-4.9,0.8-6.5,4.4c-0.3,8.7,0.1,5.5,0.1,11.7c0,1.8,0.2,5.5,0.2,5.5l-11.7-0.6c0.1-0.2,0.8-7.4,1.1-10.7
			c0.5-4.2,0-13-2.4-16.7c0,0,7.6-3.8,10-4.5c0,0,1.5,2.5,2,5.1c1.5-1.8,4.2-4.2,7-4.7c1.5-0.3,3.6-0.1,5.5,1
			c2.3,1.5,3.5,2.7,4.4,4.4c1.1-2.5,4.8-4.9,7.3-5.1c4-0.2,6.6,0.8,9,3.7c2.5,3.3,2.3,8.4,2.4,13.1c0,4.2,0.2,10,0.4,13.1
			C793.3,394.5,793.7,396.8,794,399z" />
			<path fill="#8CC94D" d="M819,389.1c0.7,0,3.4-0.4,7.1-0.9c-0.5,4.4-1.9,8.3-4.2,12.1l-4.5-0.8c-3-0.5-6.1-1.3-8.5-2.6h0.1
			c-4.2-2-6.9-4.4-8.5-7.3c-2.1-3.9-3-8-3-12.2c0-2.5,0.5-5.3,1.4-7.6c2.9-7,7.8-10.8,14.1-10.4h-0.1c9.7,0.6,14.4,7.5,14.1,20.8
			l-17.9,3.2C810.7,387.4,814,389.1,819,389.1z M815.2,374.2c-0.1-1.8-0.1-3-0.6-4.4c-0.6-1.4-1.3-1.8-2.4-1.8
			c-0.9-0.1-2.5,1.1-3.3,3.2c-0.5,1.5-0.8,3-0.8,4.2C810.5,375,812.8,374.7,815.2,374.2z" />
			<path fill="#8CC94D" d="M852,400c-0.9-1.1-1.8-5.5-1.8-7.8c-2.3,1.8-5.7,3.3-8.3,3.4c-4.2-0.1-7-1.6-9.3-4.1
			c-2.1-2.4-3.3-5.5-3.3-9c-0.2-3.7,0.8-7.2,2.8-10.8c2.8-4.7,6.9-6.6,12.8-6.9c1.2-0.1,2.7,0.4,3.6,0.8c-0.1-3.7-0.4-7.2-0.9-10.5
			c-0.4-3.2-0.8-5.6-0.9-7.4c-0.1-2.1,0.1-4.7,0.7-7.9c4.7-0.8,8.3-0.4,11.3,1.5l-0.6,3.4c-0.2,1.2-0.3,2.8-0.2,4.5
			c0.1,1.2,0.3,3.3,0.6,6c0.5,5,0.8,18.1,1.3,25.1c0.4,5.6,1.1,12.4,2.8,17l-1.9,0.9C859.2,399.2,857.2,399.8,852,400z M849.6,383.6
			c-0.1-1.3-0.3-2.3-0.3-2.9c-0.1-1.3-0.3-3.9-0.4-6c-1.3-0.7-2.1-0.9-2.3-0.8c-1.5,0.3-3,0.7-4.4,2.7c-1.4,1.9-2,4-2,6.4
			c0.1,2.4,1.1,3.5,2.7,3.5C844.6,386.4,846.8,385.5,849.6,383.6z" />
		</g>
		<g>
			<path fill="#8888BA" d="M601.4,533.9c-3.1,0-6.9-0.5-10.1-0.9c-0.7-2.4-3.2-11.3-4.3-15.7c-1.4-5.1-3.1-9.2-4.2-12.1
			c-4.6,0.3-14.6,0.4-21.7,0.4c-1.4,8.1-4,19.2-5.1,27.1c-9,0.4-15.4-0.5-21.5-3.2c0.9-7.1,3.9-19.2,4.7-24.8
			c-0.5,0-0.7-0.4-10.5-0.1c0-2.2-0.4-6.3,0.1-10c0.5-3,2.2-6.9,3.2-9c10.9,0.1,8.4,0,11.9,0c5.1-15.7,9.8-36.2,16.3-54.4l21.2-1.5
			c3,10.3,24,75.2,31.8,100.9C610.8,532,605,534.2,601.4,533.9z M577.4,484.9c-1.3-4.2-5-14.8-6.1-18.9c-1.3,6.3-4.6,12.3-5.9,19.3
			C568,485.3,574.7,485.2,577.4,484.9z" />
			<path fill="#8888BA" d="M673.2,454.4c6.6,5.8,15.1,16.1,15.1,23.6c0,19-13.2,31.3-33.6,31.3c-1.3,0-8.4-0.3-11.2-1.4
			c-1.9,1.9-0.8,6.1-0.8,6.1c0,0.5,1.2,2.4,3.4,3.9c1.9-0.9,7.8-1.5,10.1-1.5c15.8,0,29.1,10.9,29.1,30c0,9.7-1.5,17-9.4,23.9
			c-4.6,3.9-14.2,7.2-22.4,7.2c-12.1,0-33.7-10.7-33.7-33.5c0-7.8,2.4-14,7.6-18.9c-4.2-4.7-6.6-9.2-6.6-13.2
			c0-5.1,1.9-8.4,7.2-11.3c-6.3-5.5-10.9-12.5-10.9-17.8c0-5.4,0.7-10.5,4.6-16.5c8.1-12.1,19.7-16.3,32.7-16.3h3.8
			c3.9-10.1,12.4-15.8,24.7-15.8c3.5,0,7.2,0.1,7.2,0.1c2,5.9,2,8.2,2,10.7c0,1.8-0.8,5.4-1.5,8l-3.5-1.5
			C684.9,451.7,677.3,449.7,673.2,454.4z M665.3,477.2c0-4-3.1-9.2-8.8-9.2c-2.4,0-5.9,0.7-8.1,1.6c-2.3,1.1-7.3,7.8-7.3,12.8
			c0,0.9,0.9,2.7,2.2,4c2.7,3.4,3.8,4.6,11.2,4.6c6.9,0,10-4.6,10.7-12.4v-0.3C665.3,478.1,665.3,477.8,665.3,477.2z M650.2,534.6
			c-4.2,0-7.6,2.6-7.6,9.3c0,4.9,0.3,9.6,2,11.7c2.3,2.7,6.3,3.9,8.1,3.8c3.1-0.1,8.4-2.3,8.4-8
			C661.2,547.4,661.7,534.6,650.2,534.6z" />
			<path fill="#8888BA" d="M736.9,514.2c1.5,0,7.3-0.8,15.2-1.9c-1.1,9.3-4,17.8-8.9,25.8l-9.6-1.8c-6.5-1.1-13.1-2.8-18.2-5.5h0.1
			c-8.9-4.3-14.8-9.4-18.2-15.7c-4.6-8.4-6.5-17.1-6.5-26c0-5.3,1.1-11.3,3-16.2c6.2-15,16.6-23.1,30.1-22.1h-0.1
			c20.6,1.2,30.8,16.1,30.2,44.4l-38.2,6.9C719.2,510.6,726.1,514.2,736.9,514.2z M728.8,482.5c-0.3-3.9-0.1-6.3-1.2-9.3
			c-1.2-3-2.8-3.9-5.1-3.9c-1.9-0.1-5.4,2.4-7,6.9c-1.1,3.2-1.6,6.3-1.6,8.9C718.6,484.1,723.6,483.5,728.8,482.5z" />
			<path fill="#8888BA" d="M823.5,523.7c0,1.4,0,2.6,0.9,11.6l-26.4-4.9c0.8-5.1,0.8-7.8,1.2-10.7c0.5-3.6,1.2-12.1,2.6-19.2
			c0.9-5.4,1.8-10.4,1.8-16.3c0-3.5-0.7-6.5-2-7.4c-2.4,0.1-11.6,8.4-15.5,13.4c0.3,8.5,0.1,12.1,0,16.1c-0.1,3.2-0.7,23.1-0.1,25.2
			l-23.5,2c0,0,1.5-29.7,1.6-38.5c0.1-8-2.2-35.8-2.2-35.8c4.5-1.1,13.2-2.8,22.1-1.9c0,0,0.5,10.8,0.5,12.4
			c3.2-5,10.8-11.9,17.5-13.4c2.8-0.7,8.1,0,10.5,0.9c11.6,5,14,15.2,14,25.4c0,4.6-1.1,10.5-1.6,15.7
			C824.2,503.3,823.5,515.2,823.5,523.7z" />
			<path fill="#8888BA" d="M867.4,485.7c0,4.9-0.3,13.6-0.3,25.2c0,4.5,0.9,9,4,9c2.3-0.3,9.2-10.4,9.7-11.7c7.4,1.1,13.1,3.5,17.5,9
			c-5.9,17.5-22.8,25.8-34.9,25.8c-1.5,0-3.4-0.1-5-0.5h0.1c-10.3-2.2-15.5-10.5-15.4-25.2c0-2.6,0-8.5,0.1-17.7v-11.7
			c-4.3,0.4-8.8,0.7-10.7,0.8v-20.6c3.5,0,8.8,0.4,10.3,0.3c0-4.3,0-8.2,0.3-10.8c0.3-8.4,1.3-20.5,2.2-32.8
			c9-0.9,16.9-0.1,23.3,2.4l-0.3,8.2l-0.4,5.4c-0.1,5-0.7,9-1.1,17.8c-0.3,3.1-0.3,1.6-0.3,7.4c4.2-0.4,9.4-0.7,13.6-0.9l10.9-0.7
			c2,4.2,1.9,8.4,1.9,11.3c0,1.8-0.4,7.7-0.8,9.7l-13.4,0.1C876.3,485.6,870.6,485.6,867.4,485.7z" />
		</g>
		<g>
			<g>
				<path fill="#FF884D" d="M994.5,533.9l0.2-0.2c-3.1,6.6-7.7,12-14.4,17c-6,4.4-12.9,6.7-21,6.7c-8.4,0-15.8-2.3-22.7-7.2h0.2
				c-3.5-2.3-13.2-15.8-12.6-29.4c0-1.7,0.3-7.4,0.3-9c9.5-3.1,17.9-3.4,25.8-0.9l-0.3,9c-0.3,4.4,0,10.3,0.2,10.9
				c1.1,3.4,6.4,3.8,7.5,4c1.7,0.2,4.3-1.7,7.7-5.2c2.5-2.5,3.5-4.4,5.4-8.3c1.1-2.6,1.8-6.3,1.8-10.9c0-2.6-0.6-6.4-1.1-7.1
				c-2.1-2.8-6.3-3.7-12.6-4.8c-10-1.4-20.1-4.3-25.9-11.7c-3.5-4.4-4.9-8.6-5.5-12.7c-0.3-2.9-0.3-6.4-0.3-10.1v-2.5
				c0-10.1,1.1-23,8.3-31.4c7.1-7.8,16.7-10.3,27.1-9.7c12.3,1.1,20.9,4.3,24.7,9l-0.2-0.2c4.1,5.1,6.4,10.6,6.9,16.7v16.3
				l-25.6-0.3v-15c-0.2-1.2-0.3-2.5-0.5-2.6c-2.3-1.7-5.1-1.8-6.4-1.8c-2.3,0-4.3,1.2-6.4,3.7c-1.8,2.1-2.5,8.7-2.5,14.1
				c0,2.9,0.5,6.4,1.4,9.5c1.1,3.8,4,5.7,8.3,6.3c15.5,2.3,26.5,6.7,31.3,12.6c4,5.1,6.4,12.3,6.4,21.6
				C999.8,518.7,998,526.7,994.5,533.9z" />
			</g>
			<g>
				<path fill="#FF884D" d="M1078.1,530c0,1.5,0,2.9,1.1,13.2l-30.1-5.5c0.9-5.8,0.9-8.9,1.4-12.1c0.6-4.1,1.4-13.8,2.9-21.8
				c1.1-6.1,2-11.8,2-18.6c0-4-0.8-7.4-2.3-8.4c-2.8,0.2-13.2,9.5-17.6,15.2c0.3,9.7,0.2,13.8,0,18.2c-0.2,3.7-0.8,26.2-0.2,28.7
				l-26.7,2.3c0,0,1.7-33.7,1.8-43.7c0.2-9-2.5-40.6-2.5-40.6c5.1-1.2,15-3.2,25.2-2.1c0,0,0.6,12.3,0.6,14.1
				c3.7-5.7,12.3-13.5,19.9-15.2c3.2-0.8,9.2,0,12,1.1c13.2,5.7,15.9,17.3,15.9,28.8c0,5.2-1.2,12-1.8,17.8
				C1078.8,506.9,1078.1,520.4,1078.1,530z" />
			</g>
			<g>
				<path fill="#FF884D" d="M1105.2,453.1c-7.2,0-15.3-5.8-15.3-13.5s7.8-13.3,15.3-13.3c8.1,0,14.7,5.7,15.3,13.3
				C1120.1,447.5,1113.2,453.1,1105.2,453.1z M1112.1,543.5c-1.8,0-4,0-12.7-1.5c-0.8-15.8-3.1-46.3-6.1-74.5
				c8.3-2.6,17-3.7,25.9-2.5l1.1,9.7l-0.2-0.3c0.5,2.8,1.2,14.1,2.5,27.9c0.6,6.7,2,21.3,2.8,39.1
				C1125.3,541.4,1116.6,543.2,1112.1,543.5z" />
			</g>
			<g>
				<path fill="#FF884D" d="M1181.9,462.9l-0.6-9.5c-1.7-8.4-3.7-10.7-6.4-10.7c-1.8,2.6-2.1,6.9-2.1,12.7c0,6.3,1.5,18.2,2.8,32.4
				c2.1-0.6,6.3-0.6,9-1.2l10.4-2c4.3,6.7,5.4,13.2,4.4,20.1c-13.8,2.9-14.1,2.3-22.1,4l0.3,4.4c0.3,6.3,0.8,12.4,1.2,18.7
				c0.8,11.7,1.5,20.9,2.6,27.1c0.3,1.7,1.4,7.1,1.5,8.7c-7.1,3.5-17,4.6-27.1,3.7c0-3.5-1.2-19.2-1.2-19.2l-1.1-13.2
				c-0.3-0.6-0.9-15-1.7-26.8c-2.5,0.2-9,0.6-10.9,0.9c-1.8-3.5-2.5-8.1-2.5-11.3c0-1.5-0.6-6-0.3-10.4l12.6-0.2l-1.2-18.4
				c-0.8-10-1.2-16.1-1.2-18.9c0-22.8,8-34,23.9-34c3.4,0,7.1,0.6,10.6,1.7c7.2,2.5,12.3,7.2,15.9,14.3c1.5,3.2,4.3,12.6,6.9,20.4
				l-3.2,2.3C1198.8,461.2,1192,462.6,1181.9,462.9z" />
			</g>
			<g>
				<path fill="#FF884D"
					d="M1221.8,564c-8.6,0-13.2-6.1-13.2-13.5c0-7.1,5.4-13.5,13.6-13.5c6.7,0,13,5.5,13,12.9
				C1235.3,556.8,1230.4,564,1221.8,564z M1214.6,519.6c0,0,4-39.7,3.7-43.2c-0.2-4,2.5-46.8,2.5-46.8l28.7,2.9
				c-0.8,6.7-3.1,33-3.5,38c-0.8,4.4-2,12.9-3.1,22.2l-3.7,29.1c0,0-7.7,1.1-13.5,0C1219.9,521.5,1214.6,519.6,1214.6,519.6z" />
			</g>
		</g>
		<g id="startbutton" class="pulse">
			<path fill="#8888BA" d="M1031.9,757.7H755.4c-26.9,0-48.7-21.8-48.7-48.7v-45.3c0-26.9,21.8-48.7,48.7-48.7h276.4
			c26.9,0,48.7,21.8,48.7,48.7v45.3C1080.5,735.9,1058.7,757.7,1031.9,757.7z" />
			<g>
				<path fill="#FFFFFF" d="M822.8,709L822.8,709c-1.4,3.1-3.7,5.7-6.9,8.2c-2.9,2.2-6.3,3.3-10.2,3.3c-4.1,0-7.7-1.1-11-3.5h0.1
				c-1.7-1.1-6.4-7.7-6.1-14.3c0-0.8,0.1-3.6,0.1-4.4c4.6-1.5,8.7-1.6,12.5-0.4l-0.1,4.4c-0.1,2.2,0,5,0.1,5.3
				c0.5,1.6,3.1,1.9,3.7,1.9c0.8,0.1,2.1-0.8,3.7-2.5c1.2-1.2,1.7-2.2,2.6-4c0.5-1.3,0.9-3.1,0.9-5.3c0-1.3-0.3-3.1-0.5-3.4
				c-1-1.3-3.1-1.8-6.1-2.3c-4.8-0.7-9.8-2.1-12.6-5.7c-1.7-2.2-2.4-4.2-2.7-6.2c-0.1-1.4-0.1-3.1-0.1-4.9v-1.2
				c0-4.9,0.5-11.2,4-15.3c3.4-3.8,8.1-5,13.2-4.7c6,0.5,10.1,2.1,12,4.4l-0.1-0.1c2,2.5,3.1,5.1,3.4,8.1v7.9l-12.4-0.1v-7.3
				c-0.1-0.6-0.1-1.2-0.2-1.3c-1.1-0.8-2.5-0.9-3.1-0.9c-1.1,0-2.1,0.6-3.1,1.8c-0.9,1-1.2,4.2-1.2,6.9c0,1.4,0.2,3.1,0.7,4.6
				c0.5,1.9,1.9,2.8,4,3.1c7.5,1.1,12.9,3.3,15.2,6.1c1.9,2.5,3.1,6,3.1,10.5C825.4,701.6,824.5,705.5,822.8,709z" />
				<path fill="#FFFFFF"
					d="M870.4,673.5l-7.1-0.8l-9.9-0.1c-0.4,3.4-0.1,10.1-0.2,15.3c-0.1,3.6,0.3,7.2,0.8,18.2l0.3,3.9
				c-2.4,1.6-6.9,1.9-13.9,1.5l-0.3-5.1l0.8-19.2l0.6-14.7c-3.1-0.2-6.1-0.2-9.8,0.1l-5.8,1c-0.4-2.2-0.4-5.7-0.4-6.9
				c0-0.4,0.6-4.2,1.1-5.9l4.7,0.6c4.7,0.1,8.4-0.1,16.8,0c6,0.1,15.8-0.6,15.8-0.6l6.6-0.4C870.9,662.3,870.8,670.4,870.4,673.5z" />
				<path fill="#FFFFFF" d="M906.9,712.8c-1.7,0-3.8-0.3-5.6-0.5c-0.4-1.3-1.8-6.3-2.4-8.6c-0.7-2.8-1.7-5.1-2.3-6.7
				c-2.5,0.1-8,0.2-12,0.2c-0.7,4.5-2.2,10.6-2.8,15c-5,0.2-8.5-0.3-11.8-1.8c0.5-3.9,2.2-10.6,2.6-13.7c-0.3,0-0.4-0.2-5.8-0.1
				c0-1.2-0.2-3.5,0.1-5.5c0.3-1.6,1.2-3.8,1.8-5c6,0.1,4.6,0,6.6,0c2.8-8.6,5.4-20,9-30l11.7-0.8c1.6,5.7,13.3,41.5,17.6,55.7
				C912.1,711.7,908.9,712.9,906.9,712.8z M893.6,685.7c-0.7-2.3-2.8-8.2-3.4-10.4c-0.7,3.5-2.5,6.8-3.3,10.7
				C888.5,685.9,892.1,685.9,893.6,685.7z" />
				<path fill="#FFFFFF" d="M936,716.6c-3.8-4.5-7.1-12.8-8-16.5c-1.2,6-2,13.2-2.2,16.2l-11.8-2.9c0.9-4.2,3.7-17,6.5-33.5
				c0.4-2.5,2-10.1,2.5-13.2l-5.7,1.3c-0.1-1.3-0.1-2.6-0.1-3.9c0-4,0.2-7.7,0.2-7.7c4.5-1,5.9-1,7.4-1l0.6-4.2l12.8-0.6l-1.2,4.5
				c9.8,0.8,15.1,6.9,15.1,14.9c0,6.3-2.8,11.9-7.1,15.9v-0.1c-2.5,2.5-5.5,4.1-9.3,4.9c1.9,5.2,4.3,10.4,7.4,14.6
				c3.6,4.8,8.1,8.3,13.3,11.4l-6,10.2C945.7,725.2,940.7,722.3,936,716.6z M939.2,670.1c0-2.9-1.6-4.4-4.2-4.5h-0.1
				c-0.9,5.1-2.2,11.6-2.8,14.5v0.1c1.1-0.5,2.6-1.3,3.8-2.4v0.1C937.3,676.5,939.2,674.4,939.2,670.1z" />
				<path fill="#FFFFFF"
					d="M996.5,673.5l-7.1-0.8l-9.9-0.1c-0.4,3.4-0.1,10.1-0.2,15.3c-0.1,3.6,0.3,7.2,0.8,18.2l0.3,3.9
				c-2.4,1.6-6.9,1.9-13.9,1.5l-0.3-5.1l0.8-19.2l0.6-14.7c-3.1-0.2-6.1-0.2-9.8,0.1l-5.8,1c-0.4-2.2-0.4-5.7-0.4-6.9
				c0-0.4,0.6-4.2,1.1-5.9l4.7,0.6c4.7,0.1,8.4-0.1,16.8,0c6,0.1,15.8-0.6,15.8-0.6l6.6-0.4C997,662.3,996.9,670.4,996.5,673.5z" />
			</g>
		</g>
		<g>
			<ellipse fill="#6DAD21" cx="1474.8" cy="967.9" rx="199.5" ry="37.1" />
			<path fill="#E57341" d="M1308.1,399c0,0,200.8,76.1,124.7,139.9C1361.9,598.6,1323.3,605.9,1308.1,399z" />
			<path fill="#B24E2B" d="M1385.6,436.6c-21.2,4.1-55.1,14.3-69.5,38.7c-3.2-21.3-5.8-46.6-8-76.3
			C1308.1,399,1348.1,414.1,1385.6,436.6z" />
			<path fill="#F9DED4"
				d="M1691.4,379.2c0,0,4.2,161.8-71.1,199.3c-75.4,37.5-68.7-50.8-68.7-50.8L1691.4,379.2z" />
			<path fill="#E57341" d="M1790.3,624.4c0,0-75-114.9-207.8-20.6c-27.2,19.3-23.3,187.4-31,232.7l-68.9-4.1l34.9,63.6
			c0,0,227.1,51.8,211.8-212.5C1729.2,630.3,1790.3,624.4,1790.3,624.4z" />
			<path fill="#F9DED4" d="M1729.2,683.5c0.5,8.2,0.7,16.1,0.7,23.7c-7.5,0-14.8-6.6-18.3-28.7c0,0-40.5,56.4-46.5-11.3
			c0,0-37.2,59.1-55.1-5.3c-9.4-33.9-15.2-53.4-18.6-64.2c127.2-83,198.8,26.7,198.8,26.7S1729.2,630.3,1729.2,683.5z" />
			<path fill="#CE623C" d="M1729.9,707.2c0.6,200.5-151.4,197-198.7,191.1c-5-3.6-8.6-8.1-10.5-13.6c0,0,174,46.1,158.8-184.5
			c13.8,3.9,32.2-21.6,32.2-21.6C1715.1,700.6,1722.4,707.1,1729.9,707.2z" />
			<path fill="#E57341" d="M1520.7,884.7c1.9,5.2,5.3,9.6,10,13.1c-6.4-0.6-10.8-1.3-12.5-1.7c-0.3-0.1-0.5-0.1-0.7-0.1h-0.1l0,0
			l-34.9-63.6l68.9,4.1c7.7-45.3,3.8-213.4,31-232.7c3-2.2,6-4.2,9-6.1c1.2,3.8,2.6,8.6,4.5,14.8c3.4,11.4,8,27.4,14.1,49.4
			c17.9,64.4,55.1,5.3,55.1,5.3c2,22.2,7.6,31,14.3,32.9C1694.7,930.7,1520.7,884.7,1520.7,884.7z" />
			<path fill="#FF884D" d="M1450.1,728.4c0,0-70.1-6.8-107.1,36.4c-9.1,14.6,2.8,51.8,2.8,51.8l0.3,21.6c0,0-15.9,10.6,4.6,29.2
			c18.6,6.6,45.2,0.7,45.2,0.7l3.3-64.4c0,0-7.1-2.8-6-14.6c0.2,0.1,12.3-11,14.3-18.3c0.3,0-41.2,95.7-12.8,141.6l-30.7,24
			c0,0-40.3-3.2-24.4,34c12.2,3.6,49.6,4.5,55.6,3.9c6-0.7,54.8-25.2,54.8-25.2s15.7-13-2-33.1c0.3-0.2,0-18.1,0-18.1s27,6,31.6,4.7
			l9.5,16c0,0-5.7,23.5,0,30c5.7,6.4,35.6,35.7,42.2,37s39.2-2,63.7-8c6.6-1.3,5.3-31.2-18.6-33.2c-10-0.7-58.4-47.8-54.4-161.4
			l21.9,4l-12,15.3c0,0-49.8,19.9-29.9,51.8c10.6,10.6,32.7,17.3,53.1,19.9c6-0.7,15.8-7.4,10.6-26.6c-0.7-5.3,7.3-25.9,7.3-25.9
			S1667.6,719.6,1450.1,728.4z" />
			<path fill="#B24E2B" d="M1345.7,816.6c0,0,37.2,2,51.8-13.9c0.1-0.2-10.5,20.3-12.1,67.1c-0.2,0.3-28.1,3.7-34.8-2.3
			c-20.6-18.6-4.6-29.2-4.6-29.2L1345.7,816.6z" />
			<path fill="#B24E2B" d="M1573.2,821.6c0,0-22.6,0-41.2-19.3c0,0-49.8,19.9-29.9,51.8c5.3,8.6,41.8,19.9,53.1,19.9
			c11.3,0,14.3-14.3,10.6-26.6C1565.9,847.4,1568.5,832.9,1573.2,821.6z" />
			<path fill="#FF884D" d="M1425.2,476.6c45.6-3,46.4,11.2,57.8,12.2c34.2,3,47.2,6.1,47.2,6.1s76.1-94.3,161.2-115.6
			c0,0-132.2,142.9-130.2,171.4c0.4,6-1.3-15.9,45.2-15.9c0,0-33.1,25.2-23.9,25.2c2,0,11.3-6.6,25.2-2.7c0,0-17.3,4.6-17.3,8.6
			c7.3,17.3,29.9,12.6,29.9,12.6c6,23.9,10.2,28.6,40.7,56.2c0,0-66.9,97.4-200.8,109.5c-54.8,6.1-103.4-41.1-100.4-42.6
			c17.7-8.8,123.2,13.7,187.1-80.6c0,0-31.9,76.1-171.9,82.1c-37.6,1.6-115.6-27.4-106.5-94.3c24.3-18.3,123.2-9.1,147.5-9.1
			c20.1,0-66.9,1.5-66.9,1.5s36.5-112.6,76.1-100.4c4.2,1.3-21.3-9.1-21.3-9.1c5.8-4.6,24.3-3,33.5,0
			C1442.5,493.5,1425.2,476.6,1425.2,476.6z" />
			<path fill="#B24E2B" d="M1450.1,949.1c0,0-48.9,24.5-54.9,25.2s-43.4-0.3-55.6-3.8c-15.9-37.2,24.4-34,24.4-34l30.6-24
			c7.8,3.5,23,6.8,53.7,3.9C1465.6,936.2,1450.1,949.1,1450.1,949.1z" />
			<path fill="#B24E2B" d="M1595.1,977.6c-24.6,6-57.1,9.3-63.7,8s-36.5-30.5-42.2-37c-5.7-6.4,0-30,0-30l-0.2-0.3
			c10.5,0.5,33.4,0.3,57.7-7.2c12.2,22.6,25.2,33.1,29.9,33.4C1600.4,946.4,1601.7,976.3,1595.1,977.6z" />
			<path fill="#5E2D1D" d="M1297.5,616.5c-13.1,39.4-50.2,7.6-44.1-7.6C1259.4,596.7,1302,602.8,1297.5,616.5z" />
			<path fill="#EAEAEA" d="M1512.3,599.1c0,21-17.8,28.1-42.7,28.1c-17.7,0-30.2-4.5-32.1-21c-1.8-15.8,0-63.1,39.2-63.1
			C1508.7,543,1512.3,578.8,1512.3,599.1z" />
			<path fill="#F4F4F4" d="M1356.9,593.3c0,7.3,0.1,4,31.2,4c6,0,31.7,4.6,33.2,0c3.5-10.4-3.3-51.1-28.9-54.2
			C1361.1,539.2,1356.9,564.1,1356.9,593.3z" />
			<g>
				<path fill="#191919" d="M1406.1,599c-7.3-0.6-15.1-1.7-18-1.7c-6.6,0-11.9,0.2-16,0.3c-1-3.3-0.4-7.4-0.4-11.9
				c0-10.4,8-18.9,17.8-18.9c4.6,0,8.8,1.9,11.9,4.9c0.8,0.8,1.6,1.7,2.3,2.7c0.3,0.5,0.7,1,1,1.5s0.6,1.1,0.8,1.6
				c1.1,2.5,1.8,5.3,1.8,8.2C1407.2,590.9,1407.9,595.6,1406.1,599z" />
				<path fill="#7DB545" d="M1412.6,589c0-1.1-0.1-2.2-0.1-3.3c0-13.4-10.4-24.2-23.1-24.2s-23.1,10.9-23.1,24.2c0,1.1,0,2.3-0.1,3.5
				c-0.1,2.8-0.2,5.8,0.4,8.7c1.6-0.1,3.3-0.2,5.4-0.2c-1-3.3-0.4-7.4-0.4-11.9c0-10.4,8-18.9,17.8-18.9c4.6,0,8.8,1.9,11.9,4.9
				c0.8,0.8,1.6,1.7,2.3,2.7c0.3,0.5,0.7,1,1,1.5s0.6,1.1,0.8,1.6c1.1,2.5,1.8,5.3,1.8,8.2c0,5.2,0.7,9.9-1.1,13.3
				c1.9,0.2,3.8,0.3,5.6,0.3C1412.8,596,1412.7,592.3,1412.6,589z" />
			</g>
			<g>
				<ellipse fill="#191919" cx="1475.1" cy="591.2" rx="21.1" ry="22" />
				<path fill="#7DB545" d="M1475.1,569.3c11.7,0,21.1,9.8,21.1,22c0,12.1,3.5,22-21.1,22c-24.9,0-21.1-9.8-21.1-22
				C1454,579.1,1463.5,569.3,1475.1,569.3 M1475.1,562.6c-15.3,0-27.7,12.8-27.7,28.6c0,1.3-0.1,2.7-0.1,4c-0.2,6-0.5,12.8,4.5,18
				c4.4,4.6,11.6,6.6,23.3,6.6c11.6,0,18.8-2,23.2-6.6c5.1-5.3,4.8-12.1,4.6-18.2c0-1.3-0.1-2.6-0.1-3.8
				C1502.9,575.5,1490.4,562.6,1475.1,562.6L1475.1,562.6z" />
			</g>

			<ellipse transform="matrix(0.8134 -0.5817 0.5817 0.8134 -57.8341 971.4306)" fill="#FFFFFF" cx="1485.3"
				cy="575.9" rx="11.1" ry="8.8" />

			<ellipse transform="matrix(0.4903 -0.8716 0.8716 0.4903 306.1601 1589.4061)" fill="#F9DED4" cx="1511.9"
				cy="533" rx="6.9" ry="13.5" />
			<ellipse transform="matrix(0.866 -0.5 0.5 0.866 -84.099 750.2583)" fill="#F9DED4" cx="1357.9" cy="532.1"
				rx="11.5" ry="6" />
			<path fill="#E57341" d="M1420.6,603.8c-5.7-0.8-11.6-1.5-17.4-2.1s-11.7-1.2-17.5-1.7s-11.7-1-17.6-1.4s-11.7-0.8-17.6-1.1
			c5.9-0.2,11.8-0.4,17.6-0.5c5.9-0.1,11.8-0.2,17.7-0.3c5.9,0,11.8,0,17.7,0c5.9,0.1,11.8,0.2,17.8,0.4c1.8,0.1,3.3,1.6,3.2,3.5
			c-0.1,1.8-1.6,3.3-3.5,3.2C1420.8,603.8,1420.7,603.8,1420.6,603.8L1420.6,603.8z" />
			<path fill="#89472E" d="M1460.6,471.3c-7.2-1.4-19.3-0.7-16.6,2c5.2,5.2,34.2,14.9,34.2,14.9c34.2,22.9,53.4,25.8,70.7,14.3
			c2-1.3,8-4.6,7.6-8.3c0-3.1-32.4-1.7-32.4-1.7C1526,492.3,1477.9,474.6,1460.6,471.3z" />
			<path fill="#89472E" d="M1500.9,423.6c0,0,29.2,22.9,32,40.6c0,0,12.7-5.9,17.3-3.2c4.6,2.7,3,11.9,0,29.8s-82.9-17.7-82.9-17.7
			S1479.4,434.5,1500.9,423.6z" />
			<path fill="#F9DED4" d="M1450.1,728.4c37.2-6.3,49.4,18.8,41.4,78.5c-3.7,27.8,23.2,95.6-30.5,87
			C1356.7,876.7,1425.8,733.9,1450.1,728.4z" />

			<ellipse transform="matrix(0.8134 -0.5817 0.5817 0.8134 -72.0287 919.1531)" fill="#FFFFFF" cx="1396.7"
				cy="571.8" rx="9.8" ry="7.8" />
			<path fill="none" d="M1531.2,898.2c-6.7-0.8-11.3-1.7-13.1-2.1c1.7,0.3,6.1,1.1,12.5,1.7C1530.9,897.9,1531.1,898.1,1531.2,898.2z
			" />
			<path fill="#B24E2B" d="M1691.4,379.2c0,0-29.3,31.7-60.1,68.2c-14.4-10-26.7-14.4-36.9-15.5
			C1621.9,409.7,1655.9,388.1,1691.4,379.2z" />
			<path fill="#F9DED4" d="M1612.3,644.3c-41.3,46.3-93.4,97.6-166.7,100.4c-45.3-2.3-83.2-36.6-85.8-42.3c-1.1-0.2-2.3-0.3-3.4-0.5
			c56.9,4.3,137.6-6,190.5-82.6C1546.9,619.4,1556.6,643,1612.3,644.3z" />
			<path fill="#4C280F" d="M1448.1,707.3c0.1,0,0.3-0.1,0.4-0.1s0.3,0,0.4,0c0.3,0,0.5,0,0.8,0c0.5,0,1.1,0.1,1.6,0.2
			c1,0.1,2,0.3,3,0.5c1.9,0.4,3.8,0.8,5.6,1.2c3.6,0.8,7,1.4,9.9,1.4s5.3-0.6,7.8-2.3s4.7-4.3,7.3-7c0.1,0.9,0.3,1.7,0.2,2.6
			c-0.1,0.9-0.1,1.8-0.3,2.6l-0.3,1.3c-0.1,0.4-0.3,0.9-0.5,1.3c-0.1,0.2-0.2,0.4-0.3,0.7l-0.4,0.6c-0.3,0.4-0.5,0.9-0.8,1.3
			c-1.2,1.7-3.1,3.1-5.4,4.1s-4.8,1.5-7.3,1.4c-2.4,0-4.7-0.4-6.8-1c-2.1-0.6-4-1.4-5.7-2.3c-1.8-0.9-3.4-2-4.9-3.1
			c-0.7-0.6-1.5-1.2-2.2-1.8l-1-0.9C1448.9,707.8,1448.5,707.5,1448.1,707.3z" />
			<path fill="#89472E" d="M1550.2,490.8c0,0.2-0.1,0.4-0.1,0.5c-26.6-16.4-61.8-30.5-75.6-35.8c5.7-11.7,14.7-26,26.4-32
			c0,0,29.2,22.9,32,40.6c0,0,12.7-5.9,17.3-3.2C1554.7,463.7,1553.1,472.9,1550.2,490.8z" />
			<path fill="#3F221B"
				d="M1550,491.3c-4.5,16.6-82.8-18.2-82.8-18.2s2.5-7.9,7.2-17.5C1488.2,460.8,1523.4,474.9,1550,491.3z" />
		</g>
		<g>
			<ellipse fill="#71E2D0" cx="127.5" cy="127.7" rx="92.2" ry="92.2" />
			<path fill="#39B79F" d="M35.3,127.7c0,50.9,41.3,92.2,92.2,92.2V35.4C76.6,35.4,35.3,76.7,35.3,127.7z" />
			<path fill="#FFFFFF" d="M127.7,177.5L127.7,177.5c-25.1,0-44.9-24-28.3-50.9c20-29.5,27.4-44.5,28.2-46.1v-0.1c0,0,0,0,0,0.1
			c0.8,1.7,8.2,16.6,28.2,46.1C172.5,153.6,152.7,177.5,127.7,177.5z" />
			<path fill="#71E2D0" d="M150.8,139.5c-0.9,28.4-28.9,25.4-28.9,25.4C132.1,174.6,161.1,167.8,150.8,139.5z" />
		</g>
		<g>
			<path fill="#FF884D" d="M212.4,955.9c0,49-39.7,88.7-88.7,88.7c-48.6,0-88-39-88.7-87.4c0-0.4,0-0.8,0-1.1c0-0.4,0-0.8,0-1.1
			c0.7-48.1,39.6-87,87.7-87.7c0.4,0,0.8,0,1.1,0c0.4,0,0.8,0,1.1,0C173.4,867.9,212.4,907.3,212.4,955.9z" />
			<path fill="#E57341" d="M35,956.2c0,49.1,39.8,88.9,89,89v-178C74.8,867.3,35,907.1,35,956.2z" />
			<path fill="#FFFFFF" d="M124.4,904.9c4.8,3.3,8.5,7.4,11.6,12c5.8,8.6,8.7,18.2,10.2,28.3c0.8,5.2,1.5,10.4,2.4,15.6
			c0.3,1.5,0.8,3,1.4,4.3c1.3,2.8,3.3,3.6,6.3,2.7c1-0.3,2-0.8,3.5-1.4c-0.4,2.9-0.6,5.6-1.2,8.2c-3.9,16.2-18.8,27.6-35.1,27
			c-17.3-0.7-31.2-12.9-34-29.8c-0.9-5.3-0.2-10.5,1.7-15.5c3.8-9.9,9.3-18.8,15.2-27.6c0-0.1,0.2-0.1,0.3-0.1
			c1.1,3,2.1,6.1,3.2,9.1c0.6,1.5,1.3,2.9,2.1,4.2c2.2,3.4,4.3,3.3,5.9-0.4c1.2-2.7,2.2-5.5,2.6-8.4c1.2-7.4,2.2-14.9,3.2-22.3
			C124,909,124.1,907.1,124.4,904.9z M124.1,947.8c-1.3,1.4-2.3,2.6-3.4,3.7c-5.3,5.4-7.7,11.7-6.5,19.3c0.2,1.2,0.1,2.5,0,3.7
			c-0.3,2.9-1.7,4.1-4.7,3.8c-0.9-0.1-1.8-0.3-3.1-0.5c0.3,2,0.5,3.7,1,5.4c2.5,8.8,11.3,14.4,19.9,12.7c9-1.8,15.6-10.6,14.3-19.6
			c-0.9-6.6-4.9-11.9-8.5-17.3c-1.1,1.5-2,2.8-3.1,4c-1.5,1.6-2.8,1.3-3.7-0.6c-0.7-1.5-1.1-3.2-1.4-4.9
			C124.7,954.4,124.5,951.3,124.1,947.8z" />
			<path fill="#FF884D" d="M124.1,946.7c0.3,3.5,0.5,6.7,1,9.8c0.2,1.7,0.7,3.3,1.4,4.9c0.8,2,2.2,2.2,3.7,0.6c1.1-1.2,2-2.6,3.1-4
			c3.6,5.4,7.6,10.6,8.5,17.3c1.3,9-5.4,17.8-14.3,19.6c-8.6,1.7-17.5-3.9-19.9-12.7c-0.5-1.7-0.6-3.4-1-5.4
			c1.3,0.2,2.2,0.4,3.1,0.5c2.9,0.3,4.4-0.9,4.7-3.8c0.1-1.2,0.2-2.5,0-3.7c-1.2-7.6,1.2-13.9,6.5-19.3
			C121.8,949.3,122.9,948.1,124.1,946.7z" />
		</g>
		<g>
			<circle fill="#FFCF36" cx="1796.2" cy="124.8" r="88.8" />
			<path fill="#EDAF14" d="M1885,124.8c0,49-39.7,88.7-88.8,88.8V36.1C1845.3,36.2,1885,75.9,1885,124.8z" />
			<path fill="#FFFFFF" d="M1781.6,130.4c1.4-16,2.7-31.8,4.1-47.9c0-0.2,0.2-0.4,0.5-0.4c9.3,1.2,18.4,2.3,27.8,3.5
			c0.2,0,0.4,0.3,0.3,0.5c-2.5,8.7-5,17.2-7.5,25.9c-0.1,0.2,0.1,0.5,0.3,0.5c4.1,1,8,2,12.1,3.1c0.2,0.1,0.4,0.3,0.3,0.6
			c-9,20-18,39.9-27,59.7c-0.4-0.1-0.3-0.1-0.8-0.2c1-14.2,1.9-28.4,2.9-42.7c0-0.2-0.1-0.4-0.3-0.4c-4.2-0.6-8.3-1.2-12.4-1.9
			C1781.8,130.8,1781.6,130.6,1781.6,130.4z" />
		</g>
		<g>
			<ellipse fill="#8CC94D" cx="1791.6" cy="952.1" rx="92.6" ry="92.7" />
			<path fill="#6DAD21"
				d="M1884.5,952.2c0,51.2-41.5,92.7-92.8,92.8V859.4C1843,859.5,1884.5,901,1884.5,952.2z" />
			<g>
				<path fill="#FFFFFF" d="M1791.2,903.4c-16.3,0-29.5,13.2-29.5,29.5c0,5.8,1.7,11.2,4.6,15.8c2.8,5.2,10.6,13.4,12.2,28.4
				c0,0.1,0.1,0.2,0.3,0.2c2.6-0.5,25.7-4.6,25.7-4.5c2.9-10.5,4.4-12.7,10.7-22.7c3.5-4.8,5.5-10.7,5.5-17.1
				C1820.7,916.6,1807.5,903.4,1791.2,903.4z" />
				<path fill="#FFFFFF" d="M1802.1,983.3l-20.3,3.5c-1.4,0.3-2.8-0.7-3.1-2.2l0,0c-0.3-1.4,0.7-2.8,2.2-3.1l20.3-3.5
				c1.4-0.3,2.8,0.7,3.1,2.2l0,0C1804.5,981.6,1803.6,983,1802.1,983.3z" />
				<path fill="#FFFFFF" d="M1783.7,995.5c0,0,0.6,5.8,9.1,4.6s8.7-7.5,8.7-7.5L1783.7,995.5z" />
				<path fill="#FFFFFF" d="M1802.8,988.3l-20.2,3.5c-1.4,0.3-2.8-0.7-3.1-2.2l0,0c-0.3-1.4,0.7-2.8,2.2-3.1l20.2-3.5
				c1.4-0.3,2.8,0.7,3.1,2.2l0,0C1805.2,986.7,1804.3,988.1,1802.8,988.3z" />
			</g>
			<path fill="#8CC94D"
				d="M1771.7,940.6c0.9-28.5,29.1-25.6,29.1-25.6C1790.5,905.3,1761.3,912.1,1771.7,940.6z" />
		</g>
	</g>

</svg>