<?xml version="1.0" encoding="utf-8"?>
<!-- Generator: Adobe Illustrator 24.3.0, SVG Export Plug-In . SVG Version: 6.00 Build 0)  -->
<svg version="1.1" id="Layer_1" xmlns="http://www.w3.org/2000/svg" xmlns:xlink="http://www.w3.org/1999/xlink" x="0px"
	y="0px" width="1920px" height="1080px" viewBox="0 0 1920 1080" enable-background="new 0 0 1920 1080"
	xml:space="preserve">
	<rect fill="#DDCDBA" width="1920" height="705" />
	<rect x="0" y="657" fill="#686058" width="1920" height="423" />
	<rect x="266" y="54.5" fill="#E1E3E2" width="1450" height="561.1" />
	<rect x="285.9" y="68.1" fill="#EEEEEC" width="695.2" height="533.8" />
	<rect x="297" y="85.5" fill="#C5E2E1" width="672.9" height="499.1" />
	<rect x="1000.9" y="68.1" fill="#EEEEEC" width="695.2" height="533.8" />
	<rect x="1012.1" y="85.5" fill="#C5E2E1" width="672.9" height="499.1" />
	<rect x="0" y="653" fill="#EEEEEC" width="1920" height="19" />
	<rect y="672" fill="#E1E3E2" width="1920" height="5" />
	<rect y="648" fill="#E1E3E2" width="1920" height="5" />
	<rect x="0" y="642" fill="#EEEEEC" width="1920" height="6" />
	<path fill="#EEEEEC" d="M242.8,47.6h-14c-0.4,0-0.8-0.4-0.8-0.8V24.7c0-0.4,0.4-0.8,0.8-0.8h14V47.6z" />
	<path fill="#EEEEEC" d="M1738.2,47.6h14c0.4,0,0.8-0.4,0.8-0.8V24.7c0-0.4-0.4-0.8-0.8-0.8h-14V47.6z" />
	<rect x="266" y="54.5" display="none" fill="#E57341" width="1450" height="26.7" />
	<rect x="243" y="15" fill="#FF884D" width="1495" height="41.5" />
	<!-- <g id="curtain_x5F_roll_x5F_down">
	<path fill="#EEEEEC" d="M257,87.3h-7.4c-0.4,0-0.8-0.4-0.8-0.8V70.4c0-0.4,0.4-0.8,0.8-0.8h7.4V87.3z"/>
	<path fill="#34464A" d="M991.1,150c-10.1,0-18.3-8.2-18.3-18.3s8.2-18.3,18.3-18.3s18.3,8.2,18.3,18.3S1001.2,150,991.1,150z
		 M991.1,117.1c-8.1,0-14.6,6.6-14.6,14.6s6.6,14.6,14.6,14.6s14.6-6.6,14.6-14.6S999.2,117.1,991.1,117.1z"/>
	<rect x="989.3" y="96.2" fill="#34464A" width="3.7" height="19"/>
	<rect x="266" y="70.6" fill="#FF884D" width="1450" height="15.4"/>
	<rect x="257" y="57" fill="#E57341" width="1467" height="39.2"/>
	<path fill="#EEEEEC" d="M1724,87.3h7.4c0.4,0,0.8-0.4,0.8-0.8V70.4c0-0.4-0.4-0.8-0.8-0.8h-7.4V87.3z"/>
</g> -->
	<!-- <g>
		<polygon fill="#A0A0A0" points="1299.4,847.4 621,847.4 715.6,678 1206.4,678 	" />
		<path fill="#8E8E8E"
			d="M1291.8,871H628.6c-4.2,0-7.6-3.4-7.6-7.6v-16.1h678.4v16.1C1299.4,867.6,1296,871,1291.8,871z" />
		<path fill="#8E8E8E" d="M1217.7,833.2H790.3c-4.4,0-7.3-4.5-5.5-8.5L848.7,685l312,0.8l62.4,138.9
		C1224.9,828.7,1222,833.2,1217.7,833.2z" />
		<path fill="#8E8E8E" d="M773.9,791.4H673c-1.7,0-3.2-1.4-3.2-3.2v-1.6c0-1.7,1.4-3.2,3.2-3.2h100.8c1.7,0,3.2,1.4,3.2,3.2v1.6
		C777,790,775.6,791.4,773.9,791.4z" />
		<path fill="#8E8E8E" d="M764.4,811.9h-104c-1.7,0-3.2-1.4-3.2-3.2v-1.6c0-1.7,1.4-3.2,3.2-3.2h104c1.7,0,3.2,1.4,3.2,3.2v1.6
		C767.6,810.5,766.1,811.9,764.4,811.9z" />
		<path fill="#8E8E8E" d="M807.7,708.7h-90.6c-1.7,0-3.2-1.4-3.2-3.2V704c0-1.7,1.4-3.2,3.2-3.2h90.6c1.7,0,3.2,1.4,3.2,3.2v1.6
		C810.9,707.3,809.5,708.7,807.7,708.7z" />
		<path fill="#8E8E8E" d="M783.3,770.1h-98.5c-1.7,0-3.2-1.4-3.2-3.2v-1.6c0-1.7,1.4-3.2,3.2-3.2h98.5c1.7,0,3.2,1.4,3.2,3.2v1.6
		C786.5,768.7,785,770.1,783.3,770.1z" />
		<path fill="#8E8E8E" d="M792,748.9h-95.3c-1.7,0-3.2-1.4-3.2-3.2v-1.6c0-1.7,1.4-3.2,3.2-3.2H792c1.7,0,3.2,1.4,3.2,3.2v1.6
		C795.1,747.4,793.7,748.9,792,748.9z" />
		<path fill="#8E8E8E" d="M800.6,728.4h-93c-1.7,0-3.2-1.4-3.2-3.2v-1.6c0-1.7,1.4-3.2,3.2-3.2h93c1.7,0,3.2,1.4,3.2,3.2v1.6
		C803.8,727,802.4,728.4,800.6,728.4z" />
		<path fill="#C1C1C1" d="M824,595.7h-24.9v-79.2c-0.2-4.9-1.3-46.5,24.4-74.3c14.4-15.6,34.2-23.7,58.6-24.2c20.2-0.3,37,6,50.3,19
		c27.9,27.4,28.3,74.7,28.3,76.7h-24.9h12.4l-12.4,0c0-0.4-0.4-39-20.9-59c-8.4-8.2-19-12.1-32.3-11.8c-17.7,0.3-31.1,5.6-40.9,16.2
		c-19.3,20.9-17.8,56-17.8,56.4l0,0.7V595.7z" />
		<path fill="#C1C1C1"
			d="M930.8,533.6h34.9c0.6,0,1-0.4,1-1v-18.9h-36.9v18.9C929.8,533.1,930.3,533.6,930.8,533.6z" />
		<path fill="#AFAFAF" d="M732.3,628c5,2.5,57.2,54.7,57.2,54.7v-57.8l-49.7-6.9L732.3,628z" />
		<g>
			<path fill="#AFAFAF" d="M890.2,628c-5,2.5-57.2,54.7-57.2,54.7v-57.8l49.7-6.9L890.2,628z" />
		</g>
		<path fill="#C1C1C1"
			d="M812.9,694.5h-3.1c-11.8,0-21.4-9.6-21.4-21.4v-78.2h45.8v78.2C834.2,684.9,824.7,694.5,812.9,694.5z" />
		<path fill="#C1C1C1" d="M723.6,660.3l-12.4-5.5c-1-0.4-1.4-1.5-1-2.5l29.3-65.7c0.4-1,1.5-1.4,2.5-1l12.4,5.5c1,0.4,1.4,1.5,1,2.5
		l-29.3,65.7C725.6,660.3,724.5,660.7,723.6,660.3z" />
		<path fill="#C1C1C1" d="M909.2,654.3l-12.5,5.4c-1,0.4-2.1,0-2.5-1l-28.4-66.1c-0.4-1,0-2.1,1-2.5l12.5-5.4c1-0.4,2.1,0,2.5,1
		l28.4,66.1C910.6,652.8,910.2,653.9,909.2,654.3z" />
	</g> -->
</svg>