<?xml version="1.0" encoding="utf-8"?>
<!-- Generator: Adobe Illustrator 24.3.0, SVG Export Plug-In . SVG Version: 6.00 Build 0)  -->
<svg version="1.1" id="Layer_1" xmlns="http://www.w3.org/2000/svg" xmlns:xlink="http://www.w3.org/1999/xlink" x="0px" y="0px"
	 width="672.9px" height="499.1px" viewBox="0 0 672.9 499.1" enable-background="new 0 0 672.9 499.1" xml:space="preserve">
<rect fill="#C5E2E1" width="672.9" height="499.1"/>
<g>
	<linearGradient id="SVGID_2_" gradientUnits="userSpaceOnUse" x1="375.159" y1="319.7998" x2="375.159" y2="469.4633">
		<stop  offset="6.805650e-03" style="stop-color:#FF884D"/>
		<stop  offset="9.352650e-02" style="stop-color:#FF9B6A"/>
		<stop  offset="0.2471" style="stop-color:#FFBA97"/>
		<stop  offset="0.4019" style="stop-color:#FFD3BD"/>
		<stop  offset="0.5552" style="stop-color:#FFE6DA"/>
		<stop  offset="0.7069" style="stop-color:#FFF4EE"/>
		<stop  offset="0.8561" style="stop-color:#FFFCFB"/>
		<stop  offset="1" style="stop-color:#FFFFFF"/>
	</linearGradient>
	<path fill="url(#SVGID_2_)" d="M499.3,474.8H251c-3.1,0-5.6-2.5-5.6-5.6V320.5c0-3.1,2.5-5.6,5.6-5.6h248.3c3.1,0,5.6,2.5,5.6,5.6
		v148.7C504.9,472.3,502.4,474.8,499.3,474.8z"/>
	<g>
		<g>
			<linearGradient id="SVGID_4_" gradientUnits="userSpaceOnUse" x1="374.9591" y1="316.518" x2="374.9591" y2="473.5756">
				<stop  offset="7.203521e-03" style="stop-color:#E57341"/>
				<stop  offset="9.857299e-02" style="stop-color:#E68960"/>
				<stop  offset="0.2411" style="stop-color:#E7A68A"/>
				<stop  offset="0.3868" style="stop-color:#E8BEAC"/>
				<stop  offset="0.5342" style="stop-color:#E8D1C7"/>
				<stop  offset="0.6839" style="stop-color:#E9DEDA"/>
				<stop  offset="0.8373" style="stop-color:#E9E6E5"/>
				<stop  offset="1" style="stop-color:#E9E9E9"/>
			</linearGradient>
			<path fill="url(#SVGID_4_)" d="M495.6,318.5c3.1,0,5.6,2.5,5.6,5.6V466c0,3.1-2.5,5.6-5.6,5.6H254.3c-3.1,0-5.6-2.5-5.6-5.6
				V324.1c0-3.1,2.5-5.6,5.6-5.6H495.6 M495.6,316.5H254.3c-4.2,0-7.6,3.4-7.6,7.6V466c0,4.2,3.4,7.6,7.6,7.6h241.4
				c4.2,0,7.6-3.4,7.6-7.6V324.1C503.3,319.9,499.8,316.5,495.6,316.5L495.6,316.5z"/>
		</g>
	</g>
	<g>
		<path fill="#E9E9E9" d="M258.9,457.7h-3.1c-1,0-1.7-0.8-1.7-1.7V332.1c0-1,0.8-1.7,1.7-1.7h3.1c1,0,1.7,0.8,1.7,1.7V456
			C260.6,456.9,259.9,457.7,258.9,457.7z"/>
		<path fill="#F6F6F6" d="M260.6,457.7h-4.9v-124c0-1,0.8-1.7,1.7-1.7h3.2V457.7z"/>
		<path fill="#E9E9E9" d="M268.7,457.7h-3.1c-1,0-1.7-0.8-1.7-1.7V332.1c0-1,0.8-1.7,1.7-1.7h3.1c1,0,1.7,0.8,1.7,1.7V456
			C270.4,456.9,269.6,457.7,268.7,457.7z"/>
		<path fill="#F6F6F6" d="M270.4,457.7h-4.9v-124c0-1,0.8-1.7,1.7-1.7h3.2V457.7z"/>
		<path fill="#E9E9E9" d="M278.5,457.7h-3.1c-1,0-1.7-0.8-1.7-1.7V332.1c0-1,0.8-1.7,1.7-1.7h3.1c1,0,1.7,0.8,1.7,1.7V456
			C280.2,456.9,279.4,457.7,278.5,457.7z"/>
		<path fill="#F6F6F6" d="M280.2,457.7h-4.9v-124c0-1,0.8-1.7,1.7-1.7h3.2V457.7z"/>
		<path fill="#E9E9E9" d="M288.3,457.7h-3.1c-1,0-1.7-0.8-1.7-1.7V332.1c0-1,0.8-1.7,1.7-1.7h3.1c1,0,1.7,0.8,1.7,1.7V456
			C290,456.9,289.2,457.7,288.3,457.7z"/>
		<path fill="#F6F6F6" d="M290,457.7h-4.9v-124c0-1,0.8-1.7,1.7-1.7h3.2V457.7z"/>
		<path fill="#E9E9E9" d="M298.1,457.7H295c-1,0-1.7-0.8-1.7-1.7V332.1c0-1,0.8-1.7,1.7-1.7h3.1c1,0,1.7,0.8,1.7,1.7V456
			C299.8,456.9,299,457.7,298.1,457.7z"/>
		<path fill="#F6F6F6" d="M299.8,457.7h-4.9v-124c0-1,0.8-1.7,1.7-1.7h3.2V457.7z"/>
		<path fill="#E9E9E9" d="M307.9,457.7h-3.1c-1,0-1.7-0.8-1.7-1.7V332.1c0-1,0.8-1.7,1.7-1.7h3.1c1,0,1.7,0.8,1.7,1.7V456
			C309.6,456.9,308.8,457.7,307.9,457.7z"/>
		<path fill="#F6F6F6" d="M309.6,457.7h-4.9v-124c0-1,0.8-1.7,1.7-1.7h3.2V457.7z"/>
		<path fill="#E9E9E9" d="M317.7,457.7h-3.1c-1,0-1.7-0.8-1.7-1.7V332.1c0-1,0.8-1.7,1.7-1.7h3.1c1,0,1.7,0.8,1.7,1.7V456
			C319.4,456.9,318.6,457.7,317.7,457.7z"/>
		<path fill="#F6F6F6" d="M319.4,457.7h-4.9v-124c0-1,0.8-1.7,1.7-1.7h3.2V457.7z"/>
		<path fill="#E9E9E9" d="M327.5,457.7h-3.1c-1,0-1.7-0.8-1.7-1.7V332.1c0-1,0.8-1.7,1.7-1.7h3.1c1,0,1.7,0.8,1.7,1.7V456
			C329.2,456.9,328.4,457.7,327.5,457.7z"/>
		<path fill="#F6F6F6" d="M329.2,457.7h-4.9v-124c0-1,0.8-1.7,1.7-1.7h3.2V457.7z"/>
		<path fill="#E9E9E9" d="M337.2,457.7h-3.1c-1,0-1.7-0.8-1.7-1.7V332.1c0-1,0.8-1.7,1.7-1.7h3.1c1,0,1.7,0.8,1.7,1.7V456
			C339,456.9,338.2,457.7,337.2,457.7z"/>
		<path fill="#F6F6F6" d="M339,457.7h-4.9v-124c0-1,0.8-1.7,1.7-1.7h3.2V457.7z"/>
		<path fill="#E9E9E9" d="M347,457.7H344c-1,0-1.7-0.8-1.7-1.7V332.1c0-1,0.8-1.7,1.7-1.7h3.1c1,0,1.7,0.8,1.7,1.7V456
			C348.8,456.9,348,457.7,347,457.7z"/>
		<path fill="#F6F6F6" d="M348.8,457.7h-4.9v-124c0-1,0.8-1.7,1.7-1.7h3.2V457.7z"/>
		<path fill="#E9E9E9" d="M356.8,457.7h-3.1c-1,0-1.7-0.8-1.7-1.7V332.1c0-1,0.8-1.7,1.7-1.7h3.1c1,0,1.7,0.8,1.7,1.7V456
			C358.6,456.9,357.8,457.7,356.8,457.7z"/>
		<path fill="#F6F6F6" d="M358.6,457.7h-4.9v-124c0-1,0.8-1.7,1.7-1.7h3.2V457.7z"/>
		<path fill="#E9E9E9" d="M366.6,457.7h-3.1c-1,0-1.7-0.8-1.7-1.7V332.1c0-1,0.8-1.7,1.7-1.7h3.1c1,0,1.7,0.8,1.7,1.7V456
			C368.4,456.9,367.6,457.7,366.6,457.7z"/>
		<path fill="#F6F6F6" d="M368.4,457.7h-4.9v-124c0-1,0.8-1.7,1.7-1.7h3.2V457.7z"/>
		<path fill="#E9E9E9" d="M376.4,457.7h-3.1c-1,0-1.7-0.8-1.7-1.7V332.1c0-1,0.8-1.7,1.7-1.7h3.1c1,0,1.7,0.8,1.7,1.7V456
			C378.2,456.9,377.4,457.7,376.4,457.7z"/>
		<path fill="#F6F6F6" d="M378.2,457.7h-4.9v-124c0-1,0.8-1.7,1.7-1.7h3.2V457.7z"/>
		<path fill="#E9E9E9" d="M386.2,457.7h-3.1c-1,0-1.7-0.8-1.7-1.7V332.1c0-1,0.8-1.7,1.7-1.7h3.1c1,0,1.7,0.8,1.7,1.7V456
			C388,456.9,387.2,457.7,386.2,457.7z"/>
		<path fill="#F6F6F6" d="M388,457.7h-4.9v-124c0-1,0.8-1.7,1.7-1.7h3.2V457.7z"/>
		<path fill="#E9E9E9" d="M396,457.7H393c-1,0-1.7-0.8-1.7-1.7V332.1c0-1,0.8-1.7,1.7-1.7h3.1c1,0,1.7,0.8,1.7,1.7V456
			C397.7,456.9,397,457.7,396,457.7z"/>
		<path fill="#F6F6F6" d="M397.7,457.7h-4.9l0-124c0-1,0.8-1.7,1.7-1.7h3.2V457.7z"/>
		<path fill="#E9E9E9" d="M405.8,457.7h-3.1c-1,0-1.7-0.8-1.7-1.7V332.1c0-1,0.8-1.7,1.7-1.7h3.1c1,0,1.7,0.8,1.7,1.7V456
			C407.5,456.9,406.8,457.7,405.8,457.7z"/>
		<path fill="#F6F6F6" d="M407.5,457.7h-4.9v-124c0-1,0.8-1.7,1.7-1.7h3.2V457.7z"/>
		<path fill="#E9E9E9" d="M415.6,457.7h-3.1c-1,0-1.7-0.8-1.7-1.7V332.1c0-1,0.8-1.7,1.7-1.7h3.1c1,0,1.7,0.8,1.7,1.7V456
			C417.3,456.9,416.6,457.7,415.6,457.7z"/>
		<path fill="#F6F6F6" d="M417.3,457.7h-4.9v-124c0-1,0.8-1.7,1.7-1.7h3.2V457.7z"/>
		<path fill="#E9E9E9" d="M425.4,457.7h-3.1c-1,0-1.7-0.8-1.7-1.7V332.1c0-1,0.8-1.7,1.7-1.7h3.1c1,0,1.7,0.8,1.7,1.7V456
			C427.1,456.9,426.3,457.7,425.4,457.7z"/>
		<path fill="#F6F6F6" d="M427.1,457.7h-4.9v-124c0-1,0.8-1.7,1.7-1.7h3.2V457.7z"/>
		<path fill="#E9E9E9" d="M435.2,457.7h-3.1c-1,0-1.7-0.8-1.7-1.7V332.1c0-1,0.8-1.7,1.7-1.7h3.1c1,0,1.7,0.8,1.7,1.7V456
			C436.9,456.9,436.1,457.7,435.2,457.7z"/>
		<path fill="#F6F6F6" d="M436.9,457.7H432v-124c0-1,0.8-1.7,1.7-1.7h3.2V457.7z"/>
		<path fill="#E9E9E9" d="M445,457.7h-3.1c-1,0-1.7-0.8-1.7-1.7V332.1c0-1,0.8-1.7,1.7-1.7h3.1c1,0,1.7,0.8,1.7,1.7V456
			C446.7,456.9,445.9,457.7,445,457.7z"/>
		<path fill="#F6F6F6" d="M446.7,457.7h-4.9v-124c0-1,0.8-1.7,1.7-1.7h3.2V457.7z"/>
		<path fill="#E9E9E9" d="M454.8,457.7h-3.1c-1,0-1.7-0.8-1.7-1.7V332.1c0-1,0.8-1.7,1.7-1.7h3.1c1,0,1.7,0.8,1.7,1.7V456
			C456.5,456.9,455.7,457.7,454.8,457.7z"/>
		<path fill="#F6F6F6" d="M456.5,457.7h-4.9v-124c0-1,0.8-1.7,1.7-1.7h3.2V457.7z"/>
		<path fill="#E9E9E9" d="M464.6,457.7h-3.1c-1,0-1.7-0.8-1.7-1.7V332.1c0-1,0.8-1.7,1.7-1.7h3.1c1,0,1.7,0.8,1.7,1.7V456
			C466.3,456.9,465.5,457.7,464.6,457.7z"/>
		<path fill="#F6F6F6" d="M466.3,457.7h-4.9v-124c0-1,0.8-1.7,1.7-1.7h3.2V457.7z"/>
		<path fill="#E9E9E9" d="M474.4,457.7h-3.1c-1,0-1.7-0.8-1.7-1.7V332.1c0-1,0.8-1.7,1.7-1.7h3.1c1,0,1.7,0.8,1.7,1.7V456
			C476.1,456.9,475.3,457.7,474.4,457.7z"/>
		<path fill="#F6F6F6" d="M476.1,457.7h-4.9v-124c0-1,0.8-1.7,1.7-1.7h3.2V457.7z"/>
		<path fill="#E9E9E9" d="M484.2,457.7h-3.1c-1,0-1.7-0.8-1.7-1.7V332.1c0-1,0.8-1.7,1.7-1.7h3.1c1,0,1.7,0.8,1.7,1.7V456
			C485.9,456.9,485.1,457.7,484.2,457.7z"/>
		<path fill="#F6F6F6" d="M485.9,457.7H481v-124c0-1,0.8-1.7,1.7-1.7h3.2V457.7z"/>
		<path fill="#E9E9E9" d="M493.9,457.7h-3.1c-1,0-1.7-0.8-1.7-1.7V332.1c0-1,0.8-1.7,1.7-1.7h3.1c1,0,1.7,0.8,1.7,1.7V456
			C495.7,456.9,494.9,457.7,493.9,457.7z"/>
		<path fill="#F6F6F6" d="M495.7,457.7h-4.9v-124c0-1,0.8-1.7,1.7-1.7h3.2V457.7z"/>
	</g>
	<path fill="#B59959" d="M245.4,325.5v9.8h-2.8c-0.7,0-1.2-0.6-1.2-1.2v-0.5c0,0.1-0.1,0.1-0.1,0.1h-3.8c-0.1,0-0.1-0.1-0.1-0.1
		v-6.2c0-0.1,0.1-0.1,0.1-0.1h3.8c0.1,0,0.1,0.1,0.1,0.1v-0.5c0-0.7,0.6-1.2,1.2-1.2H245.4z"/>
	<path fill="#FAFAFA" d="M238.9,322.2v17.2c0,0.9-0.7,1.6-1.5,1.6h-5.9c-0.8,0-1.5-0.7-1.5-1.6l0,0c0-0.1-0.1-0.2-0.1-0.2l-16.4-0.7
		c-0.8,0-1.4-0.7-1.4-1.4v-12.6c0-0.8,0.6-1.4,1.4-1.4l16.4-0.7c0.1,0,0.1-0.1,0.1-0.2v0c0-0.9,0.7-1.6,1.5-1.6h5.9
		C238.2,320.6,238.9,321.3,238.9,322.2z"/>
	<path fill="#ADADAD" d="M231.1,324.7h-2.4c-0.2,0-0.4-0.2-0.4-0.4l0,0c0-0.2,0.2-0.4,0.4-0.4h2.4c0.2,0,0.4,0.2,0.4,0.4l0,0
		C231.5,324.5,231.3,324.7,231.1,324.7z"/>
	<path fill="#ADADAD" d="M231.1,327.9h-2.4c-0.2,0-0.4-0.2-0.4-0.4l0,0c0-0.2,0.2-0.4,0.4-0.4h2.4c0.2,0,0.4,0.2,0.4,0.4l0,0
		C231.5,327.7,231.3,327.9,231.1,327.9z"/>
	<path fill="#ADADAD" d="M234.4,331.2h-5.7c-0.2,0-0.4-0.2-0.4-0.4l0,0c0-0.2,0.2-0.4,0.4-0.4h5.7c0.2,0,0.4,0.2,0.4,0.4l0,0
		C234.8,331,234.6,331.2,234.4,331.2z"/>
	<path fill="#ADADAD" d="M231.1,334.5h-2.4c-0.2,0-0.4-0.2-0.4-0.4l0,0c0-0.2,0.2-0.4,0.4-0.4h2.4c0.2,0,0.4,0.2,0.4,0.4l0,0
		C231.5,334.3,231.3,334.5,231.1,334.5z"/>
	<path fill="#ADADAD" d="M231.1,336.9h-2.4c-0.2,0-0.4,0.2-0.4,0.4l0,0c0,0.2,0.2,0.4,0.4,0.4h2.4c0.2,0,0.4-0.2,0.4-0.4l0,0
		C231.5,337.1,231.3,336.9,231.1,336.9z"/>
	<path fill="#E9E9E9" d="M226.2,336.9h-11.4c-0.2,0-0.4-0.2-0.4-0.4l0,0c0-0.2,0.2-0.4,0.4-0.4h11.4c0.2,0,0.4,0.2,0.4,0.4l0,0
		C226.6,336.7,226.4,336.9,226.2,336.9z"/>
	<path fill="#E9E9E9" d="M226.2,335.3h-11.4c-0.2,0-0.4-0.2-0.4-0.4l0,0c0-0.2,0.2-0.4,0.4-0.4h11.4c0.2,0,0.4,0.2,0.4,0.4l0,0
		C226.6,335.1,226.4,335.3,226.2,335.3z"/>
	<path fill="#E9E9E9" d="M226.2,333.6h-11.4c-0.2,0-0.4-0.2-0.4-0.4l0,0c0-0.2,0.2-0.4,0.4-0.4h11.4c0.2,0,0.4,0.2,0.4,0.4l0,0
		C226.6,333.5,226.4,333.6,226.2,333.6z"/>
	<path fill="#E9E9E9" d="M226.2,332h-11.4c-0.2,0-0.4-0.2-0.4-0.4l0,0c0-0.2,0.2-0.4,0.4-0.4h11.4c0.2,0,0.4,0.2,0.4,0.4l0,0
		C226.6,331.8,226.4,332,226.2,332z"/>
	<path fill="#E9E9E9" d="M226.2,330.4h-11.4c-0.2,0-0.4-0.2-0.4-0.4l0,0c0-0.2,0.2-0.4,0.4-0.4h11.4c0.2,0,0.4,0.2,0.4,0.4l0,0
		C226.6,330.2,226.4,330.4,226.2,330.4z"/>
	<path fill="#E9E9E9" d="M226.2,328.7h-11.4c-0.2,0-0.4-0.2-0.4-0.4l0,0c0-0.2,0.2-0.4,0.4-0.4h11.4c0.2,0,0.4,0.2,0.4,0.4l0,0
		C226.6,328.6,226.4,328.7,226.2,328.7z"/>
	<path fill="#E9E9E9" d="M226.2,327.1h-11.4c-0.2,0-0.4-0.2-0.4-0.4l0,0c0-0.2,0.2-0.4,0.4-0.4h11.4c0.2,0,0.4,0.2,0.4,0.4l0,0
		C226.6,326.9,226.4,327.1,226.2,327.1z"/>
	<path fill="#E9E9E9" d="M226.2,325.5h-11.4c-0.2,0-0.4-0.2-0.4-0.4l0,0c0-0.2,0.2-0.4,0.4-0.4h11.4c0.2,0,0.4,0.2,0.4,0.4l0,0
		C226.6,325.3,226.4,325.5,226.2,325.5z"/>
</g>
<g>
	<rect x="196.9" y="32.8" fill="#A7DBD9" width="347" height="262"/>
	<path fill="#8CC94D" d="M188.9,212.7c0,0,30.5-37.4,81.8-37.6s91.4,37.6,91.4,37.6s23.4-18.8,57.1-18.8c33.7,0,66.7,23,81.7,23
		c15,0,50,4,50,4v79h-362V212.7z"/>
	<rect x="201.3" y="38.7" fill="#E9E9E9" width="9" height="249.2"/>
	<polygon fill="#E9E9E9" points="290.5,254.2 290.5,257.3 287.6,258.1 248.7,268.5 245.7,269.3 212,278.4 211.2,275.5 245.7,266.2 
		248.7,265.4 287.6,255 	"/>
	<polygon fill="#E9E9E9" points="290.5,60 290.5,257.3 287.6,258.1 287.6,60 	"/>
	<polygon fill="#E9E9E9" points="248.7,52.5 248.7,268.5 245.7,269.3 245.7,52.5 	"/>
	<path fill="#FFFFFF" d="M210.2,38.7v249.2l88.2-24.2V53.6L210.2,38.7z M218.1,49.3l27.6,4.7l3,0.5V268l-3,0.8l-27.6,7.6V49.3z
		 M290.5,256.5l-3,0.8l-31,8.5v-210l31,5.2l3,0.5V256.5z"/>
	<polygon fill="#FFFFFF" points="298.4,163 210.2,175.1 210.2,165.7 298.4,154.1 	"/>
	<path fill="#FFFFFF" d="M188.9,27.1v272.7h362V27.1H188.9z M538.6,287.9H201.3V38.7h337.3V287.9z"/>
	<rect x="529.6" y="38.7" fill="#E9E9E9" width="9" height="249.2"/>
	<polygon fill="#E9E9E9" points="449.3,254.2 449.3,257.3 452.3,258.1 491.2,268.5 494.1,269.3 527.8,278.4 528.6,275.5 
		494.1,266.2 491.2,265.4 452.3,255 	"/>
	<polygon fill="#E9E9E9" points="449.3,60 449.3,257.3 452.3,258.1 452.3,60 	"/>
	<polygon fill="#E9E9E9" points="491.2,52.5 491.2,268.5 494.1,269.3 494.1,52.5 	"/>
	<path fill="#FFFFFF" d="M529.6,38.7v249.2l-88.2-24.2V53.6L529.6,38.7z M521.8,49.3L494.1,54l-3,0.5V268l3,0.8l27.6,7.6V49.3z
		 M449.3,256.5l3,0.8l31,8.5v-210l-31,5.2l-3,0.5V256.5z"/>
	<polygon fill="#FFFFFF" points="441.5,163 529.6,175.1 529.6,165.7 441.5,154.1 	"/>
	<path fill="#B59959" d="M294.9,167.8L294.9,167.8c-1.1,0-2-0.9-2-2v-14c0-1.1,0.9-2,2-2l0,0c1.1,0,2,0.9,2,2v14
		C296.9,166.9,296,167.8,294.9,167.8z"/>
	<path fill="#B59959" d="M444.9,167.8L444.9,167.8c-1.1,0-2-0.9-2-2v-14c0-1.1,0.9-2,2-2l0,0c1.1,0,2,0.9,2,2v14
		C446.9,166.9,446,167.8,444.9,167.8z"/>
</g>
<g>
	<path fill="#FF884D" d="M395.4,151.3c-9.7,4-19.1,8.6-28.2,13.8c-4.5,2.6-9,5.4-13.2,8.5c-4.2,3.1-8.2,6.5-11.5,10.5
		c-1.6,2-3.1,4.2-4.1,6.5c-0.5,1.2-0.9,2.4-1.1,3.7c-0.2,1.3-0.2,2.5,0,3.8c0.4,2.5,1.7,4.8,3.3,6.7l0.6,0.7l0.7,0.7
		c0.4,0.5,0.9,0.9,1.4,1.3l3,2.6c1.9,1.8,3.8,3.7,5.3,5.9c0.8,1,1.5,2.2,2.2,3.4c0.6,1.2,1.2,2.4,1.6,3.7c0.9,2.5,1.4,5.2,1.3,8
		c-0.1,2.7-0.7,5.4-1.8,7.9c-2.1,5-5.8,9.2-10,12.4c-4.3,3.2-9.2,5.6-14.4,6.9c-2.6,0.6-5.3,1-8.1,0.8c-2.5,0-5.1,0.3-7.6,0.7
		c-5.1,0.8-10.2,2-15.1,3.5c-4.9,1.6-9.7,3.6-14.2,6.2c-4.4,2.6-8.5,5.8-11.7,9.7c-1.6,1.9-2.9,4.1-4,6.4c-0.4,1.2-1,2.3-1.3,3.5
		c-0.2,0.6-0.4,1.2-0.5,1.8l-0.3,1.8c-0.8,4.9-0.3,10.1,1,15c0.2,0.8-0.3,1.6-1.1,1.8c-0.8,0.2-1.6-0.3-1.8-1.1c0,0,0,0,0,0
		c-1.3-5.2-1.8-10.8-0.9-16.2l0.4-2c0.2-0.7,0.4-1.3,0.6-2c0.3-1.3,1-2.6,1.5-3.8c1.2-2.5,2.6-4.8,4.4-6.9
		c3.4-4.2,7.9-7.5,12.5-10.2c4.7-2.6,9.6-4.7,14.7-6.2c5.1-1.6,10.3-2.7,15.5-3.4c2.6-0.3,5.2-0.7,8-0.6c2.5,0.1,5.1-0.1,7.5-0.7
		c5-1.2,9.7-3.4,13.8-6.4c4.1-3.1,7.6-7,9.6-11.7c1-2.3,1.6-4.8,1.7-7.4c0.1-2.5-0.3-5.1-1.2-7.5c-0.4-1.2-1-2.4-1.5-3.5
		c-0.7-1.1-1.3-2.2-2.1-3.3c-1.5-2.1-3.3-4-5.1-5.8l-2.9-2.6c-0.5-0.4-1-0.9-1.5-1.4l-0.7-0.7l-0.7-0.8c-1.7-2-3.1-4.5-3.5-7.2
		c-0.2-1.3-0.2-2.7,0-4.1c0.2-1.3,0.6-2.6,1.2-3.9c1.1-2.5,2.6-4.7,4.3-6.7c3.4-4,7.5-7.4,11.8-10.5c4.3-3.1,8.7-5.8,13.3-8.4
		C376.2,159.7,385.7,155.2,395.4,151.3z"/>
</g>
</svg>
