<?xml version="1.0" encoding="utf-8"?>
<!-- Generator: Adobe Illustrator 24.3.0, SVG Export Plug-In . SVG Version: 6.00 Build 0)  -->
<svg version="1.1" id="Layer_1" xmlns="http://www.w3.org/2000/svg" xmlns:xlink="http://www.w3.org/1999/xlink" x="0px" y="0px"
	 width="672.9px" height="499.1px" viewBox="0 0 672.9 499.1" enable-background="new 0 0 672.9 499.1" xml:space="preserve">
<rect fill="#C5E2E1" width="672.9" height="499.1"/>
<g>
	<path fill="#EEEEEC" d="M577.4,104.9v261.8c0,5.8-4.3,10.5-9.7,10.5h0c-5.3,0-9.7-4.7-9.7-10.5V104.9c0-5.8,4.3-10.5,9.7-10.5h0
		C573.1,94.4,577.4,99.1,577.4,104.9z"/>
	<path fill="#FFFFFF" d="M568.1,416c-22.6,0-41-18.4-41-41c0-13.8,6.7-26.3,18.1-34V104.1c0-12.5,10.1-22.6,22.6-22.6
		c6,0,11.7,2.4,16,6.6c4.3,4.3,6.6,9.9,6.6,16v236.4c11.6,7.5,18.7,20.6,18.7,34.4C609.1,397.6,590.7,416,568.1,416z M567.7,87.3
		c-9.3,0-16.8,7.5-16.8,16.8v240.1l-1.4,0.9c-10.5,6.5-16.7,17.7-16.7,29.9c0,19.4,15.8,35.2,35.2,35.2s35.2-15.8,35.2-35.2
		c0-12.4-6.6-24-17.3-30.3l-1.4-0.8V104.1c0-4.5-1.7-8.7-4.9-11.9C576.4,89.1,572.2,87.3,567.7,87.3z"/>
	<rect x="558.1" y="275.9" fill="#E57341" width="19.4" height="78.7"/>
	<circle fill="#E57341" cx="567.7" cy="374.6" r="26.5"/>
	<circle fill="#FF884D" cx="584.2" cy="375" r="4.8"/>
	<circle fill="#FF884D" cx="580" cy="386.3" r="3.2"/>
	<g>
		<rect x="596.8" y="104.1" fill="#FFFFFF" width="10.3" height="3.2"/>
		<rect x="596.8" y="116.4" fill="#FFFFFF" width="10.3" height="3.2"/>
		<rect x="596.8" y="128.6" fill="#FFFFFF" width="10.3" height="3.2"/>
		<rect x="596.8" y="140.9" fill="#FFFFFF" width="10.3" height="3.2"/>
		<rect x="596.8" y="153.2" fill="#FFFFFF" width="10.3" height="3.2"/>
		<rect x="596.8" y="165.4" fill="#FFFFFF" width="10.3" height="3.2"/>
		<rect x="596.8" y="177.7" fill="#FFFFFF" width="10.3" height="3.2"/>
		<rect x="596.8" y="190" fill="#FFFFFF" width="10.3" height="3.2"/>
		<rect x="596.8" y="202.2" fill="#FFFFFF" width="10.3" height="3.2"/>
		<rect x="596.8" y="214.5" fill="#FFFFFF" width="10.3" height="3.2"/>
		<rect x="596.8" y="226.8" fill="#FFFFFF" width="10.3" height="3.2"/>
		<rect x="596.8" y="239" fill="#FFFFFF" width="10.3" height="3.2"/>
		<rect x="596.8" y="251.3" fill="#FFFFFF" width="10.3" height="3.2"/>
		<rect x="596.8" y="263.6" fill="#FFFFFF" width="10.3" height="3.2"/>
		<rect x="596.8" y="275.9" fill="#FFFFFF" width="10.3" height="3.2"/>
		<rect x="596.8" y="288.1" fill="#FFFFFF" width="10.3" height="3.2"/>
		<rect x="596.8" y="300.4" fill="#FFFFFF" width="10.3" height="3.2"/>
		<rect x="596.8" y="312.7" fill="#FFFFFF" width="10.3" height="3.2"/>
		<rect x="596.8" y="324.9" fill="#FFFFFF" width="10.3" height="3.2"/>
		<rect x="596.8" y="337.2" fill="#FFFFFF" width="10.3" height="3.2"/>
	</g>
</g>
<g>
	<linearGradient id="SVGID_2_" gradientUnits="userSpaceOnUse" x1="312.5838" y1="134.0249" x2="312.5838" y2="360.6354">
		<stop  offset="6.805650e-03" style="stop-color:#FF884D"/>
		<stop  offset="9.352650e-02" style="stop-color:#FF9B6A"/>
		<stop  offset="0.2471" style="stop-color:#FFBA97"/>
		<stop  offset="0.4019" style="stop-color:#FFD3BD"/>
		<stop  offset="0.5552" style="stop-color:#FFE6DA"/>
		<stop  offset="0.7069" style="stop-color:#FFF4EE"/>
		<stop  offset="0.8561" style="stop-color:#FFFCFB"/>
		<stop  offset="1" style="stop-color:#FFFFFF"/>
	</linearGradient>
	<path fill="url(#SVGID_2_)" d="M503.4,368.8H121.7c-3.1,0-5.6-2.5-5.6-5.6v-231c0-3.1,2.5-5.6,5.6-5.6h381.7c3.1,0,5.6,2.5,5.6,5.6
		v231C509.1,366.2,506.5,368.8,503.4,368.8z"/>
	<g>
		<g>
			<linearGradient id="SVGID_4_" gradientUnits="userSpaceOnUse" x1="312.2811" y1="130.0842" x2="312.2811" y2="365.8336">
				<stop  offset="7.203521e-03" style="stop-color:#E57341"/>
				<stop  offset="9.857299e-02" style="stop-color:#E68960"/>
				<stop  offset="0.2411" style="stop-color:#E7A68A"/>
				<stop  offset="0.3868" style="stop-color:#E8BEAC"/>
				<stop  offset="0.5342" style="stop-color:#E8D1C7"/>
				<stop  offset="0.6839" style="stop-color:#E9DEDA"/>
				<stop  offset="0.8373" style="stop-color:#E9E6E5"/>
				<stop  offset="1" style="stop-color:#E9E9E9"/>
			</linearGradient>
			<path fill="url(#SVGID_4_)" d="M497.9,132.1c3.1,0,5.6,2.5,5.6,5.6v220.5c0,3.1-2.5,5.6-5.6,5.6H126.7c-3.1,0-5.6-2.5-5.6-5.6
				V137.7c0-3.1,2.5-5.6,5.6-5.6H497.9 M497.9,130.1H126.7c-4.2,0-7.6,3.4-7.6,7.6v220.5c0,4.2,3.4,7.6,7.6,7.6h371.2
				c4.2,0,7.6-3.4,7.6-7.6V137.7C505.5,133.5,502.1,130.1,497.9,130.1L497.9,130.1z"/>
		</g>
	</g>
	<g>
		<path fill="#E9E9E9" d="M137.4,342.8H131c-1,0-1.7-0.8-1.7-1.7V151.8c0-1,0.8-1.7,1.7-1.7h6.4c1,0,1.7,0.8,1.7,1.7v189.3
			C139.2,342,138.4,342.8,137.4,342.8z"/>
		<path fill="#F6F6F6" d="M139.2,342.8h-7.4V154.3c0-1,0.8-1.7,1.7-1.7h5.7V342.8z"/>
		<path fill="#E9E9E9" d="M152.3,342.8h-6.4c-1,0-1.7-0.8-1.7-1.7l0-189.3c0-1,0.8-1.7,1.7-1.7h6.4c1,0,1.7,0.8,1.7,1.7v189.3
			C154,342,153.2,342.8,152.3,342.8z"/>
		<path fill="#F6F6F6" d="M154,342.8h-7.4V154.3c0-1,0.8-1.7,1.7-1.7h5.7V342.8z"/>
		<path fill="#E9E9E9" d="M167.1,342.8h-6.4c-1,0-1.7-0.8-1.7-1.7V151.8c0-1,0.8-1.7,1.7-1.7h6.4c1,0,1.7,0.8,1.7,1.7v189.3
			C168.8,342,168.1,342.8,167.1,342.8z"/>
		<path fill="#F6F6F6" d="M168.8,342.8h-7.4V154.3c0-1,0.8-1.7,1.7-1.7h5.7V342.8z"/>
		<path fill="#E9E9E9" d="M181.9,342.8h-6.4c-1,0-1.7-0.8-1.7-1.7V151.8c0-1,0.8-1.7,1.7-1.7h6.4c1,0,1.7,0.8,1.7,1.7v189.3
			C183.7,342,182.9,342.8,181.9,342.8z"/>
		<path fill="#F6F6F6" d="M183.7,342.8h-7.4l0-188.6c0-1,0.8-1.7,1.7-1.7h5.7V342.8z"/>
		<path fill="#E9E9E9" d="M196.8,342.8h-6.4c-1,0-1.7-0.8-1.7-1.7V151.8c0-1,0.8-1.7,1.7-1.7h6.4c1,0,1.7,0.8,1.7,1.7v189.3
			C198.5,342,197.7,342.8,196.8,342.8z"/>
		<path fill="#F6F6F6" d="M198.5,342.8h-7.4V154.3c0-1,0.8-1.7,1.7-1.7h5.7V342.8z"/>
		<path fill="#E9E9E9" d="M211.6,342.8h-6.4c-1,0-1.7-0.8-1.7-1.7V151.8c0-1,0.8-1.7,1.7-1.7h6.4c1,0,1.7,0.8,1.7,1.7v189.3
			C213.3,342,212.5,342.8,211.6,342.8z"/>
		<path fill="#F6F6F6" d="M213.3,342.8h-7.4V154.3c0-1,0.8-1.7,1.7-1.7h5.7V342.8z"/>
		<path fill="#E9E9E9" d="M226.4,342.8H220c-1,0-1.7-0.8-1.7-1.7V151.8c0-1,0.8-1.7,1.7-1.7h6.4c1,0,1.7,0.8,1.7,1.7v189.3
			C228.2,342,227.4,342.8,226.4,342.8z"/>
		<path fill="#F6F6F6" d="M228.2,342.8h-7.4V154.3c0-1,0.8-1.7,1.7-1.7h5.7V342.8z"/>
		<path fill="#E9E9E9" d="M241.2,342.8h-6.4c-1,0-1.7-0.8-1.7-1.7V151.8c0-1,0.8-1.7,1.7-1.7h6.4c1,0,1.7,0.8,1.7,1.7v189.3
			C243,342,242.2,342.8,241.2,342.8z"/>
		<path fill="#F6F6F6" d="M243,342.8h-7.4V154.3c0-1,0.8-1.7,1.7-1.7h5.7V342.8z"/>
		<path fill="#E9E9E9" d="M256.1,342.8h-6.4c-1,0-1.7-0.8-1.7-1.7V151.8c0-1,0.8-1.7,1.7-1.7h6.4c1,0,1.7,0.8,1.7,1.7v189.3
			C257.8,342,257,342.8,256.1,342.8z"/>
		<path fill="#F6F6F6" d="M257.8,342.8h-7.4V154.3c0-1,0.8-1.7,1.7-1.7h5.7V342.8z"/>
		<path fill="#E9E9E9" d="M270.9,342.8h-6.4c-1,0-1.7-0.8-1.7-1.7l0-189.3c0-1,0.8-1.7,1.7-1.7h6.4c1,0,1.7,0.8,1.7,1.7v189.3
			C272.6,342,271.9,342.8,270.9,342.8z"/>
		<path fill="#F6F6F6" d="M272.6,342.8h-7.4V154.3c0-1,0.8-1.7,1.7-1.7h5.7V342.8z"/>
		<path fill="#E9E9E9" d="M285.7,342.8h-6.4c-1,0-1.7-0.8-1.7-1.7V151.8c0-1,0.8-1.7,1.7-1.7h6.4c1,0,1.7,0.8,1.7,1.7v189.3
			C287.5,342,286.7,342.8,285.7,342.8z"/>
		<path fill="#F6F6F6" d="M287.5,342.8h-7.4V154.3c0-1,0.8-1.7,1.7-1.7h5.7V342.8z"/>
		<path fill="#E9E9E9" d="M300.6,342.8h-6.4c-1,0-1.7-0.8-1.7-1.7V151.8c0-1,0.8-1.7,1.7-1.7h6.4c1,0,1.7,0.8,1.7,1.7v189.3
			C302.3,342,301.5,342.8,300.6,342.8z"/>
		<path fill="#F6F6F6" d="M302.3,342.8h-7.4l0-188.6c0-1,0.8-1.7,1.7-1.7h5.7V342.8z"/>
		<path fill="#E9E9E9" d="M315.4,342.8H309c-1,0-1.7-0.8-1.7-1.7V151.8c0-1,0.8-1.7,1.7-1.7h6.4c1,0,1.7,0.8,1.7,1.7v189.3
			C317.1,342,316.3,342.8,315.4,342.8z"/>
		<path fill="#F6F6F6" d="M317.1,342.8h-7.4V154.3c0-1,0.8-1.7,1.7-1.7h5.7V342.8z"/>
		<path fill="#E9E9E9" d="M330.2,342.8h-6.4c-1,0-1.7-0.8-1.7-1.7V151.8c0-1,0.8-1.7,1.7-1.7h6.4c1,0,1.7,0.8,1.7,1.7v189.3
			C332,342,331.2,342.8,330.2,342.8z"/>
		<path fill="#F6F6F6" d="M332,342.8h-7.4V154.3c0-1,0.8-1.7,1.7-1.7h5.7V342.8z"/>
		<path fill="#E9E9E9" d="M345,342.8h-6.4c-1,0-1.7-0.8-1.7-1.7V151.8c0-1,0.8-1.7,1.7-1.7h6.4c1,0,1.7,0.8,1.7,1.7v189.3
			C346.8,342,346,342.8,345,342.8z"/>
		<path fill="#F6F6F6" d="M346.8,342.8h-7.4V154.3c0-1,0.8-1.7,1.7-1.7h5.7V342.8z"/>
		<path fill="#E9E9E9" d="M359.9,342.8h-6.4c-1,0-1.7-0.8-1.7-1.7V151.8c0-1,0.8-1.7,1.7-1.7h6.4c1,0,1.7,0.8,1.7,1.7v189.3
			C361.6,342,360.8,342.8,359.9,342.8z"/>
		<path fill="#F6F6F6" d="M361.6,342.8h-7.4V154.3c0-1,0.8-1.7,1.7-1.7h5.7V342.8z"/>
		<path fill="#E9E9E9" d="M374.7,342.8h-6.4c-1,0-1.7-0.8-1.7-1.7V151.8c0-1,0.8-1.7,1.7-1.7h6.4c1,0,1.7,0.8,1.7,1.7v189.3
			C376.4,342,375.7,342.8,374.7,342.8z"/>
		<path fill="#F6F6F6" d="M376.4,342.8H369V154.3c0-1,0.8-1.7,1.7-1.7h5.7V342.8z"/>
		<path fill="#E9E9E9" d="M389.5,342.8h-6.4c-1,0-1.7-0.8-1.7-1.7V151.8c0-1,0.8-1.7,1.7-1.7h6.4c1,0,1.7,0.8,1.7,1.7v189.3
			C391.3,342,390.5,342.8,389.5,342.8z"/>
		<path fill="#F6F6F6" d="M391.3,342.8h-7.4V154.3c0-1,0.8-1.7,1.7-1.7h5.7V342.8z"/>
		<path fill="#E9E9E9" d="M404.4,342.8H398c-1,0-1.7-0.8-1.7-1.7V151.8c0-1,0.8-1.7,1.7-1.7h6.4c1,0,1.7,0.8,1.7,1.7v189.3
			C406.1,342,405.3,342.8,404.4,342.8z"/>
		<path fill="#F6F6F6" d="M406.1,342.8h-7.4V154.3c0-1,0.8-1.7,1.7-1.7h5.7V342.8z"/>
		<path fill="#E9E9E9" d="M419.2,342.8h-6.4c-1,0-1.7-0.8-1.7-1.7V151.8c0-1,0.8-1.7,1.7-1.7h6.4c1,0,1.7,0.8,1.7,1.7v189.3
			C420.9,342,420.1,342.8,419.2,342.8z"/>
		<path fill="#F6F6F6" d="M420.9,342.8h-7.4V154.3c0-1,0.8-1.7,1.7-1.7h5.7V342.8z"/>
		<path fill="#E9E9E9" d="M434,342.8h-6.4c-1,0-1.7-0.8-1.7-1.7V151.8c0-1,0.8-1.7,1.7-1.7h6.4c1,0,1.7,0.8,1.7,1.7v189.3
			C435.8,342,435,342.8,434,342.8z"/>
		<path fill="#F6F6F6" d="M435.8,342.8h-7.4V154.3c0-1,0.8-1.7,1.7-1.7h5.7V342.8z"/>
		<path fill="#E9E9E9" d="M448.9,342.8h-6.4c-1,0-1.7-0.8-1.7-1.7V151.8c0-1,0.8-1.7,1.7-1.7h6.4c1,0,1.7,0.8,1.7,1.7v189.3
			C450.6,342,449.8,342.8,448.9,342.8z"/>
		<path fill="#F6F6F6" d="M450.6,342.8h-7.4V154.3c0-1,0.8-1.7,1.7-1.7h5.7V342.8z"/>
		<path fill="#E9E9E9" d="M463.7,342.8h-6.4c-1,0-1.7-0.8-1.7-1.7V151.8c0-1,0.8-1.7,1.7-1.7h6.4c1,0,1.7,0.8,1.7,1.7v189.3
			C465.4,342,464.6,342.8,463.7,342.8z"/>
		<path fill="#F6F6F6" d="M465.4,342.8H458V154.3c0-1,0.8-1.7,1.7-1.7h5.7V342.8z"/>
		<path fill="#E9E9E9" d="M478.5,342.8h-6.4c-1,0-1.7-0.8-1.7-1.7V151.8c0-1,0.8-1.7,1.7-1.7h6.4c1,0,1.7,0.8,1.7,1.7v189.3
			C480.2,342,479.5,342.8,478.5,342.8z"/>
		<path fill="#F6F6F6" d="M480.2,342.8h-7.4V154.3c0-1,0.8-1.7,1.7-1.7h5.7V342.8z"/>
		<path fill="#E9E9E9" d="M493.3,342.8h-6.4c-1,0-1.7-0.8-1.7-1.7V151.8c0-1,0.8-1.7,1.7-1.7h6.4c1,0,1.7,0.8,1.7,1.7v189.3
			C495.1,342,494.3,342.8,493.3,342.8z"/>
		<path fill="#F6F6F6" d="M495.1,342.8h-7.4V154.3c0-1,0.8-1.7,1.7-1.7h5.7V342.8z"/>
	</g>
	<path fill="#B59959" d="M116.1,142.6v14.8h-4.3c-1,0-1.9-0.8-1.9-1.9v-0.8c0,0.1-0.1,0.2-0.2,0.2H104c-0.1,0-0.2-0.1-0.2-0.2v-9.4
		c0-0.1,0.1-0.2,0.2-0.2h5.7c0.1,0,0.2,0.1,0.2,0.2v-0.8c0-1,0.8-1.9,1.9-1.9H116.1z"/>
	<path fill="#FAFAFA" d="M106.2,137.6v26.1c0,1.3-1,2.4-2.3,2.4h-9c-1.3,0-2.3-1.1-2.3-2.4l0,0c0-0.1-0.1-0.2-0.2-0.2l-24.9-1.1
		c-1.1,0-2.1-1-2.1-2.2v-19.1c0-1.1,0.9-2.1,2.1-2.2l24.9-1.1c0.1,0,0.2-0.1,0.2-0.2v0c0-1.3,1-2.4,2.3-2.4h9
		C105.2,135.2,106.2,136.3,106.2,137.6z"/>
	<path fill="#ADADAD" d="M94.7,141.4h-4.1c-0.2,0-0.4-0.2-0.4-0.4v-0.4c0-0.2,0.2-0.4,0.4-0.4h4.1c0.2,0,0.4,0.2,0.4,0.4v0.4
		C95.1,141.2,94.9,141.4,94.7,141.4z"/>
	<path fill="#ADADAD" d="M94.7,146.3h-4.1c-0.2,0-0.4-0.2-0.4-0.4v-0.4c0-0.2,0.2-0.4,0.4-0.4h4.1c0.2,0,0.4,0.2,0.4,0.4v0.4
		C95.1,146.2,94.9,146.3,94.7,146.3z"/>
	<path fill="#ADADAD" d="M99.6,151.3h-9.1c-0.2,0-0.4-0.2-0.4-0.4v-0.4c0-0.2,0.2-0.4,0.4-0.4h9.1c0.2,0,0.4,0.2,0.4,0.4v0.4
		C100,151.1,99.8,151.3,99.6,151.3z"/>
	<path fill="#ADADAD" d="M94.7,156.2h-4.1c-0.2,0-0.4-0.2-0.4-0.4v-0.4c0-0.2,0.2-0.4,0.4-0.4h4.1c0.2,0,0.4,0.2,0.4,0.4v0.4
		C95.1,156,94.9,156.2,94.7,156.2z"/>
	<path fill="#ADADAD" d="M94.7,159.9h-4.1c-0.2,0-0.4,0.2-0.4,0.4v0.4c0,0.2,0.2,0.4,0.4,0.4h4.1c0.2,0,0.4-0.2,0.4-0.4v-0.4
		C95.1,160.1,94.9,159.9,94.7,159.9z"/>
	<path fill="#E9E9E9" d="M87.3,159.9H69.5c-0.2,0-0.4-0.2-0.4-0.4v-0.4c0-0.2,0.2-0.4,0.4-0.4h17.7c0.2,0,0.4,0.2,0.4,0.4v0.4
		C87.7,159.7,87.5,159.9,87.3,159.9z"/>
	<path fill="#E9E9E9" d="M87.3,157.5H69.5c-0.2,0-0.4-0.2-0.4-0.4v-0.4c0-0.2,0.2-0.4,0.4-0.4h17.7c0.2,0,0.4,0.2,0.4,0.4v0.4
		C87.7,157.3,87.5,157.5,87.3,157.5z"/>
	<path fill="#E9E9E9" d="M87.3,155H69.5c-0.2,0-0.4-0.2-0.4-0.4v-0.4c0-0.2,0.2-0.4,0.4-0.4h17.7c0.2,0,0.4,0.2,0.4,0.4v0.4
		C87.7,154.8,87.5,155,87.3,155z"/>
	<path fill="#E9E9E9" d="M87.3,152.5H69.5c-0.2,0-0.4-0.2-0.4-0.4v-0.4c0-0.2,0.2-0.4,0.4-0.4h17.7c0.2,0,0.4,0.2,0.4,0.4v0.4
		C87.7,152.3,87.5,152.5,87.3,152.5z"/>
	<path fill="#E9E9E9" d="M87.3,150H69.5c-0.2,0-0.4-0.2-0.4-0.4v-0.4c0-0.2,0.2-0.4,0.4-0.4h17.7c0.2,0,0.4,0.2,0.4,0.4v0.4
		C87.7,149.9,87.5,150,87.3,150z"/>
	<path fill="#E9E9E9" d="M87.3,147.6H69.5c-0.2,0-0.4-0.2-0.4-0.4v-0.4c0-0.2,0.2-0.4,0.4-0.4h17.7c0.2,0,0.4,0.2,0.4,0.4v0.4
		C87.7,147.4,87.5,147.6,87.3,147.6z"/>
	<path fill="#E9E9E9" d="M87.3,145.1H69.5c-0.2,0-0.4-0.2-0.4-0.4v-0.4c0-0.2,0.2-0.4,0.4-0.4h17.7c0.2,0,0.4,0.2,0.4,0.4v0.4
		C87.7,144.9,87.5,145.1,87.3,145.1z"/>
	<path fill="#E9E9E9" d="M87.3,142.6H69.5c-0.2,0-0.4-0.2-0.4-0.4v-0.4c0-0.2,0.2-0.4,0.4-0.4h17.7c0.2,0,0.4,0.2,0.4,0.4v0.4
		C87.7,142.4,87.5,142.6,87.3,142.6z"/>
</g>
</svg>
