<?xml version="1.0" encoding="utf-8"?>
<!-- Generator: Adobe Illustrator 24.3.0, SVG Export Plug-In . SVG Version: 6.00 Build 0)  -->
<svg version="1.1" id="Layer_1" xmlns="http://www.w3.org/2000/svg" xmlns:xlink="http://www.w3.org/1999/xlink" x="0px" y="0px"
	 width="672.9px" height="499.1px" viewBox="0 0 672.9 499.1" enable-background="new 0 0 672.9 499.1" xml:space="preserve">
<rect fill="#C5E2E1" width="672.9" height="499.1"/>
<g>
	<path fill="#D8D8D8" d="M436.5,443.7H236.6c-10.8,0-19.6-8.8-19.6-19.6V66.4c0-10.8,8.8-19.6,19.6-19.6h199.8
		c10.8,0,19.6,8.8,19.6,19.6v357.7C456.1,434.9,447.2,443.7,436.5,443.7z"/>
	<path fill="#C3C3C3" d="M239.4,166.3H236v-64h3.4c4.2,0,7.5,3.4,7.5,7.5v49C246.9,162.9,243.6,166.3,239.4,166.3z"/>
	<path fill="#C3C3C3" d="M239.4,286.4H236v-81.1h3.4c4.2,0,7.5,3.4,7.5,7.5v66C246.9,283,243.6,286.4,239.4,286.4z"/>
	<path fill="#979797" d="M236,166.3L236,166.3c-2.3,0-4.3-1.9-4.3-4.3v-55.5c0-2.3,1.9-4.3,4.3-4.3l0,0c2.3,0,4.3,1.9,4.3,4.3V162
		C240.2,164.4,238.3,166.3,236,166.3z"/>
	<path fill="#C3C3C3" d="M429.5,175.4c-0.5,3.6-1,7.3-1.6,11H217.1v-11H429.5z"/>
	<path fill="#979797" d="M236,286.4L236,286.4c-2.3,0-4.3-1.9-4.3-4.3v-72.6c0-2.3,1.9-4.3,4.3-4.3h0c2.3,0,4.3,1.9,4.3,4.3v72.6
		C240.2,284.5,238.3,286.4,236,286.4z"/>
	<path fill="#CBCCCE" d="M456.1,66.4v357.7c0,10.8-8.8,19.6-19.6,19.6H236.6c-4.4,0-8.5-1.5-11.8-4
		C362.5,402.9,412.2,288.4,428,186.4c0.6-3.7,1.1-7.3,1.6-11c6.7-50.6,5.5-97.3,3-128.7h3.9C447.2,46.8,456.1,55.6,456.1,66.4z"/>
	<path fill="#B7B7B7" d="M456.1,175.4v11H428c0.6-3.7,1.1-7.3,1.6-11H456.1z"/>
	<path opacity="0.27" fill="#646464" d="M278,452.8h-29.3c-3,0-5.5-2.4-5.5-5.5v-3.7h40.2v3.7C283.5,450.4,281.1,452.8,278,452.8z"
		/>
	<path opacity="0.27" fill="#646464" d="M424.4,452.8h-29.3c-3,0-5.5-2.4-5.5-5.5v-3.7h40.2v3.7
		C429.8,450.4,427.4,452.8,424.4,452.8z"/>
	<rect x="243.3" y="443.7" opacity="0.21" fill="#4C4C4C" width="40.2" height="4.3"/>
	<rect x="389.6" y="443.7" opacity="0.21" fill="#4C4C4C" width="40.2" height="4.3"/>
</g>
</svg>
