<?xml version="1.0" encoding="utf-8"?>
<!-- Generator: Adobe Illustrator 24.3.0, SVG Export Plug-In . SVG Version: 6.00 Build 0)  -->
<svg version="1.1" id="Layer_1" xmlns="http://www.w3.org/2000/svg" xmlns:xlink="http://www.w3.org/1999/xlink" x="0px" y="0px"
	 width="672.9px" height="499.1px" viewBox="0 0 672.9 499.1" enable-background="new 0 0 672.9 499.1" xml:space="preserve">
<filter  id="AI_GaussianBlur_09">
	<feGaussianBlur  stdDeviation="9"></feGaussianBlur>
</filter>
<g>
	<rect fill="#C5E2E1" width="672.9" height="499.1"/>
	<g filter="url(#AI_GaussianBlur_09)">
		<circle fill="#EDAF14" cx="550.1" cy="100" r="66"/>
	</g>
	<circle fill="#FFCF36" cx="550.1" cy="100" r="53"/>
	<polygon fill="#CE4545" points="590.2,263.3 568.9,263.3 568.9,320.6 409.6,320.6 409.6,193.6 558.9,193.6 	"/>
	<polygon fill="#CE4545" points="613.1,352.3 601.6,352.3 601.6,449 354.1,449 354.1,320.6 568.9,320.6 569.6,321 580.7,329 
		584.2,331.5 	"/>
	<polygon fill="#CE4545" points="409.6,193.6 409.6,320.6 74.4,320.6 74.4,263.3 48.8,263.3 78,193.6 162.1,193.6 197.2,168.1 
		232.2,193.6 	"/>
	<polygon fill="#CE4545" points="354.1,320.6 354.1,331.5 354,442.6 74.4,442.6 74.4,320.6 	"/>
	<g>
		<path fill="#EEEEEC" d="M338.3,226.7V390c0,3.6-2.7,6.6-6,6.6l0,0c-3.3,0-6-2.9-6-6.6V226.7c0-3.6,2.7-6.6,6-6.6l0,0
			C335.6,220.2,338.3,223.1,338.3,226.7z"/>
		<path fill="#FFFFFF" d="M332.5,420.7c-14.1,0-25.6-11.5-25.6-25.6c0-8.6,4.2-16.4,11.3-21.2V226.2c0-7.8,6.3-14.1,14.1-14.1
			c3.8,0,7.3,1.5,10,4.1c2.7,2.7,4.1,6.2,4.1,10v147.5c7.2,4.7,11.7,12.8,11.7,21.5C358.1,409.3,346.6,420.7,332.5,420.7z
			 M332.3,215.7c-5.8,0-10.5,4.7-10.5,10.5v149.7l-0.9,0.5c-6.5,4-10.4,11-10.4,18.7c0,12.1,9.8,22,22,22s22-9.8,22-22
			c0-7.7-4.1-15-10.8-18.9l-0.9-0.5V226.2c0-2.8-1.1-5.4-3.1-7.4C337.7,216.8,335.1,215.7,332.3,215.7z"/>
		<rect x="326.3" y="239" fill="#AF2F2F" width="12.1" height="143.4"/>
		<circle fill="#AF2F2F" cx="332.3" cy="395" r="16.5"/>
		<circle fill="#CE4545" cx="342.6" cy="395.2" r="3"/>
		<circle fill="#CE4545" cx="339.9" cy="402.2" r="2"/>
	</g>
</g>
</svg>
