<?xml version="1.0" encoding="utf-8"?>
<!-- Generator: Adobe Illustrator 24.3.0, SVG Export Plug-In . SVG Version: 6.00 Build 0)  -->
<svg version="1.1" id="Layer_1" xmlns="http://www.w3.org/2000/svg" xmlns:xlink="http://www.w3.org/1999/xlink" x="0px" y="0px"
	 width="672.9px" height="499.1px" viewBox="0 0 672.9 499.1" enable-background="new 0 0 672.9 499.1" xml:space="preserve">
<rect fill="#C5E2E1" width="672.9" height="499.1"/>
<polygon fill="#38A0F4" points="612.1,211.3 590.7,211.3 590.7,268.5 431.4,268.5 431.4,141.5 580.8,141.5 "/>
<polygon fill="#FF884D" points="634.9,300.2 623.5,300.2 623.5,396.9 375.9,396.9 375.9,268.5 590.7,268.5 591.4,269 602.6,277 
	606,279.5 "/>
<polygon fill="#CE4545" points="431.4,141.5 431.4,268.5 96.3,268.5 96.3,211.3 70.7,211.3 99.8,141.5 183.9,141.5 219,116 
	254,141.5 "/>
<polygon fill="#71E2D0" points="375.9,268.5 375.9,279.5 375.9,390.5 96.3,390.5 96.3,268.5 "/>
<g>
	<path display="none" fill="#EEEEEC" d="M274.1,244.5c0,5.2-4.2,9.4-9.4,9.4s-9.4-4.2-9.4-9.4c0-3.3,1.7-6.3,4.5-8l0.4-0.2V172
		c0-2.5,2-4.5,4.5-4.5c1.2,0,2.3,0.5,3.2,1.3c0.9,0.8,1.3,2,1.3,3.2v64.2l0.4,0.2C272.3,238.1,274.1,241.2,274.1,244.5z"/>
	<path fill="#EEEEEC" d="M267.2,172.2v70.1c0,1.6-1.2,2.8-2.6,2.8l0,0c-1.4,0-2.6-1.3-2.6-2.8v-70.1c0-1.6,1.2-2.8,2.6-2.8l0,0
		C266,169.4,267.2,170.7,267.2,172.2z"/>
	<path fill="#FFFFFF" d="M264.7,255.5c-6.1,0-11-4.9-11-11c0-3.7,1.8-7.1,4.8-9.1V172c0-3.3,2.7-6.1,6.1-6.1c1.6,0,3.1,0.6,4.3,1.8
		c1.1,1.1,1.8,2.7,1.8,4.3v63.3c3.1,2,5,5.5,5,9.2C275.6,250.6,270.7,255.5,264.7,255.5z M264.6,167.5c-2.5,0-4.5,2-4.5,4.5v64.3
		l-0.4,0.2c-2.8,1.7-4.5,4.7-4.5,8c0,5.2,4.2,9.4,9.4,9.4s9.4-4.2,9.4-9.4c0-3.3-1.8-6.4-4.6-8.1l-0.4-0.2V172
		c0-1.2-0.5-2.3-1.3-3.2C266.9,168,265.8,167.5,264.6,167.5z"/>
	<rect x="262" y="176.6" fill="#AF2F2F" width="5.2" height="62.5"/>
	<circle fill="#AF2F2F" cx="264.6" cy="244.4" r="7.1"/>
	<circle fill="#CE4545" cx="269" cy="244.5" r="1.3"/>
	<circle fill="#CE4545" cx="267.9" cy="247.6" r="0.9"/>
</g>
<g>
	<path display="none" fill="#EEEEEC" d="M520.4,244.3c0,5.2-4.2,9.4-9.4,9.4s-9.4-4.2-9.4-9.4c0-3.3,1.7-6.3,4.5-8l0.4-0.2v-64.4
		c0-2.5,2-4.5,4.5-4.5c1.2,0,2.3,0.5,3.2,1.3c0.9,0.8,1.3,2,1.3,3.2v64.3l0.4,0.2C518.6,237.8,520.4,240.9,520.4,244.3z"/>
	<path fill="#EEEEEC" d="M513.4,171.9v70.2c0,1.6-1.2,2.8-2.6,2.8l0,0c-1.4,0-2.6-1.3-2.6-2.8v-70.2c0-1.6,1.2-2.8,2.6-2.8l0,0
		C512.3,169.1,513.4,170.3,513.4,171.9z"/>
	<path fill="#FFFFFF" d="M510.9,255.3c-6.1,0-11-4.9-11-11c0-3.7,1.8-7.1,4.8-9.1v-63.5c0-3.3,2.7-6.1,6.1-6.1
		c1.6,0,3.1,0.6,4.3,1.8c1.1,1.1,1.8,2.7,1.8,4.3V235c3.1,2,5,5.5,5,9.2C521.9,250.3,517,255.3,510.9,255.3z M510.8,167.1
		c-2.5,0-4.5,2-4.5,4.5V236l-0.4,0.2c-2.8,1.7-4.5,4.7-4.5,8c0,5.2,4.2,9.4,9.4,9.4c5.2,0,9.4-4.2,9.4-9.4c0-3.3-1.8-6.4-4.6-8.1
		l-0.4-0.2v-64.3c0-1.2-0.5-2.3-1.3-3.2C513.2,167.6,512.1,167.1,510.8,167.1z"/>
	<rect x="508.3" y="233.2" fill="#2B75BF" width="5.2" height="5.6"/>
	<circle fill="#2B75BF" cx="510.8" cy="244.2" r="7.1"/>
	<circle fill="#38A0F4" cx="515.3" cy="244.3" r="1.3"/>
	<circle fill="#38A0F4" cx="514.1" cy="247.3" r="0.9"/>
</g>
<g>
	<path display="none" fill="#EEEEEC" d="M241.4,369.3c0,5.2-4.2,9.4-9.4,9.4s-9.4-4.2-9.4-9.4c0-3.3,1.7-6.3,4.5-8l0.4-0.2v-64.4
		c0-2.5,2-4.5,4.5-4.5c1.2,0,2.3,0.5,3.2,1.3c0.9,0.8,1.3,2,1.3,3.2v64.3l0.4,0.2C239.6,362.8,241.4,365.9,241.4,369.3z"/>
	<path fill="#EEEEEC" d="M234.4,296.9v70.2c0,1.6-1.2,2.8-2.6,2.8h0c-1.4,0-2.6-1.3-2.6-2.8v-70.2c0-1.6,1.2-2.8,2.6-2.8h0
		C233.3,294.1,234.4,295.3,234.4,296.9z"/>
	<path fill="#FFFFFF" d="M231.9,380.3c-6.1,0-11-4.9-11-11c0-3.7,1.8-7.1,4.8-9.1v-63.5c0-3.3,2.7-6.1,6.1-6.1
		c1.6,0,3.1,0.6,4.3,1.8c1.1,1.1,1.8,2.7,1.8,4.3V360c3.1,2,5,5.5,5,9.2C242.9,375.3,238,380.3,231.9,380.3z M231.8,292.1
		c-2.5,0-4.5,2-4.5,4.5V361l-0.4,0.2c-2.8,1.7-4.5,4.7-4.5,8c0,5.2,4.2,9.4,9.4,9.4s9.4-4.2,9.4-9.4c0-3.3-1.8-6.4-4.6-8.1l-0.4-0.2
		v-64.3c0-1.2-0.5-2.3-1.3-3.2C234.2,292.6,233.1,292.1,231.8,292.1z"/>
	<rect x="229.3" y="351" fill="#39B79F" width="5.2" height="12.9"/>
	<circle fill="#39B79F" cx="231.8" cy="369.2" r="7.1"/>
	<circle fill="#71E2D0" cx="236.3" cy="369.3" r="1.3"/>
	<circle fill="#71E2D0" cx="235.1" cy="372.3" r="0.9"/>
</g>
<g>
	<path display="none" fill="#EEEEEC" d="M513.1,369.5c0,5.2-4.2,9.4-9.4,9.4c-5.2,0-9.4-4.2-9.4-9.4c0-3.3,1.7-6.3,4.5-8l0.4-0.2
		v-64.4c0-2.5,2-4.5,4.5-4.5c1.2,0,2.3,0.5,3.2,1.3c0.9,0.8,1.3,2,1.3,3.2v64.3l0.4,0.2C511.3,363,513.1,366.1,513.1,369.5z"/>
	<path fill="#EEEEEC" d="M506.1,297.1v70.2c0,1.6-1.2,2.8-2.6,2.8l0,0c-1.4,0-2.6-1.3-2.6-2.8v-70.2c0-1.6,1.2-2.8,2.6-2.8l0,0
		C505,294.2,506.1,295.5,506.1,297.1z"/>
	<path fill="#FFFFFF" d="M503.6,380.5c-6.1,0-11-4.9-11-11c0-3.7,1.8-7.1,4.8-9.1v-63.5c0-3.3,2.7-6.1,6.1-6.1
		c1.6,0,3.1,0.6,4.3,1.8c1.1,1.1,1.8,2.7,1.8,4.3v63.4c3.1,2,5,5.5,5,9.2C514.6,375.5,509.7,380.5,503.6,380.5z M503.5,292.3
		c-2.5,0-4.5,2-4.5,4.5v64.4l-0.4,0.2c-2.8,1.7-4.5,4.7-4.5,8c0,5.2,4.2,9.4,9.4,9.4c5.2,0,9.4-4.2,9.4-9.4c0-3.3-1.8-6.4-4.6-8.1
		l-0.4-0.2v-64.3c0-1.2-0.5-2.3-1.3-3.2C505.9,292.8,504.7,292.3,503.5,292.3z"/>
	<rect x="500.9" y="337" fill="#E57341" width="5.2" height="27"/>
	<circle fill="#E57341" cx="503.5" cy="369.4" r="7.1"/>
	<circle fill="#FF884D" cx="507.9" cy="369.5" r="1.3"/>
	<circle fill="#FF884D" cx="506.8" cy="372.5" r="0.9"/>
</g>
</svg>
