<?xml version="1.0" encoding="utf-8"?>
<!-- Generator: Adobe Illustrator 24.3.0, SVG Export Plug-In . SVG Version: 6.00 Build 0)  -->
<svg version="1.1" id="Layer_1" xmlns="http://www.w3.org/2000/svg" xmlns:xlink="http://www.w3.org/1999/xlink" x="0px" y="0px"
	 width="672.9px" height="499.1px" viewBox="0 0 672.9 499.1" enable-background="new 0 0 672.9 499.1" xml:space="preserve">
<rect fill="#C5E2E1" width="672.9" height="499.1"/>
<g>
	<path display="none" fill="#EEEEEC" d="M603.1,376c0,19.4-15.8,35.2-35.2,35.2s-35.2-15.8-35.2-35.2c0-12.3,6.2-23.5,16.7-29.9
		l1.4-0.9V105.1c0-9.3,7.5-16.8,16.8-16.8c4.5,0,8.7,1.8,11.9,4.9c3.2,3.2,4.9,7.4,4.9,11.9v239.7l1.4,0.8
		C596.5,352,603.1,363.6,603.1,376z"/>
	<path fill="#EEEEEC" d="M577.3,105.9v261.8c0,5.8-4.3,10.5-9.7,10.5l0,0c-5.3,0-9.7-4.7-9.7-10.5V105.9c0-5.8,4.3-10.5,9.7-10.5
		l0,0C573,95.4,577.3,100.1,577.3,105.9z"/>
	<path fill="#FFFFFF" d="M567.9,417c-22.6,0-41-18.4-41-41c0-13.8,6.7-26.3,18.1-34V105.1c0-12.5,10.1-22.6,22.6-22.6
		c6,0,11.7,2.4,16,6.6c4.3,4.3,6.6,9.9,6.6,16v236.4c11.6,7.5,18.7,20.6,18.7,34.4C608.9,398.6,590.5,417,567.9,417z M567.6,88.3
		c-9.3,0-16.8,7.5-16.8,16.8v240.1l-1.4,0.9c-10.5,6.5-16.7,17.7-16.7,29.9c0,19.4,15.8,35.2,35.2,35.2s35.2-15.8,35.2-35.2
		c0-12.4-6.6-24-17.3-30.3l-1.4-0.8V105.1c0-4.5-1.7-8.7-4.9-11.9C576.3,90.1,572.1,88.3,567.6,88.3z"/>
	<rect x="557.9" y="122.3" fill="#AF2F2F" width="19.4" height="233.3"/>
	<circle fill="#AF2F2F" cx="567.6" cy="375.6" r="26.5"/>
	<circle fill="#CE4545" cx="584.1" cy="376" r="4.8"/>
	<circle fill="#CE4545" cx="579.9" cy="387.3" r="3.2"/>
	<g>
		<rect x="596.7" y="105.1" fill="#FFFFFF" width="10.3" height="3.2"/>
		<rect x="596.7" y="117.4" fill="#FFFFFF" width="10.3" height="3.2"/>
		<rect x="596.7" y="129.6" fill="#FFFFFF" width="10.3" height="3.2"/>
		<rect x="596.7" y="141.9" fill="#FFFFFF" width="10.3" height="3.2"/>
		<rect x="596.7" y="154.2" fill="#FFFFFF" width="10.3" height="3.2"/>
		<rect x="596.7" y="166.4" fill="#FFFFFF" width="10.3" height="3.2"/>
		<rect x="596.7" y="178.7" fill="#FFFFFF" width="10.3" height="3.2"/>
		<rect x="596.7" y="191" fill="#FFFFFF" width="10.3" height="3.2"/>
		<rect x="596.7" y="203.2" fill="#FFFFFF" width="10.3" height="3.2"/>
		<rect x="596.7" y="215.5" fill="#FFFFFF" width="10.3" height="3.2"/>
		<rect x="596.7" y="227.8" fill="#FFFFFF" width="10.3" height="3.2"/>
		<rect x="596.7" y="240" fill="#FFFFFF" width="10.3" height="3.2"/>
		<rect x="596.7" y="252.3" fill="#FFFFFF" width="10.3" height="3.2"/>
		<rect x="596.7" y="264.6" fill="#FFFFFF" width="10.3" height="3.2"/>
		<rect x="596.7" y="276.9" fill="#FFFFFF" width="10.3" height="3.2"/>
		<rect x="596.7" y="289.1" fill="#FFFFFF" width="10.3" height="3.2"/>
		<rect x="596.7" y="301.4" fill="#FFFFFF" width="10.3" height="3.2"/>
		<rect x="596.7" y="313.7" fill="#FFFFFF" width="10.3" height="3.2"/>
		<rect x="596.7" y="325.9" fill="#FFFFFF" width="10.3" height="3.2"/>
		<rect x="596.7" y="338.2" fill="#FFFFFF" width="10.3" height="3.2"/>
	</g>
</g>
<g>
	<linearGradient id="SVGID_2_" gradientUnits="userSpaceOnUse" x1="312.4417" y1="135.0249" x2="312.4417" y2="361.6354">
		<stop  offset="6.805650e-03" style="stop-color:#CE4545"/>
		<stop  offset="0.1137" style="stop-color:#D86A6A"/>
		<stop  offset="0.2639" style="stop-color:#E49797"/>
		<stop  offset="0.4152" style="stop-color:#EDBDBD"/>
		<stop  offset="0.5651" style="stop-color:#F5DADA"/>
		<stop  offset="0.7134" style="stop-color:#FBEEEE"/>
		<stop  offset="0.8593" style="stop-color:#FEFBFB"/>
		<stop  offset="1" style="stop-color:#FFFFFF"/>
	</linearGradient>
	<path fill="url(#SVGID_2_)" d="M503.3,369.8H121.6c-3.1,0-5.6-2.5-5.6-5.6v-231c0-3.1,2.5-5.6,5.6-5.6h381.7c3.1,0,5.6,2.5,5.6,5.6
		v231C508.9,367.2,506.4,369.8,503.3,369.8z"/>
	<g>
		<linearGradient id="SVGID_4_" gradientUnits="userSpaceOnUse" x1="312.139" y1="131.0842" x2="312.139" y2="366.8336">
			<stop  offset="7.203521e-03" style="stop-color:#AF2F2F"/>
			<stop  offset="0.1412" style="stop-color:#BE6060"/>
			<stop  offset="0.2769" style="stop-color:#CB8A8A"/>
			<stop  offset="0.4158" style="stop-color:#D6ACAC"/>
			<stop  offset="0.5562" style="stop-color:#DEC7C7"/>
			<stop  offset="0.6988" style="stop-color:#E4DADA"/>
			<stop  offset="0.845" style="stop-color:#E8E5E5"/>
			<stop  offset="1" style="stop-color:#E9E9E9"/>
		</linearGradient>
		<path fill="url(#SVGID_4_)" d="M497.8,133.1c3.1,0,5.6,2.5,5.6,5.6v220.5c0,3.1-2.5,5.6-5.6,5.6H126.5c-3.1,0-5.6-2.5-5.6-5.6
			V138.7c0-3.1,2.5-5.6,5.6-5.6H497.8 M497.8,131.1H126.5c-4.2,0-7.6,3.4-7.6,7.6v220.5c0,4.2,3.4,7.6,7.6,7.6h371.2
			c4.2,0,7.6-3.4,7.6-7.6V138.7C505.4,134.5,502,131.1,497.8,131.1L497.8,131.1z"/>
	</g>
	<g>
		<path fill="#E9E9E9" d="M137.3,343.8h-6.4c-1,0-1.7-0.8-1.7-1.7V152.8c0-1,0.8-1.7,1.7-1.7h6.4c1,0,1.7,0.8,1.7,1.7v189.3
			C139,343,138.3,343.8,137.3,343.8z"/>
		<path fill="#F6F6F6" d="M139,343.8h-7.4V155.3c0-1,0.8-1.7,1.7-1.7h5.7V343.8z"/>
		<path fill="#E9E9E9" d="M152.1,343.8h-6.4c-1,0-1.7-0.8-1.7-1.7V152.8c0-1,0.8-1.7,1.7-1.7h6.4c1,0,1.7,0.8,1.7,1.7v189.3
			C153.9,343,153.1,343.8,152.1,343.8z"/>
		<path fill="#F6F6F6" d="M153.9,343.8h-7.4V155.3c0-1,0.8-1.7,1.7-1.7h5.7V343.8z"/>
		<path fill="#E9E9E9" d="M167,343.8h-6.4c-1,0-1.7-0.8-1.7-1.7V152.8c0-1,0.8-1.7,1.7-1.7h6.4c1,0,1.7,0.8,1.7,1.7v189.3
			C168.7,343,167.9,343.8,167,343.8z"/>
		<path fill="#F6F6F6" d="M168.7,343.8h-7.4V155.3c0-1,0.8-1.7,1.7-1.7h5.7V343.8z"/>
		<path fill="#E9E9E9" d="M181.8,343.8h-6.4c-1,0-1.7-0.8-1.7-1.7V152.8c0-1,0.8-1.7,1.7-1.7h6.4c1,0,1.7,0.8,1.7,1.7v189.3
			C183.5,343,182.7,343.8,181.8,343.8z"/>
		<path fill="#F6F6F6" d="M183.5,343.8h-7.4V155.3c0-1,0.8-1.7,1.7-1.7h5.7V343.8z"/>
		<path fill="#E9E9E9" d="M196.6,343.8h-6.4c-1,0-1.7-0.8-1.7-1.7V152.8c0-1,0.8-1.7,1.7-1.7h6.4c1,0,1.7,0.8,1.7,1.7v189.3
			C198.4,343,197.6,343.8,196.6,343.8z"/>
		<path fill="#F6F6F6" d="M198.4,343.8h-7.4V155.3c0-1,0.8-1.7,1.7-1.7h5.7V343.8z"/>
		<path fill="#E9E9E9" d="M211.4,343.8H205c-1,0-1.7-0.8-1.7-1.7V152.8c0-1,0.8-1.7,1.7-1.7h6.4c1,0,1.7,0.8,1.7,1.7v189.3
			C213.2,343,212.4,343.8,211.4,343.8z"/>
		<path fill="#F6F6F6" d="M213.2,343.8h-7.4V155.3c0-1,0.8-1.7,1.7-1.7h5.7V343.8z"/>
		<path fill="#E9E9E9" d="M226.3,343.8h-6.4c-1,0-1.7-0.8-1.7-1.7V152.8c0-1,0.8-1.7,1.7-1.7h6.4c1,0,1.7,0.8,1.7,1.7v189.3
			C228,343,227.2,343.8,226.3,343.8z"/>
		<path fill="#F6F6F6" d="M228,343.8h-7.4V155.3c0-1,0.8-1.7,1.7-1.7h5.7V343.8z"/>
		<path fill="#E9E9E9" d="M241.1,343.8h-6.4c-1,0-1.7-0.8-1.7-1.7V152.8c0-1,0.8-1.7,1.7-1.7h6.4c1,0,1.7,0.8,1.7,1.7v189.3
			C242.8,343,242.1,343.8,241.1,343.8z"/>
		<path fill="#F6F6F6" d="M242.8,343.8h-7.4V155.3c0-1,0.8-1.7,1.7-1.7h5.7V343.8z"/>
		<path fill="#E9E9E9" d="M255.9,343.8h-6.4c-1,0-1.7-0.8-1.7-1.7V152.8c0-1,0.8-1.7,1.7-1.7h6.4c1,0,1.7,0.8,1.7,1.7v189.3
			C257.7,343,256.9,343.8,255.9,343.8z"/>
		<path fill="#F6F6F6" d="M257.7,343.8h-7.4V155.3c0-1,0.8-1.7,1.7-1.7h5.7V343.8z"/>
		<path fill="#E9E9E9" d="M270.8,343.8h-6.4c-1,0-1.7-0.8-1.7-1.7V152.8c0-1,0.8-1.7,1.7-1.7h6.4c1,0,1.7,0.8,1.7,1.7v189.3
			C272.5,343,271.7,343.8,270.8,343.8z"/>
		<path fill="#F6F6F6" d="M272.5,343.8h-7.4V155.3c0-1,0.8-1.7,1.7-1.7h5.7V343.8z"/>
		<path fill="#E9E9E9" d="M285.6,343.8h-6.4c-1,0-1.7-0.8-1.7-1.7V152.8c0-1,0.8-1.7,1.7-1.7h6.4c1,0,1.7,0.8,1.7,1.7v189.3
			C287.3,343,286.5,343.8,285.6,343.8z"/>
		<path fill="#F6F6F6" d="M287.3,343.8h-7.4V155.3c0-1,0.8-1.7,1.7-1.7h5.7V343.8z"/>
		<path fill="#E9E9E9" d="M300.4,343.8H294c-1,0-1.7-0.8-1.7-1.7V152.8c0-1,0.8-1.7,1.7-1.7h6.4c1,0,1.7,0.8,1.7,1.7v189.3
			C302.2,343,301.4,343.8,300.4,343.8z"/>
		<path fill="#F6F6F6" d="M302.2,343.8h-7.4V155.3c0-1,0.8-1.7,1.7-1.7h5.7V343.8z"/>
		<path fill="#E9E9E9" d="M315.2,343.8h-6.4c-1,0-1.7-0.8-1.7-1.7V152.8c0-1,0.8-1.7,1.7-1.7h6.4c1,0,1.7,0.8,1.7,1.7v189.3
			C317,343,316.2,343.8,315.2,343.8z"/>
		<path fill="#F6F6F6" d="M317,343.8h-7.4V155.3c0-1,0.8-1.7,1.7-1.7h5.7V343.8z"/>
		<path fill="#E9E9E9" d="M330.1,343.8h-6.4c-1,0-1.7-0.8-1.7-1.7V152.8c0-1,0.8-1.7,1.7-1.7h6.4c1,0,1.7,0.8,1.7,1.7v189.3
			C331.8,343,331,343.8,330.1,343.8z"/>
		<path fill="#F6F6F6" d="M331.8,343.8h-7.4V155.3c0-1,0.8-1.7,1.7-1.7h5.7V343.8z"/>
		<path fill="#E9E9E9" d="M344.9,343.8h-6.4c-1,0-1.7-0.8-1.7-1.7V152.8c0-1,0.8-1.7,1.7-1.7h6.4c1,0,1.7,0.8,1.7,1.7v189.3
			C346.6,343,345.9,343.8,344.9,343.8z"/>
		<path fill="#F6F6F6" d="M346.6,343.8h-7.4V155.3c0-1,0.8-1.7,1.7-1.7h5.7V343.8z"/>
		<path fill="#E9E9E9" d="M359.7,343.8h-6.4c-1,0-1.7-0.8-1.7-1.7V152.8c0-1,0.8-1.7,1.7-1.7h6.4c1,0,1.7,0.8,1.7,1.7v189.3
			C361.5,343,360.7,343.8,359.7,343.8z"/>
		<path fill="#F6F6F6" d="M361.5,343.8h-7.4V155.3c0-1,0.8-1.7,1.7-1.7h5.7V343.8z"/>
		<path fill="#E9E9E9" d="M374.6,343.8h-6.4c-1,0-1.7-0.8-1.7-1.7V152.8c0-1,0.8-1.7,1.7-1.7h6.4c1,0,1.7,0.8,1.7,1.7v189.3
			C376.3,343,375.5,343.8,374.6,343.8z"/>
		<path fill="#F6F6F6" d="M376.3,343.8h-7.4V155.3c0-1,0.8-1.7,1.7-1.7h5.7V343.8z"/>
		<path fill="#E9E9E9" d="M389.4,343.8H383c-1,0-1.7-0.8-1.7-1.7V152.8c0-1,0.8-1.7,1.7-1.7h6.4c1,0,1.7,0.8,1.7,1.7v189.3
			C391.1,343,390.3,343.8,389.4,343.8z"/>
		<path fill="#F6F6F6" d="M391.1,343.8h-7.4V155.3c0-1,0.8-1.7,1.7-1.7h5.7V343.8z"/>
		<path fill="#E9E9E9" d="M404.2,343.8h-6.4c-1,0-1.7-0.8-1.7-1.7V152.8c0-1,0.8-1.7,1.7-1.7h6.4c1,0,1.7,0.8,1.7,1.7v189.3
			C406,343,405.2,343.8,404.2,343.8z"/>
		<path fill="#F6F6F6" d="M406,343.8h-7.4V155.3c0-1,0.8-1.7,1.7-1.7h5.7V343.8z"/>
		<path fill="#E9E9E9" d="M419.1,343.8h-6.4c-1,0-1.7-0.8-1.7-1.7V152.8c0-1,0.8-1.7,1.7-1.7h6.4c1,0,1.7,0.8,1.7,1.7v189.3
			C420.8,343,420,343.8,419.1,343.8z"/>
		<path fill="#F6F6F6" d="M420.8,343.8h-7.4V155.3c0-1,0.8-1.7,1.7-1.7h5.7V343.8z"/>
		<path fill="#E9E9E9" d="M433.9,343.8h-6.4c-1,0-1.7-0.8-1.7-1.7V152.8c0-1,0.8-1.7,1.7-1.7h6.4c1,0,1.7,0.8,1.7,1.7v189.3
			C435.6,343,434.8,343.8,433.9,343.8z"/>
		<path fill="#F6F6F6" d="M435.6,343.8h-7.4V155.3c0-1,0.8-1.7,1.7-1.7h5.7V343.8z"/>
		<path fill="#E9E9E9" d="M448.7,343.8h-6.4c-1,0-1.7-0.8-1.7-1.7V152.8c0-1,0.8-1.7,1.7-1.7h6.4c1,0,1.7,0.8,1.7,1.7v189.3
			C450.4,343,449.7,343.8,448.7,343.8z"/>
		<path fill="#F6F6F6" d="M450.4,343.8H443V155.3c0-1,0.8-1.7,1.7-1.7h5.7V343.8z"/>
		<path fill="#E9E9E9" d="M463.5,343.8h-6.4c-1,0-1.7-0.8-1.7-1.7V152.8c0-1,0.8-1.7,1.7-1.7h6.4c1,0,1.7,0.8,1.7,1.7v189.3
			C465.3,343,464.5,343.8,463.5,343.8z"/>
		<path fill="#F6F6F6" d="M465.3,343.8h-7.4V155.3c0-1,0.8-1.7,1.7-1.7h5.7V343.8z"/>
		<path fill="#E9E9E9" d="M478.4,343.8H472c-1,0-1.7-0.8-1.7-1.7V152.8c0-1,0.8-1.7,1.7-1.7h6.4c1,0,1.7,0.8,1.7,1.7v189.3
			C480.1,343,479.3,343.8,478.4,343.8z"/>
		<path fill="#F6F6F6" d="M480.1,343.8h-7.4V155.3c0-1,0.8-1.7,1.7-1.7h5.7V343.8z"/>
		<path fill="#E9E9E9" d="M493.2,343.8h-6.4c-1,0-1.7-0.8-1.7-1.7V152.8c0-1,0.8-1.7,1.7-1.7h6.4c1,0,1.7,0.8,1.7,1.7v189.3
			C494.9,343,494.2,343.8,493.2,343.8z"/>
		<path fill="#F6F6F6" d="M494.9,343.8h-7.4V155.3c0-1,0.8-1.7,1.7-1.7h5.7V343.8z"/>
	</g>
	<path fill="#B59959" d="M116,143.6v14.8h-4.3c-1,0-1.9-0.8-1.9-1.9v-0.8c0,0.1-0.1,0.2-0.2,0.2h-5.7c-0.1,0-0.2-0.1-0.2-0.2v-9.4
		c0-0.1,0.1-0.2,0.2-0.2h5.7c0.1,0,0.2,0.1,0.2,0.2v-0.8c0-1,0.8-1.9,1.9-1.9H116z"/>
	<path fill="#FAFAFA" d="M106.1,138.6v26.1c0,1.3-1,2.4-2.3,2.4h-9c-1.3,0-2.3-1.1-2.3-2.4l0,0c0-0.1-0.1-0.2-0.2-0.2l-24.9-1.1
		c-1.1,0-2.1-1-2.1-2.2v-19.1c0-1.1,0.9-2.1,2.1-2.2l24.9-1.1c0.1,0,0.2-0.1,0.2-0.2v0c0-1.3,1-2.4,2.3-2.4h9
		C105,136.2,106.1,137.3,106.1,138.6z"/>
	<path fill="#ADADAD" d="M94.5,142.4h-4.1c-0.2,0-0.4-0.2-0.4-0.4v-0.4c0-0.2,0.2-0.4,0.4-0.4h4.1c0.2,0,0.4,0.2,0.4,0.4v0.4
		C94.9,142.2,94.8,142.4,94.5,142.4z"/>
	<path fill="#ADADAD" d="M94.5,147.3h-4.1c-0.2,0-0.4-0.2-0.4-0.4v-0.4c0-0.2,0.2-0.4,0.4-0.4h4.1c0.2,0,0.4,0.2,0.4,0.4v0.4
		C94.9,147.2,94.8,147.3,94.5,147.3z"/>
	<path fill="#ADADAD" d="M99.5,152.3h-9.1c-0.2,0-0.4-0.2-0.4-0.4v-0.4c0-0.2,0.2-0.4,0.4-0.4h9.1c0.2,0,0.4,0.2,0.4,0.4v0.4
		C99.9,152.1,99.7,152.3,99.5,152.3z"/>
	<path fill="#ADADAD" d="M94.5,157.2h-4.1c-0.2,0-0.4-0.2-0.4-0.4v-0.4c0-0.2,0.2-0.4,0.4-0.4h4.1c0.2,0,0.4,0.2,0.4,0.4v0.4
		C94.9,157,94.8,157.2,94.5,157.2z"/>
	<path fill="#ADADAD" d="M94.5,160.9h-4.1c-0.2,0-0.4,0.2-0.4,0.4v0.4c0,0.2,0.2,0.4,0.4,0.4h4.1c0.2,0,0.4-0.2,0.4-0.4v-0.4
		C94.9,161.1,94.8,160.9,94.5,160.9z"/>
	<path fill="#E9E9E9" d="M87.1,160.9H69.4c-0.2,0-0.4-0.2-0.4-0.4v-0.4c0-0.2,0.2-0.4,0.4-0.4h17.7c0.2,0,0.4,0.2,0.4,0.4v0.4
		C87.5,160.7,87.3,160.9,87.1,160.9z"/>
	<path fill="#E9E9E9" d="M87.1,158.5H69.4c-0.2,0-0.4-0.2-0.4-0.4v-0.4c0-0.2,0.2-0.4,0.4-0.4h17.7c0.2,0,0.4,0.2,0.4,0.4v0.4
		C87.5,158.3,87.3,158.5,87.1,158.5z"/>
	<path fill="#E9E9E9" d="M87.1,156H69.4c-0.2,0-0.4-0.2-0.4-0.4v-0.4c0-0.2,0.2-0.4,0.4-0.4h17.7c0.2,0,0.4,0.2,0.4,0.4v0.4
		C87.5,155.8,87.3,156,87.1,156z"/>
	<path fill="#E9E9E9" d="M87.1,153.5H69.4c-0.2,0-0.4-0.2-0.4-0.4v-0.4c0-0.2,0.2-0.4,0.4-0.4h17.7c0.2,0,0.4,0.2,0.4,0.4v0.4
		C87.5,153.3,87.3,153.5,87.1,153.5z"/>
	<path fill="#E9E9E9" d="M87.1,151H69.4c-0.2,0-0.4-0.2-0.4-0.4v-0.4c0-0.2,0.2-0.4,0.4-0.4h17.7c0.2,0,0.4,0.2,0.4,0.4v0.4
		C87.5,150.9,87.3,151,87.1,151z"/>
	<path fill="#E9E9E9" d="M87.1,148.6H69.4c-0.2,0-0.4-0.2-0.4-0.4v-0.4c0-0.2,0.2-0.4,0.4-0.4h17.7c0.2,0,0.4,0.2,0.4,0.4v0.4
		C87.5,148.4,87.3,148.6,87.1,148.6z"/>
	<path fill="#E9E9E9" d="M87.1,146.1H69.4c-0.2,0-0.4-0.2-0.4-0.4v-0.4c0-0.2,0.2-0.4,0.4-0.4h17.7c0.2,0,0.4,0.2,0.4,0.4v0.4
		C87.5,145.9,87.3,146.1,87.1,146.1z"/>
	<path fill="#E9E9E9" d="M87.1,143.6H69.4c-0.2,0-0.4-0.2-0.4-0.4v-0.4c0-0.2,0.2-0.4,0.4-0.4h17.7c0.2,0,0.4,0.2,0.4,0.4v0.4
		C87.5,143.4,87.3,143.6,87.1,143.6z"/>
</g>
</svg>
