<?xml version="1.0" encoding="utf-8"?>
<!-- Generator: Adobe Illustrator 24.3.0, SVG Export Plug-In . SVG Version: 6.00 Build 0)  -->
<svg version="1.1" id="Layer_1" xmlns="http://www.w3.org/2000/svg" xmlns:xlink="http://www.w3.org/1999/xlink" x="0px" y="0px"
	 width="672.9px" height="499.1px" viewBox="0 0 672.9 499.1" enable-background="new 0 0 672.9 499.1" xml:space="preserve">
<rect fill="#C5E2E1" width="672.9" height="499.1"/>
<g>
	<linearGradient id="SVGID_2_" gradientUnits="userSpaceOnUse" x1="326.8666" y1="322.3996" x2="326.8666" y2="472.0632">
		<stop  offset="6.805650e-03" style="stop-color:#FF884D"/>
		<stop  offset="9.352650e-02" style="stop-color:#FF9B6A"/>
		<stop  offset="0.2471" style="stop-color:#FFBA97"/>
		<stop  offset="0.4019" style="stop-color:#FFD3BD"/>
		<stop  offset="0.5552" style="stop-color:#FFE6DA"/>
		<stop  offset="0.7069" style="stop-color:#FFF4EE"/>
		<stop  offset="0.8561" style="stop-color:#FFFCFB"/>
		<stop  offset="1" style="stop-color:#FFFFFF"/>
	</linearGradient>
	<path fill="url(#SVGID_2_)" d="M451,477.4H202.7c-3.1,0-5.6-2.5-5.6-5.6V323.1c0-3.1,2.5-5.6,5.6-5.6H451c3.1,0,5.6,2.5,5.6,5.6
		v148.7C456.6,474.9,454.1,477.4,451,477.4z"/>
	<g>
		<g>
			<linearGradient id="SVGID_4_" gradientUnits="userSpaceOnUse" x1="326.6667" y1="319.118" x2="326.6667" y2="476.1753">
				<stop  offset="7.203521e-03" style="stop-color:#E57341"/>
				<stop  offset="9.857299e-02" style="stop-color:#E68960"/>
				<stop  offset="0.2411" style="stop-color:#E7A68A"/>
				<stop  offset="0.3868" style="stop-color:#E8BEAC"/>
				<stop  offset="0.5342" style="stop-color:#E8D1C7"/>
				<stop  offset="0.6839" style="stop-color:#E9DEDA"/>
				<stop  offset="0.8373" style="stop-color:#E9E6E5"/>
				<stop  offset="1" style="stop-color:#E9E9E9"/>
			</linearGradient>
			<path fill="url(#SVGID_4_)" d="M447.3,321.1c3.1,0,5.6,2.5,5.6,5.6v141.8c0,3.1-2.5,5.6-5.6,5.6H206c-3.1,0-5.6-2.5-5.6-5.6
				V326.7c0-3.1,2.5-5.6,5.6-5.6H447.3 M447.3,319.1H206c-4.2,0-7.6,3.4-7.6,7.6v141.8c0,4.2,3.4,7.6,7.6,7.6h241.4
				c4.2,0,7.6-3.4,7.6-7.6V326.7C455,322.5,451.6,319.1,447.3,319.1L447.3,319.1z"/>
		</g>
	</g>
	<g>
		<path fill="#E9E9E9" d="M210.6,460.3h-3.1c-1,0-1.7-0.8-1.7-1.7V334.7c0-1,0.8-1.7,1.7-1.7h3.1c1,0,1.7,0.8,1.7,1.7v123.8
			C212.3,459.5,211.6,460.3,210.6,460.3z"/>
		<path fill="#F6F6F6" d="M212.3,460.3h-4.9v-124c0-1,0.8-1.7,1.7-1.7h3.2V460.3z"/>
		<path fill="#E9E9E9" d="M220.4,460.3h-3.1c-1,0-1.7-0.8-1.7-1.7V334.7c0-1,0.8-1.7,1.7-1.7h3.1c1,0,1.7,0.8,1.7,1.7v123.8
			C222.1,459.5,221.4,460.3,220.4,460.3z"/>
		<path fill="#F6F6F6" d="M222.1,460.3h-4.9v-124c0-1,0.8-1.7,1.7-1.7h3.2V460.3z"/>
		<path fill="#E9E9E9" d="M230.2,460.3h-3.1c-1,0-1.7-0.8-1.7-1.7V334.7c0-1,0.8-1.7,1.7-1.7h3.1c1,0,1.7,0.8,1.7,1.7v123.8
			C231.9,459.5,231.1,460.3,230.2,460.3z"/>
		<path fill="#F6F6F6" d="M231.9,460.3H227v-124c0-1,0.8-1.7,1.7-1.7h3.2V460.3z"/>
		<path fill="#E9E9E9" d="M240,460.3h-3.1c-1,0-1.7-0.8-1.7-1.7V334.7c0-1,0.8-1.7,1.7-1.7h3.1c1,0,1.7,0.8,1.7,1.7v123.8
			C241.7,459.5,240.9,460.3,240,460.3z"/>
		<path fill="#F6F6F6" d="M241.7,460.3h-4.9v-124c0-1,0.8-1.7,1.7-1.7h3.2V460.3z"/>
		<path fill="#E9E9E9" d="M249.8,460.3h-3.1c-1,0-1.7-0.8-1.7-1.7V334.7c0-1,0.8-1.7,1.7-1.7h3.1c1,0,1.7,0.8,1.7,1.7v123.8
			C251.5,459.5,250.7,460.3,249.8,460.3z"/>
		<path fill="#F6F6F6" d="M251.5,460.3h-4.9v-124c0-1,0.8-1.7,1.7-1.7h3.2V460.3z"/>
		<path fill="#E9E9E9" d="M259.6,460.3h-3.1c-1,0-1.7-0.8-1.7-1.7V334.7c0-1,0.8-1.7,1.7-1.7h3.1c1,0,1.7,0.8,1.7,1.7v123.8
			C261.3,459.5,260.5,460.3,259.6,460.3z"/>
		<path fill="#F6F6F6" d="M261.3,460.3h-4.9v-124c0-1,0.8-1.7,1.7-1.7h3.2V460.3z"/>
		<path fill="#E9E9E9" d="M269.4,460.3h-3.1c-1,0-1.7-0.8-1.7-1.7V334.7c0-1,0.8-1.7,1.7-1.7h3.1c1,0,1.7,0.8,1.7,1.7v123.8
			C271.1,459.5,270.3,460.3,269.4,460.3z"/>
		<path fill="#F6F6F6" d="M271.1,460.3h-4.9v-124c0-1,0.8-1.7,1.7-1.7h3.2V460.3z"/>
		<path fill="#E9E9E9" d="M279.2,460.3h-3.1c-1,0-1.7-0.8-1.7-1.7V334.7c0-1,0.8-1.7,1.7-1.7h3.1c1,0,1.7,0.8,1.7,1.7v123.8
			C280.9,459.5,280.1,460.3,279.2,460.3z"/>
		<path fill="#F6F6F6" d="M280.9,460.3H276v-124c0-1,0.8-1.7,1.7-1.7h3.2V460.3z"/>
		<path fill="#E9E9E9" d="M289,460.3h-3.1c-1,0-1.7-0.8-1.7-1.7V334.7c0-1,0.8-1.7,1.7-1.7h3.1c1,0,1.7,0.8,1.7,1.7v123.8
			C290.7,459.5,289.9,460.3,289,460.3z"/>
		<path fill="#F6F6F6" d="M290.7,460.3h-4.9v-124c0-1,0.8-1.7,1.7-1.7h3.2V460.3z"/>
		<path fill="#E9E9E9" d="M298.7,460.3h-3.1c-1,0-1.7-0.8-1.7-1.7V334.7c0-1,0.8-1.7,1.7-1.7h3.1c1,0,1.7,0.8,1.7,1.7v123.8
			C300.5,459.5,299.7,460.3,298.7,460.3z"/>
		<path fill="#F6F6F6" d="M300.5,460.3h-4.9v-124c0-1,0.8-1.7,1.7-1.7h3.2V460.3z"/>
		<path fill="#E9E9E9" d="M308.5,460.3h-3.1c-1,0-1.7-0.8-1.7-1.7V334.7c0-1,0.8-1.7,1.7-1.7h3.1c1,0,1.7,0.8,1.7,1.7v123.8
			C310.3,459.5,309.5,460.3,308.5,460.3z"/>
		<path fill="#F6F6F6" d="M310.3,460.3h-4.9v-124c0-1,0.8-1.7,1.7-1.7h3.2V460.3z"/>
		<path fill="#E9E9E9" d="M318.3,460.3h-3.1c-1,0-1.7-0.8-1.7-1.7V334.7c0-1,0.8-1.7,1.7-1.7h3.1c1,0,1.7,0.8,1.7,1.7v123.8
			C320.1,459.5,319.3,460.3,318.3,460.3z"/>
		<path fill="#F6F6F6" d="M320.1,460.3h-4.9v-124c0-1,0.8-1.7,1.7-1.7h3.2V460.3z"/>
		<path fill="#E9E9E9" d="M328.1,460.3h-3.1c-1,0-1.7-0.8-1.7-1.7V334.7c0-1,0.8-1.7,1.7-1.7h3.1c1,0,1.7,0.8,1.7,1.7v123.8
			C329.9,459.5,329.1,460.3,328.1,460.3z"/>
		<path fill="#F6F6F6" d="M329.9,460.3H325v-124c0-1,0.8-1.7,1.7-1.7h3.2V460.3z"/>
		<path fill="#E9E9E9" d="M337.9,460.3h-3.1c-1,0-1.7-0.8-1.7-1.7V334.7c0-1,0.8-1.7,1.7-1.7h3.1c1,0,1.7,0.8,1.7,1.7v123.8
			C339.7,459.5,338.9,460.3,337.9,460.3z"/>
		<path fill="#F6F6F6" d="M339.7,460.3h-4.9v-124c0-1,0.8-1.7,1.7-1.7h3.2V460.3z"/>
		<path fill="#E9E9E9" d="M347.7,460.3h-3.1c-1,0-1.7-0.8-1.7-1.7V334.7c0-1,0.8-1.7,1.7-1.7h3.1c1,0,1.7,0.8,1.7,1.7v123.8
			C349.5,459.5,348.7,460.3,347.7,460.3z"/>
		<path fill="#F6F6F6" d="M349.5,460.3h-4.9v-124c0-1,0.8-1.7,1.7-1.7h3.2V460.3z"/>
		<path fill="#E9E9E9" d="M357.5,460.3h-3.1c-1,0-1.7-0.8-1.7-1.7V334.7c0-1,0.8-1.7,1.7-1.7h3.1c1,0,1.7,0.8,1.7,1.7v123.8
			C359.2,459.5,358.5,460.3,357.5,460.3z"/>
		<path fill="#F6F6F6" d="M359.2,460.3h-4.9v-124c0-1,0.8-1.7,1.7-1.7h3.2V460.3z"/>
		<path fill="#E9E9E9" d="M367.3,460.3h-3.1c-1,0-1.7-0.8-1.7-1.7V334.7c0-1,0.8-1.7,1.7-1.7h3.1c1,0,1.7,0.8,1.7,1.7v123.8
			C369,459.5,368.3,460.3,367.3,460.3z"/>
		<path fill="#F6F6F6" d="M369,460.3h-4.9v-124c0-1,0.8-1.7,1.7-1.7h3.2V460.3z"/>
		<path fill="#E9E9E9" d="M377.1,460.3H374c-1,0-1.7-0.8-1.7-1.7V334.7c0-1,0.8-1.7,1.7-1.7h3.1c1,0,1.7,0.8,1.7,1.7v123.8
			C378.8,459.5,378.1,460.3,377.1,460.3z"/>
		<path fill="#F6F6F6" d="M378.8,460.3h-4.9v-124c0-1,0.8-1.7,1.7-1.7h3.2V460.3z"/>
		<path fill="#E9E9E9" d="M386.9,460.3h-3.1c-1,0-1.7-0.8-1.7-1.7V334.7c0-1,0.8-1.7,1.7-1.7h3.1c1,0,1.7,0.8,1.7,1.7v123.8
			C388.6,459.5,387.8,460.3,386.9,460.3z"/>
		<path fill="#F6F6F6" d="M388.6,460.3h-4.9v-124c0-1,0.8-1.7,1.7-1.7h3.2V460.3z"/>
		<path fill="#E9E9E9" d="M396.7,460.3h-3.1c-1,0-1.7-0.8-1.7-1.7V334.7c0-1,0.8-1.7,1.7-1.7h3.1c1,0,1.7,0.8,1.7,1.7v123.8
			C398.4,459.5,397.6,460.3,396.7,460.3z"/>
		<path fill="#F6F6F6" d="M398.4,460.3h-4.9v-124c0-1,0.8-1.7,1.7-1.7h3.2V460.3z"/>
		<path fill="#E9E9E9" d="M406.5,460.3h-3.1c-1,0-1.7-0.8-1.7-1.7V334.7c0-1,0.8-1.7,1.7-1.7h3.1c1,0,1.7,0.8,1.7,1.7v123.8
			C408.2,459.5,407.4,460.3,406.5,460.3z"/>
		<path fill="#F6F6F6" d="M408.2,460.3h-4.9v-124c0-1,0.8-1.7,1.7-1.7h3.2V460.3z"/>
		<path fill="#E9E9E9" d="M416.3,460.3h-3.1c-1,0-1.7-0.8-1.7-1.7V334.7c0-1,0.8-1.7,1.7-1.7h3.1c1,0,1.7,0.8,1.7,1.7v123.8
			C418,459.5,417.2,460.3,416.3,460.3z"/>
		<path fill="#F6F6F6" d="M418,460.3h-4.9v-124c0-1,0.8-1.7,1.7-1.7h3.2V460.3z"/>
		<path fill="#E9E9E9" d="M426.1,460.3H423c-1,0-1.7-0.8-1.7-1.7V334.7c0-1,0.8-1.7,1.7-1.7h3.1c1,0,1.7,0.8,1.7,1.7v123.8
			C427.8,459.5,427,460.3,426.1,460.3z"/>
		<path fill="#F6F6F6" d="M427.8,460.3h-4.9v-124c0-1,0.8-1.7,1.7-1.7h3.2V460.3z"/>
		<path fill="#E9E9E9" d="M435.9,460.3h-3.1c-1,0-1.7-0.8-1.7-1.7V334.7c0-1,0.8-1.7,1.7-1.7h3.1c1,0,1.7,0.8,1.7,1.7v123.8
			C437.6,459.5,436.8,460.3,435.9,460.3z"/>
		<path fill="#F6F6F6" d="M437.6,460.3h-4.9v-124c0-1,0.8-1.7,1.7-1.7h3.2V460.3z"/>
		<path fill="#E9E9E9" d="M445.7,460.3h-3.1c-1,0-1.7-0.8-1.7-1.7V334.7c0-1,0.8-1.7,1.7-1.7h3.1c1,0,1.7,0.8,1.7,1.7v123.8
			C447.4,459.5,446.6,460.3,445.7,460.3z"/>
		<path fill="#F6F6F6" d="M447.4,460.3h-4.9v-124c0-1,0.8-1.7,1.7-1.7h3.2V460.3z"/>
	</g>
	<path fill="#B59959" d="M197.1,328.1v9.8h-2.8c-0.7,0-1.2-0.6-1.2-1.2v-0.5c0,0.1-0.1,0.1-0.1,0.1h-3.8c-0.1,0-0.1-0.1-0.1-0.1
		v-6.2c0-0.1,0.1-0.1,0.1-0.1h3.8c0.1,0,0.1,0.1,0.1,0.1v-0.5c0-0.7,0.6-1.2,1.2-1.2H197.1z"/>
	<path fill="#FAFAFA" d="M190.6,324.8V342c0,0.9-0.7,1.6-1.5,1.6h-5.9c-0.8,0-1.5-0.7-1.5-1.6l0,0c0-0.1-0.1-0.2-0.1-0.2l-16.4-0.7
		c-0.8,0-1.4-0.7-1.4-1.4v-12.6c0-0.8,0.6-1.4,1.4-1.4l16.4-0.7c0.1,0,0.1-0.1,0.1-0.2v0c0-0.9,0.7-1.6,1.5-1.6h5.9
		C189.9,323.2,190.6,323.9,190.6,324.8z"/>
	<path fill="#ADADAD" d="M182.8,327.3h-2.4c-0.2,0-0.4-0.2-0.4-0.4l0,0c0-0.2,0.2-0.4,0.4-0.4h2.4c0.2,0,0.4,0.2,0.4,0.4l0,0
		C183.2,327.1,183,327.3,182.8,327.3z"/>
	<path fill="#ADADAD" d="M182.8,330.5h-2.4c-0.2,0-0.4-0.2-0.4-0.4l0,0c0-0.2,0.2-0.4,0.4-0.4h2.4c0.2,0,0.4,0.2,0.4,0.4l0,0
		C183.2,330.3,183,330.5,182.8,330.5z"/>
	<path fill="#ADADAD" d="M186.1,333.8h-5.7c-0.2,0-0.4-0.2-0.4-0.4l0,0c0-0.2,0.2-0.4,0.4-0.4h5.7c0.2,0,0.4,0.2,0.4,0.4l0,0
		C186.5,333.6,186.3,333.8,186.1,333.8z"/>
	<path fill="#ADADAD" d="M182.8,337.1h-2.4c-0.2,0-0.4-0.2-0.4-0.4l0,0c0-0.2,0.2-0.4,0.4-0.4h2.4c0.2,0,0.4,0.2,0.4,0.4l0,0
		C183.2,336.9,183,337.1,182.8,337.1z"/>
	<path fill="#ADADAD" d="M182.8,339.5h-2.4c-0.2,0-0.4,0.2-0.4,0.4l0,0c0,0.2,0.2,0.4,0.4,0.4h2.4c0.2,0,0.4-0.2,0.4-0.4l0,0
		C183.2,339.7,183,339.5,182.8,339.5z"/>
	<path fill="#E9E9E9" d="M177.9,339.5h-11.4c-0.2,0-0.4-0.2-0.4-0.4l0,0c0-0.2,0.2-0.4,0.4-0.4h11.4c0.2,0,0.4,0.2,0.4,0.4l0,0
		C178.3,339.3,178.1,339.5,177.9,339.5z"/>
	<path fill="#E9E9E9" d="M177.9,337.9h-11.4c-0.2,0-0.4-0.2-0.4-0.4l0,0c0-0.2,0.2-0.4,0.4-0.4h11.4c0.2,0,0.4,0.2,0.4,0.4l0,0
		C178.3,337.7,178.1,337.9,177.9,337.9z"/>
	<path fill="#E9E9E9" d="M177.9,336.2h-11.4c-0.2,0-0.4-0.2-0.4-0.4l0,0c0-0.2,0.2-0.4,0.4-0.4h11.4c0.2,0,0.4,0.2,0.4,0.4l0,0
		C178.3,336.1,178.1,336.2,177.9,336.2z"/>
	<path fill="#E9E9E9" d="M177.9,334.6h-11.4c-0.2,0-0.4-0.2-0.4-0.4l0,0c0-0.2,0.2-0.4,0.4-0.4h11.4c0.2,0,0.4,0.2,0.4,0.4l0,0
		C178.3,334.4,178.1,334.6,177.9,334.6z"/>
	<path fill="#E9E9E9" d="M177.9,333h-11.4c-0.2,0-0.4-0.2-0.4-0.4l0,0c0-0.2,0.2-0.4,0.4-0.4h11.4c0.2,0,0.4,0.2,0.4,0.4l0,0
		C178.3,332.8,178.1,333,177.9,333z"/>
	<path fill="#E9E9E9" d="M177.9,331.3h-11.4c-0.2,0-0.4-0.2-0.4-0.4l0,0c0-0.2,0.2-0.4,0.4-0.4h11.4c0.2,0,0.4,0.2,0.4,0.4l0,0
		C178.3,331.2,178.1,331.3,177.9,331.3z"/>
	<path fill="#E9E9E9" d="M177.9,329.7h-11.4c-0.2,0-0.4-0.2-0.4-0.4l0,0c0-0.2,0.2-0.4,0.4-0.4h11.4c0.2,0,0.4,0.2,0.4,0.4l0,0
		C178.3,329.5,178.1,329.7,177.9,329.7z"/>
	<path fill="#E9E9E9" d="M177.9,328.1h-11.4c-0.2,0-0.4-0.2-0.4-0.4l0,0c0-0.2,0.2-0.4,0.4-0.4h11.4c0.2,0,0.4,0.2,0.4,0.4l0,0
		C178.3,327.9,178.1,328.1,177.9,328.1z"/>
</g>
<g>
	<rect x="148.1" y="34.9" fill="#A7DBD9" width="347" height="262"/>
	<path fill="#8CC94D" d="M140.6,215.3c0,0,30.5-37.4,81.8-37.6c51.2-0.2,91.4,37.6,91.4,37.6s23.4-18.8,57.1-18.8s66.7,23,81.7,23
		s50,4,50,4v79h-362V215.3z"/>
	<rect x="155.1" y="38.9" fill="#E9E9E9" width="12" height="256"/>
	<rect x="482.1" y="37.9" fill="#E9E9E9" width="11" height="256"/>
	<rect x="153" y="41.3" fill="#E9E9E9" width="9" height="249.2"/>
	<polygon fill="#E9E9E9" points="242.2,62.6 242.2,259.9 239.3,260.7 239.3,62.6 	"/>
	<path fill="#FFFFFF" d="M140.6,29.7v272.7h362V29.7H140.6z M490.3,290.5H153V41.3h337.3V290.5z"/>
	<rect x="153.4" y="281.8" fill="#FFFFFF" width="170.6" height="9"/>
	<rect x="157.1" y="166.9" fill="#E9E9E9" width="334.5" height="12"/>
	<rect x="157.1" y="40.9" fill="#E9E9E9" width="334.5" height="14"/>
	<rect x="405.3" y="41.3" fill="#FFFFFF" width="9" height="249.2"/>
	<rect x="324.3" y="41.3" fill="#FFFFFF" width="9" height="249.2"/>
	<rect x="324.5" y="281.8" fill="#FFFFFF" width="170.6" height="9"/>
	<rect x="315.3" y="41.3" fill="#FFFFFF" width="9" height="249.2"/>
	<rect x="324.5" y="40.8" fill="#FFFFFF" width="170.6" height="9"/>
	<rect x="150.1" y="41.3" fill="#FFFFFF" width="12.2" height="249.2"/>
	<rect x="324.5" y="165.8" fill="#FFFFFF" width="170.6" height="9"/>
	<rect x="153.4" y="40.8" fill="#FFFFFF" width="170.6" height="9"/>
	<rect x="486.3" y="41.3" fill="#FFFFFF" width="12.2" height="249.2"/>
	<rect x="234.3" y="41.3" fill="#FFFFFF" width="9" height="249.2"/>
	<rect x="153.4" y="165.8" fill="#FFFFFF" width="170.6" height="9"/>
	<path fill="#B59959" d="M328.6,181.9L328.6,181.9c-1.4,0-2.5-1.1-2.5-2.5v-19c0-1.4,1.1-2.5,2.5-2.5l0,0c1.4,0,2.5,1.1,2.5,2.5v19
		C331.1,180.8,330,181.9,328.6,181.9z"/>
	<path fill="#B59959" d="M319.6,181.9L319.6,181.9c-1.4,0-2.5-1.1-2.5-2.5v-19c0-1.4,1.1-2.5,2.5-2.5l0,0c1.4,0,2.5,1.1,2.5,2.5v19
		C322.1,180.8,321,181.9,319.6,181.9z"/>
</g>
<g>
	<path fill="#FF884D" d="M227.7,308.4c1-3.2,1.8-6.6,2.4-10c0.6-3.4,1-6.8,1.2-10.3c0.4-6.9,0-13.9-1.6-20.6
		c-1.5-6.7-4.1-13.2-7.9-18.9c-3.7-5.8-8.6-10.8-14.2-14.9c-5.5-4.1-11.8-7.3-18.2-9.8c-3.2-1.3-6.6-2.3-9.9-3.3
		c-3.4-1-6.7-1.6-10.2-2.5c-6.9-1.8-13.6-4.5-19.5-8.6c-2.9-2.1-5.6-4.5-7.8-7.4c-2.2-2.8-4-6-5.2-9.4c-2.4-6.8-2.5-14.2-1.3-21.2
		c1.2-7,3.6-13.7,6.7-20.1c3.1-6.4,6.9-12.4,11.2-17.9c2.2-2.8,4.4-5.5,6.9-8c2.5-2.5,4.6-5.3,6.5-8.2c3.7-6,6.1-12.6,7.8-19.4
		c1.7-6.8,2.8-13.8,3.4-20.8c0.6-7,0.8-14,0.6-21.1c-0.2-7-0.6-14.1-1.5-21c0.9,7,1.4,14,1.6,21c0.2,7,0,14.1-0.5,21.1
		c-0.6,7-1.6,14-3.3,20.8c-1.7,6.8-4.1,13.5-7.8,19.6c-1.8,3-4,5.8-6.5,8.4c-2.4,2.6-4.6,5.3-6.7,8.1c-4.2,5.6-7.9,11.6-10.8,17.9
		c-3,6.3-5.3,13-6.3,19.9c-1.1,6.8-0.8,14,1.6,20.4c1.2,3.2,2.9,6.2,5.1,8.9c2.2,2.7,4.7,5,7.6,6.9c5.7,3.9,12.3,6.4,19,8.1
		c3.3,0.8,6.9,1.5,10.3,2.4c3.4,0.9,6.8,2,10.1,3.3c6.6,2.5,13.1,5.8,18.9,10c5.8,4.2,10.9,9.4,14.9,15.4c4,6,6.8,12.8,8.4,19.7
		c1.6,7,2.1,14.2,1.8,21.3c-0.2,3.6-0.6,7.1-1.2,10.6c-0.6,3.5-1.4,7-2.5,10.5c-0.3,0.8-1.1,1.2-1.9,1
		C227.8,310.1,227.4,309.3,227.7,308.4L227.7,308.4L227.7,308.4z"/>
</g>
</svg>
