<?xml version="1.0" encoding="utf-8"?>
<!-- Generator: Adobe Illustrator 24.3.0, SVG Export Plug-In . SVG Version: 6.00 Build 0)  -->
<svg version="1.1" id="Layer_1" xmlns="http://www.w3.org/2000/svg" xmlns:xlink="http://www.w3.org/1999/xlink" x="0px" y="0px"
	 width="672.9px" height="499.1px" viewBox="0 0 672.9 499.1" enable-background="new 0 0 672.9 499.1" xml:space="preserve">
<rect fill="#C5E2E1" width="672.9" height="499.1"/>
<polygon fill="#FF884D" points="592.2,214.3 570.9,214.3 570.9,271.6 411.6,271.6 411.6,144.6 560.9,144.6 "/>
<polygon fill="#FF884D" points="615.1,303.2 603.6,303.2 603.6,400 356.1,400 356.1,271.6 570.9,271.6 571.6,272 582.7,280 
	586.2,282.5 "/>
<polygon fill="#FF884D" points="411.6,144.6 411.6,271.6 76.4,271.6 76.4,214.3 50.8,214.3 80,144.6 164.1,144.6 199.2,119.1 
	234.2,144.6 "/>
<polygon fill="#FF884D" points="356.1,271.6 356.1,282.5 356,393.6 76.4,393.6 76.4,271.6 "/>
<g>
	<path fill="#EEEEEC" d="M340.3,177.7V341c0,3.6-2.7,6.6-6,6.6h0c-3.3,0-6-2.9-6-6.6V177.7c0-3.6,2.7-6.6,6-6.6h0
		C337.6,171.1,340.3,174.1,340.3,177.7z"/>
	<path fill="#FFFFFF" d="M334.5,371.7c-14.1,0-25.6-11.5-25.6-25.6c0-8.6,4.2-16.4,11.3-21.2V177.2c0-7.8,6.3-14.1,14.1-14.1
		c3.8,0,7.3,1.5,10,4.1c2.7,2.7,4.1,6.2,4.1,10v147.5c7.2,4.7,11.7,12.8,11.7,21.5C360.1,360.2,348.6,371.7,334.5,371.7z
		 M334.3,166.7c-5.8,0-10.5,4.7-10.5,10.5v149.7l-0.9,0.5c-6.5,4-10.4,11-10.4,18.7c0,12.1,9.8,22,22,22s22-9.8,22-22
		c0-7.7-4.1-15-10.8-18.9l-0.9-0.5V177.2c0-2.8-1.1-5.4-3.1-7.4C339.7,167.8,337.1,166.7,334.3,166.7z"/>
	<rect x="328.3" y="284.3" fill="#E57341" width="12.1" height="49.1"/>
	<circle fill="#E57341" cx="334.3" cy="345.9" r="16.5"/>
	<circle fill="#FF884D" cx="344.6" cy="346.1" r="3"/>
	<circle fill="#FF884D" cx="341.9" cy="353.2" r="2"/>
</g>
</svg>
