<?xml version="1.0" encoding="utf-8"?>
<!-- Generator: Adobe Illustrator 24.3.0, SVG Export Plug-In . SVG Version: 6.00 Build 0)  -->
<svg version="1.1" id="Layer_1" xmlns="http://www.w3.org/2000/svg" xmlns:xlink="http://www.w3.org/1999/xlink" x="0px" y="0px"
	 width="435px" height="280px" viewBox="0 0 435 280" enable-background="new 0 0 435 280" xml:space="preserve">

<g id="image_01">
	<rect x="1.5" y="0.6" fill="#8CC94D" width="432" height="279.4"/>

	<path fill="#DDDDDD" d="M185,99.2c0-0.4,33.9,108.4,10.8,165.1h44.8c0,0-26.8-38.2,9.3-167.2L185,99.2z"/>
	<path fill="#C6C6C6" d="M240.6,264.3h-16.5c-2.1-8.3-4.1-22.5-4.5-39.6c-0.5-22.4,10.8-74.2-0.2-90.8c-7.4-11.1-18.1-12.2-27.7-10
		c-3.6-15-6.6-24.6-6.7-24.6l64.9-2.2C213.9,226.1,240.6,264.3,240.6,264.3z"/>
	<path fill="#EAEAEA" d="M287.4,82.6c0,21.1-31,38.2-69.2,38.2S149,103.7,149,82.6c0-1.2,0.1-2.4,0.3-3.6h137.8
		C287.3,80.2,287.4,81.4,287.4,82.6z"/>
	<path fill="#DDDDDD" d="M287.4,82.6c0,21.1-31,38.2-69.2,38.2c-5.6,0-11.1-0.4-16.3-1.1c49.5-6,56-30.3,56-30.3s-87-0.2-107.8-0.1
		c-0.7-2.2-1.1-4.4-1.1-6.7c0-1.2,0.1-2.4,0.3-3.6h137.8C287.3,80.2,287.4,81.4,287.4,82.6z"/>
	
		<path fill="#B59959" d="M220.2,56.5h-5.4V39.2c0-1.1-0.3-10.1,5.3-16.2c3.1-3.4,7.4-5.2,12.8-5.3c4.4-0.1,8.1,1.3,11,4.1
			c6.1,6,6.2,16.3,6.2,16.7h-5.4h2.7l-2.7,0c0-0.1-0.1-8.5-4.5-12.9c-1.8-1.8-4.1-2.6-7-2.6c-3.9,0.1-6.8,1.2-8.9,3.5
			c-4.2,4.6-3.9,12.2-3.9,12.3l0,0.2V56.5z"/>
		<path fill="#B59959" d="M244.4,42.9h5.9c0.6,0,1-0.4,1-1v-3.3h-7.9v3.3C243.4,42.5,243.9,42.9,244.4,42.9z"/>
		<rect x="212.6" y="56.5" fill="#B59959" width="9.9" height="19"/>
		<path fill="#9E7D3C" d="M200.2,63.5c1.1,0.5,12.5,11.9,12.5,11.9V62.8l-10.8-1.5L200.2,63.5z"/>
		
			<path fill="#9E7D3C" d="M235,63.5c-1.1,0.5-12.5,11.9-12.5,11.9V62.8l10.8-1.5L235,63.5z"/>
		
		<path fill="#B59959" d="M196.9,69.9L196.9,69.9c-1-0.4-1.4-1.5-1-2.5l5.2-11.6c0.4-1,1.5-1.4,2.5-1l0,0c1,0.4,1.4,1.5,1,2.5
			L199.4,69C199,69.9,197.9,70.4,196.9,69.9z"/>
		<path fill="#B59959" d="M237.8,69.8L237.8,69.8c-1,0.4-2.1,0-2.5-1l-5-11.7c-0.4-1,0-2.1,1-2.5h0c1-0.4,2.1,0,2.5,1l5,11.7
			C239.2,68.3,238.7,69.4,237.8,69.8z"/>
	
	<path fill="#F7F7F7" d="M290.3,80c0.1,2.8-2.1,5.1-4.9,5.2c-0.7,0-33.3-0.1-66.6-0.2c0,0,0,0,0,0c-33.9,0.1-67.4,0.2-68.1,0.2
		c-2.8-0.1-5-2.4-4.9-5.2c0.1-2.8,2.4-5,5.2-4.9l67.1,0.2l67.1-0.2C287.9,75,290.2,77.2,290.3,80z"/>
	<path fill="#DDDDDD" d="M166.8,120.8l8.6,0.2C172.6,121.1,169.7,121,166.8,120.8z"/>
</g>
<g id="image_02">
	<rect x="1.5" y="0.6" fill="#F49376" width="432" height="279.4"/>

	<ellipse fill="#F7F7F7" cx="217.5" cy="78.8" rx="53.8" ry="62"/>
	<path fill="#DDDDDD" d="M243.1,28.6c-6.8-3.8-14.4-5.9-22.4-5.9c-28.3,0-51.2,26.4-51.2,59.1c0,14.1,4.3,27.1,11.4,37.2
		c-8.8-10.5-14.2-24.7-14.2-40.4c0-32.1,22.6-58.2,50.5-58.2C226.7,20.4,235.5,23.4,243.1,28.6z"/>
	<path fill="#EAEAEA" d="M267.7,78.5c0,32.1-22.6,58.2-50.5,58.2c-14.2,0-27.1-6.8-36.3-17.8c-7.2-10.2-11.4-23.1-11.4-37.2
		c0-32.6,22.9-59.1,51.2-59.1c8,0,15.6,2.1,22.4,5.9C257.8,38.8,267.7,57.3,267.7,78.5z"/>
	<path fill="#EFEFEF" d="M160.9,127.8c0,0,10.4-6.5,57.6-5.6s54,5.6,54,5.6v4.8H160.9V127.8z"/>
	<path fill="#C6C6C6" d="M181.5,128.5c0,0,13-2.6,35.3-2.7c23-0.1,35.5,2.7,35.5,2.7H181.5z"/>
	<path fill="#EAEAEA" d="M247.3,254.6c-0.2,1.5-3.2,3.4-7.9,5.1c-5.6,2-13.7,3.6-22.3,3.6h-0.7c-15.7,0-29.7-5.4-30.2-8.7
		c0,0,10.3-43.9,8.2-56.2c-0.2-1.2-0.6-2.5-1.1-3.8c-1.7-4.3-4.8-9.3-7.5-13.3l61.5,0.5c-3.6,5.2-7.5,11.8-8.3,16.6
		C237,210.7,247.3,254.6,247.3,254.6z"/>
	<path fill="#DDDDDD" d="M247.3,254.6c-0.2,1.5-3.2,3.4-7.9,5.1c1.9-42.7-21.3-65.4-41.5-65.4c-1.6,0-3.2,0.1-4.5,0.3
		c-1.7-4.3-4.8-9.3-7.5-13.3l61.5,0.5c-3.6,5.2-7.5,11.8-8.3,16.6C237,210.7,247.3,254.6,247.3,254.6z"/>
	<path fill="#C6C6C6" d="M247.4,181.8c-1.5,2.1-6.1,13.5-30.2,13.2c-24.8-0.3-29.9-11.7-31.3-13.6L247.4,181.8z"/>
	<path fill="#F7F7F7" d="M217.1,192.9c-12.3,0-22.1-3.6-29.9-9.1h0c-23-16.2-28.1-48.6-27-51.2c0,0,65.6,0,97.1,0h16.5
		C276.7,136.7,266.5,192.9,217.1,192.9z"/>
	<path fill="#EAEAEA" d="M217.1,192.9c-12.3,0-22.1-3.6-29.9-9.1c51.5,4.7,66-31.1,70.1-51.2h16.5
		C276.7,136.7,266.5,192.9,217.1,192.9z"/>
	<path fill="#DDDDDD" d="M194.1,42.8l-3.3,3.3c-1.1,1.1-2.8,1.1-3.8,0l-0.5-0.5c0,0,0,0,0,0c1.1,1,2.7,0.9,3.7-0.1l3.3-3.3
		c1-1,1.1-2.7,0.1-3.7c0,0,0,0,0,0l0.5,0.5C195.1,40,195.1,41.7,194.1,42.8z"/>
	<path fill="#F7F7F7" d="M193.4,42.1l-3.3,3.3c-1,1-2.7,1.1-3.7,0.1c-1-1-1-2.7,0-3.8l3.3-3.3c1-1,2.7-1.1,3.8,0
		C194.4,39.5,194.4,41.1,193.4,42.1z"/>
	<path fill="#DDDDDD" d="M252.2,45.2C252.1,45.2,252.1,45.3,252.2,45.2l-0.6,0.6c-1.1,1.1-2.8,1.1-3.8,0l-3.3-3.3
		c-1-1.1-1-2.8,0-3.8l0.5-0.5c0,0,0,0,0,0c-0.9,1.1-0.9,2.7,0.1,3.7l3.3,3.3C249.5,46.1,251.1,46.2,252.2,45.2z"/>
	<path fill="#F7F7F7" d="M252.2,45.2c-1.1,1-2.7,0.9-3.7-0.1l-3.3-3.3c-1-1-1-2.7-0.1-3.7c1.1-1,2.7-1,3.8,0l3.3,3.3
		C253.2,42.5,253.2,44.2,252.2,45.2z"/>
	<rect x="160.9" y="132.3" fill="#C6C6C6" width="111.6" height="0.3"/>
</g>
<g id="image_03">
	<rect x="1.5" y="0.6" fill="#F5B9BA" width="432" height="279.4"/>

	<path fill="#B59959" d="M284.3,237.8h-4.1c-5.2,0-9.5-4.3-9.5-9.5v-9.1c0-5.2,4.3-9.5,9.5-9.5h4.1c5.2,0,9.5,4.3,9.5,9.5v9.1
		C293.7,233.5,289.5,237.8,284.3,237.8z"/>
	<path fill="#B59959" d="M147.3,237.8h-4.1c-5.2,0-9.5-4.3-9.5-9.5v-9.1c0-5.2,4.3-9.5,9.5-9.5h4.1c5.2,0,9.5,4.3,9.5,9.5v9.1
		C156.7,233.5,152.5,237.8,147.3,237.8z"/>
	
		<defs>
			<path id="SVGID_1_" d="M147.3,237.8h-4.1c-5.2,0-9.5-4.3-9.5-9.5v-9.1c0-5.2,4.3-9.5,9.5-9.5h4.1c5.2,0,9.5,4.3,9.5,9.5v9.1
				C156.7,233.5,152.5,237.8,147.3,237.8z"/>
		</defs>
		<clipPath id="SVGID_2_">
			<use xlink:href="#SVGID_1_"  overflow="visible"/>
		</clipPath>
		<path opacity="0.5" clip-path="url(#SVGID_2_)" fill="#9E7D3C" d="M131.7,208.8v14c0,0,14,3,27,0l-2-16.8L131.7,208.8z"/>
	
		<defs>
			<path id="SVGID_3_" d="M284.3,237.8h-4.1c-5.2,0-9.5-4.3-9.5-9.5v-9.1c0-5.2,4.3-9.5,9.5-9.5h4.1c5.2,0,9.5,4.3,9.5,9.5v9.1
				C293.7,233.5,289.5,237.8,284.3,237.8z"/>
		</defs>
		<clipPath id="SVGID_4_">
			<use xlink:href="#SVGID_3_"  overflow="visible"/>
		</clipPath>
		<path opacity="0.5" clip-path="url(#SVGID_4_)" fill="#9E7D3C" d="M267.7,209.2v14c0,0,14,3,27,0l-2-16.8L267.7,209.2z"/>
	
	<path fill="#EAEAEA" d="M76.7,123.8c0,0,10.4,20.5,14,30c5.4,14.3,0.2,23.1,17,47c19,27,62,16,110,18c40-2.9,77,8,103-17
		c21.4-20.6,21-24,28-120l-65,5l-46.9,26.1l-48.1,9.9L76.7,123.8z"/>
	<path fill="#C6C6C6" d="M328.2,194.2c11.8-45.5,2.2-95.5-1.3-110.7l21.8-1.7C342.7,164.9,342.1,178.6,328.2,194.2z"/>
	<path fill="#DDDDDD" d="M328.2,194.2c-2.2,2.4-4.6,4.8-7.5,7.6c-13.2,12.7-29.3,16.2-47.2,16.8c22.4-47.9,8.7-100.9,8.7-100.9
		s-19.5,13.1-45.5,19.1c-22.1,5.1-121.2,5.1-151.3,4.8c-3.3-7-6.8-14-8.1-16.7l69.4,0.9l19.6-2.8l22.4-0.2l48.1-9.9l0.1,0l5.8-0.8
		l59.6-26.7l24.6-1.9C330.4,98.7,340,148.6,328.2,194.2z"/>
	<path fill="none" d="M146.7,125.7l-69.4-0.9c-0.4-0.7-0.6-1.1-0.6-1.1l89.6-0.8L146.7,125.7z"/>
	<polygon fill="none" points="242.7,112 236.9,112.8 283.7,86.7 302.3,85.3 	"/>
	<path fill="#F7F7F7" d="M115.1,134.3c-26.7,0-48.4-0.5-50.6-0.6c-3.9-0.1-6.9-3.3-6.8-7.2c0.1-3.9,3.3-6.9,7.2-6.8
		c34.1,0.8,126.8,1.6,147.6-4.6c27.2-10.1,41.6-18.2,53.2-24.7c23-12.9,33.5-18.8,98.7-17.2c3.9,0.1,6.9,3.3,6.8,7.2
		c-0.1,3.8-3.2,6.8-7,6.8c-0.1,0-0.1,0-0.2,0c-61.4-1.6-70.2,3.4-91.5,15.4c-11.4,6.4-27,15.2-55.4,25.7l-0.4,0.1
		C201.1,133.3,153.1,134.3,115.1,134.3z"/>
	<path fill="#C6E5E2" d="M167.9,119.5c-5.5,0.2-11.2,0.4-17,0.5c-6.5,0.1-13.1,0.2-19.7,0.3c-4.3,0-8.6,0.1-12.8,0.1
		c-3.9,0-7.8,0-11.6,0c-7.7,0-15-0.1-21.6-0.2c-0.2-1.1-0.3-2.2-0.3-3.4c0-9.4,7.6-17,17-17c1.8,0,3.6,0.3,5.3,0.8
		c3.8-8.2,12.1-13.8,21.7-13.8c12.3,0,22.5,9.3,23.8,21.2C159.4,108.9,165.1,113.4,167.9,119.5z"/>
	<path fill="#C6E5E2" d="M229.7,107.8c0,0.2,0,0.4,0,0.6c-5.1,2.2-10.8,4.4-17.2,6.8c-3.5,1-8.9,1.9-15.8,2.6c-1.9-2.8-3-6.2-3-9.9
		c0-9.9,8.1-18,18-18S229.7,97.8,229.7,107.8z"/>
	<circle fill="#C6E5E2" cx="270.7" cy="50.8" r="8"/>
	<path fill="#C6E5E2" d="M312.4,74.3c-11.5,1.2-19.6,3.2-26.8,6c-3.3,1.3-6.4,2.8-9.6,4.4c-3.3,1.7-6.7,3.6-10.4,5.7
		c-4.5,2.5-9.4,5.3-15.3,8.3c-4.7-3.9-7.7-9.8-7.7-16.4c0-11.9,9.6-21.5,21.5-21.5c5.5,0,10.6,2.1,14.4,5.5c3.5-4.6,9-7.5,15.1-7.5
		C303,58.8,310.8,65.5,312.4,74.3z"/>
</g>
<g id="image_04">
<rect x="1.5" y="0.6" fill="#8888BA" width="432" height="279.4"/>
	<path fill="#98D3CC" d="M217.4,223.9h-0.1c-42.9,0-76.9-41.1-48.4-87.4c34.4-50.6,47.1-76.3,48.4-79.2c0-0.1,0-0.1,0.1-0.1
		c0,0,0,0.1,0.1,0.1c1.4,2.8,14.1,28.6,48.4,79.2C294.3,182.8,260.3,223.9,217.4,223.9z"/>
	<path fill="#7BBFB5" d="M217.2,223.9c-42.9,0-77-41.1-48.4-87.4c34.4-50.6,47.1-76.3,48.4-79.2c0-0.1,0-0.1,0.1-0.1
		c0,0,0,0.1,0.1,0.1c0,0.1,0.1,0.2,0.1,0.2C212.1,90,153.7,202.2,217.2,223.9z"/>
	<ellipse fill="#C6E5E2" cx="251" cy="170.2" rx="11" ry="20.9"/>
</g>
<g id="image_05">
	<rect x="1.5" y="0.6" fill="#F9D162" width="432" height="279.4"/>

	<circle fill="#9E7D3C" cx="144.3" cy="53.9" r="7.9"/>
	<circle fill="#9E7D3C" cx="144.3" cy="253.4" r="7.9"/>
	<path fill="#9E7D3C" d="M174.2,139.2c-0.4-0.1-13.2,0-13.2,0v8h12.3L174.2,139.2z"/>
	<path fill="#D3AF67" d="M158.4,256h-15c-0.9,0-1.7-0.8-1.7-1.7v-1.8c0-0.9,0.8-1.7,1.7-1.7h15c0.9,0,1.7,0.8,1.7,1.7v1.8
		C160.1,255.3,159.4,256,158.4,256z"/>
	<path fill="#D3AF67" d="M160.6,56.5h-17.2c-0.9,0-1.7-0.8-1.7-1.7v-1.8c0-0.9,0.8-1.7,1.7-1.7h17.2V56.5z"/>
	<path fill="#B59959" d="M160.8,265.9h-3.1c-1.6,0-2.9-1.3-2.9-2.9V44.6c0-1.6,1.3-2.9,2.9-2.9h3.1c1.6,0,2.9,1.3,2.9,2.9V263
		C163.7,264.6,162.4,265.9,160.8,265.9z"/>
	<path fill="#B59959" d="M219.5,83.7c0,0-24.2-18-46.6,52.7l6.6,1.8c0,0,18.9-44,18.9-44c1.8,1.3,4.4,3.1,4.4,3.1
		S216.4,93.4,219.5,83.7z"/>
	<path fill="#7F612A" d="M219.5,83.7c4.8,4.8-11.9,18-16.7,13.6C202.8,97.4,219.5,83.7,219.5,83.7z"/>
	
		<defs>
			<path id="SVGID_5_" d="M219.5,83.7c0,0-24.2-18-46.6,52.7l6.6,1.8c0,0,18.9-44,18.9-44c1.8,1.3,4.4,3.1,4.4,3.1
				S215.5,89,219.5,83.7z"/>
		</defs>
		<clipPath id="SVGID_2_">
			<use xlink:href="#SVGID_5_"  overflow="visible"/>
		</clipPath>
		<path clip-path="url(#SVGID_2_)" fill="#D3AF67" d="M220.8,79.6c0,0-27.2-6.8-51.4,71.4l0.4-50.1c0,0,36-25.9,36.9-25.9
			S220.8,79.6,220.8,79.6z"/>

	<polygon fill="#9E7D3C" points="168.9,148.4 172.9,136.5 179.5,138.2 174.2,149.9 	"/>

		<defs>
			<path id="SVGID_7_" d="M219.5,83.7c4.8,4.8-11.9,18-16.7,13.6C202.8,97.4,219.5,83.7,219.5,83.7z"/>
		</defs>
		<clipPath id="SVGID_4_">
			<use xlink:href="#SVGID_7_"  overflow="visible"/>
		</clipPath>
		<path clip-path="url(#SVGID_4_)" fill="#9E7D3C" d="M220.8,82.4c0,0-4.4,9.7-18.5,15.4C202.8,95.2,220.8,82.4,220.8,82.4z"/>
	
	<rect x="153.5" y="134.7" fill="#9E7D3C" width="11.4" height="15.8"/>
	<circle fill="#9E7D3C" cx="119.5" cy="25.9" r="11.2"/>
	<circle fill="#9E7D3C" cx="315.1" cy="25.9" r="11.2"/>
	<path fill="#B59959" d="M316.5,30.1H118c-1.5,0-2.7-1.2-2.7-2.7v-2.9c0-1.5,1.2-2.7,2.7-2.7h198.5c1.5,0,2.7,1.2,2.7,2.7v2.9
		C319.2,28.9,318,30.1,316.5,30.1z"/>
	<path fill="#98D3CC" d="M306.1,32.5c0,0-3.5-3.8-5.7-3.7c-2.6,0-3.7,3.5-6.2,3.7c-2.6,0.2-2.6-3.7-5.2-3.7c-2.3,0-3.1,3.7-5.3,3.7
		c-2.2,0-3.1-3-5.3-3c-2.2,0-3.1,3-5.3,3c-2.2,0-2.7-3.2-4.8-3c-2.8,0.3-4.5,3-4.5,3l-9.2,208.3c0,0,5.7,3.7,15.8,0
		c0,0,10.1,3.7,16.3,1.2c0,0,3.1,2.5,9.7,0.5c1.2-0.4,7.5,2.2,11.9-1.2L306.1,32.5z"/>
	<polygon fill="#7BBFB5" points="270.5,240.8 270.9,59.6 266.5,242 	"/>
	<path fill="#7BBFB5" d="M286.7,242V42.8c0,0-3.6,200.1-3.8,200C282.8,242.8,286.7,242,286.7,242z"/>
	<polygon fill="#7BBFB5" points="296.4,242.5 296.4,122.1 294.1,243.1 	"/>
	<polygon fill="#7BBFB5" points="305.9,242.6 303.4,63.7 308.3,241.3 	"/>
	<path fill="#9E7D3C" d="M301.1,35.4h-1.5c-0.8,0-1.4-0.6-1.4-1.4V18.4c0-0.8,0.6-1.4,1.4-1.4h1.5c0.8,0,1.4,0.6,1.4,1.4V34
		C302.5,34.7,301.9,35.4,301.1,35.4z"/>
	<path fill="#9E7D3C" d="M289.7,35.4h-1.5c-0.8,0-1.4-0.6-1.4-1.4V18.4c0-0.8,0.6-1.4,1.4-1.4h1.5c0.8,0,1.4,0.6,1.4,1.4V34
		C291.1,34.7,290.5,35.4,289.7,35.4z"/>
	<path fill="#9E7D3C" d="M279.1,35.4h-1.5c-0.8,0-1.4-0.6-1.4-1.4V18.4c0-0.8,0.6-1.4,1.4-1.4h1.5c0.8,0,1.4,0.6,1.4,1.4V34
		C280.6,34.7,279.9,35.4,279.1,35.4z"/>
	<path fill="#9E7D3C" d="M269,35.4h-1.5c-0.8,0-1.4-0.6-1.4-1.4V18.4c0-0.8,0.6-1.4,1.4-1.4h1.5c0.8,0,1.4,0.6,1.4,1.4V34
		C270.5,34.7,269.8,35.4,269,35.4z"/>
</g>

</svg>
