<?xml version="1.0" encoding="utf-8"?>
<!-- Generator: Adobe Illustrator 24.3.0, SVG Export Plug-In . SVG Version: 6.00 Build 0)  -->
<svg version="1.1" id="Layer_1" xmlns="http://www.w3.org/2000/svg" xmlns:xlink="http://www.w3.org/1999/xlink" x="0px" y="0px"
	 width="435px" height="280px" viewBox="0 0 435 280" enable-background="new 0 0 435 280" xml:space="preserve">
<g id="image_02">
	<rect x="1.5" y="0.6" fill="#F49376" width="432" height="279.4"/>

	<ellipse fill="#F7F7F7" cx="217.5" cy="78.8" rx="53.8" ry="62"/>
	<path fill="#DDDDDD" d="M243.1,28.6c-6.8-3.8-14.4-5.9-22.4-5.9c-28.3,0-51.2,26.4-51.2,59.1c0,14.1,4.3,27.1,11.4,37.2
		c-8.8-10.5-14.2-24.7-14.2-40.4c0-32.1,22.6-58.2,50.5-58.2C226.7,20.4,235.5,23.4,243.1,28.6z"/>
	<path fill="#EAEAEA" d="M267.7,78.5c0,32.1-22.6,58.2-50.5,58.2c-14.2,0-27.1-6.8-36.3-17.8c-7.2-10.2-11.4-23.1-11.4-37.2
		c0-32.6,22.9-59.1,51.2-59.1c8,0,15.6,2.1,22.4,5.9C257.8,38.8,267.7,57.3,267.7,78.5z"/>
	<path fill="#EFEFEF" d="M160.9,127.8c0,0,10.4-6.5,57.6-5.6s54,5.6,54,5.6v4.8H160.9V127.8z"/>
	<path fill="#C6C6C6" d="M181.5,128.5c0,0,13-2.6,35.3-2.7c23-0.1,35.5,2.7,35.5,2.7H181.5z"/>
	<path fill="#EAEAEA" d="M247.3,254.6c-0.2,1.5-3.2,3.4-7.9,5.1c-5.6,2-13.7,3.6-22.3,3.6h-0.7c-15.7,0-29.7-5.4-30.2-8.7
		c0,0,10.3-43.9,8.2-56.2c-0.2-1.2-0.6-2.5-1.1-3.8c-1.7-4.3-4.8-9.3-7.5-13.3l61.5,0.5c-3.6,5.2-7.5,11.8-8.3,16.6
		C237,210.7,247.3,254.6,247.3,254.6z"/>
	<path fill="#DDDDDD" d="M247.3,254.6c-0.2,1.5-3.2,3.4-7.9,5.1c1.9-42.7-21.3-65.4-41.5-65.4c-1.6,0-3.2,0.1-4.5,0.3
		c-1.7-4.3-4.8-9.3-7.5-13.3l61.5,0.5c-3.6,5.2-7.5,11.8-8.3,16.6C237,210.7,247.3,254.6,247.3,254.6z"/>
	<path fill="#C6C6C6" d="M247.4,181.8c-1.5,2.1-6.1,13.5-30.2,13.2c-24.8-0.3-29.9-11.7-31.3-13.6L247.4,181.8z"/>
	<path fill="#F7F7F7" d="M217.1,192.9c-12.3,0-22.1-3.6-29.9-9.1h0c-23-16.2-28.1-48.6-27-51.2c0,0,65.6,0,97.1,0h16.5
		C276.7,136.7,266.5,192.9,217.1,192.9z"/>
	<path fill="#EAEAEA" d="M217.1,192.9c-12.3,0-22.1-3.6-29.9-9.1c51.5,4.7,66-31.1,70.1-51.2h16.5
		C276.7,136.7,266.5,192.9,217.1,192.9z"/>
	<path fill="#DDDDDD" d="M194.1,42.8l-3.3,3.3c-1.1,1.1-2.8,1.1-3.8,0l-0.5-0.5c0,0,0,0,0,0c1.1,1,2.7,0.9,3.7-0.1l3.3-3.3
		c1-1,1.1-2.7,0.1-3.7c0,0,0,0,0,0l0.5,0.5C195.1,40,195.1,41.7,194.1,42.8z"/>
	<path fill="#F7F7F7" d="M193.4,42.1l-3.3,3.3c-1,1-2.7,1.1-3.7,0.1c-1-1-1-2.7,0-3.8l3.3-3.3c1-1,2.7-1.1,3.8,0
		C194.4,39.5,194.4,41.1,193.4,42.1z"/>
	<path fill="#DDDDDD" d="M252.2,45.2C252.1,45.2,252.1,45.3,252.2,45.2l-0.6,0.6c-1.1,1.1-2.8,1.1-3.8,0l-3.3-3.3
		c-1-1.1-1-2.8,0-3.8l0.5-0.5c0,0,0,0,0,0c-0.9,1.1-0.9,2.7,0.1,3.7l3.3,3.3C249.5,46.1,251.1,46.2,252.2,45.2z"/>
	<path fill="#F7F7F7" d="M252.2,45.2c-1.1,1-2.7,0.9-3.7-0.1l-3.3-3.3c-1-1-1-2.7-0.1-3.7c1.1-1,2.7-1,3.8,0l3.3,3.3
		C253.2,42.5,253.2,44.2,252.2,45.2z"/>
	<rect x="160.9" y="132.3" fill="#C6C6C6" width="111.6" height="0.3"/>
</g>
</svg>
