<?xml version="1.0" encoding="utf-8"?>
<!-- Generator: Adobe Illustrator 24.3.0, SVG Export Plug-In . SVG Version: 6.00 Build 0)  -->
<svg version="1.1" id="Layer_1" xmlns="http://www.w3.org/2000/svg" xmlns:xlink="http://www.w3.org/1999/xlink" x="0px" y="0px"
	 width="435px" height="280px" viewBox="0 0 435 280" enable-background="new 0 0 435 280" xml:space="preserve">
<g id="image_04">
	<path fill="#8CC94D" d="M422.7,280H12.3c-6,0-10.8-4.8-10.8-10.8V11.4c0-6,4.8-10.8,10.8-10.8h410.5c6,0,10.8,4.8,10.8,10.8v257.9
		C433.5,275.2,428.7,280,422.7,280z"/>

	<path fill="#DDDDDD" d="M185,99.2c0-0.4,33.9,108.4,10.8,165.1h44.8c0,0-26.8-38.2,9.3-167.2L185,99.2z"/>
	<path fill="#C6C6C6" d="M240.6,264.3h-16.5c-2.1-8.3-4.1-22.5-4.5-39.6c-0.5-22.4,10.8-74.2-0.2-90.8c-7.4-11.1-18.1-12.2-27.7-10
		c-3.6-15-6.6-24.6-6.7-24.6l64.9-2.2C213.9,226.1,240.6,264.3,240.6,264.3z"/>
	<path fill="#EAEAEA" d="M287.4,82.6c0,21.1-31,38.2-69.2,38.2S149,103.7,149,82.6c0-1.2,0.1-2.4,0.3-3.6h137.8
		C287.3,80.2,287.4,81.4,287.4,82.6z"/>
	<path fill="#DDDDDD" d="M287.4,82.6c0,21.1-31,38.2-69.2,38.2c-5.6,0-11.1-0.4-16.3-1.1c49.5-6,56-30.3,56-30.3s-87-0.2-107.8-0.1
		c-0.7-2.2-1.1-4.4-1.1-6.7c0-1.2,0.1-2.4,0.3-3.6h137.8C287.3,80.2,287.4,81.4,287.4,82.6z"/>
	
		<path fill="#B59959" d="M220.2,56.5h-5.4V39.2c0-1.1-0.3-10.1,5.3-16.2c3.1-3.4,7.4-5.2,12.8-5.3c4.4-0.1,8.1,1.3,11,4.1
			c6.1,6,6.2,16.3,6.2,16.7h-5.4h2.7l-2.7,0c0-0.1-0.1-8.5-4.5-12.9c-1.8-1.8-4.1-2.6-7-2.6c-3.9,0.1-6.8,1.2-8.9,3.5
			c-4.2,4.6-3.9,12.2-3.9,12.3l0,0.2V56.5z"/>
		<path fill="#B59959" d="M244.4,42.9h5.9c0.6,0,1-0.4,1-1v-3.3h-7.9v3.3C243.4,42.5,243.9,42.9,244.4,42.9z"/>
		<rect x="212.6" y="56.5" fill="#B59959" width="9.9" height="19"/>
		<path fill="#9E7D3C" d="M200.2,63.5c1.1,0.5,12.5,11.9,12.5,11.9V62.8l-10.8-1.5L200.2,63.5z"/>
		
			<path fill="#9E7D3C" d="M235,63.5c-1.1,0.5-12.5,11.9-12.5,11.9V62.8l10.8-1.5L235,63.5z"/>
		
		<path fill="#B59959" d="M196.9,69.9L196.9,69.9c-1-0.4-1.4-1.5-1-2.5l5.2-11.6c0.4-1,1.5-1.4,2.5-1l0,0c1,0.4,1.4,1.5,1,2.5
			L199.4,69C199,69.9,197.9,70.4,196.9,69.9z"/>
		<path fill="#B59959" d="M237.8,69.8L237.8,69.8c-1,0.4-2.1,0-2.5-1l-5-11.7c-0.4-1,0-2.1,1-2.5h0c1-0.4,2.1,0,2.5,1l5,11.7
			C239.2,68.3,238.7,69.4,237.8,69.8z"/>
	
	<path fill="#F7F7F7" d="M290.3,80c0.1,2.8-2.1,5.1-4.9,5.2c-0.7,0-33.3-0.1-66.6-0.2c0,0,0,0,0,0c-33.9,0.1-67.4,0.2-68.1,0.2
		c-2.8-0.1-5-2.4-4.9-5.2c0.1-2.8,2.4-5,5.2-4.9l67.1,0.2l67.1-0.2C287.9,75,290.2,77.2,290.3,80z"/>
	<path fill="#DDDDDD" d="M166.8,120.8l8.6,0.2C172.6,121.1,169.7,121,166.8,120.8z"/>
</g>
</svg>
