<?xml version="1.0" encoding="utf-8"?>
<!-- Generator: Adobe Illustrator 24.3.0, SVG Export Plug-In . SVG Version: 6.00 Build 0)  -->
<svg version="1.1" id="Layer_1" xmlns="http://www.w3.org/2000/svg" xmlns:xlink="http://www.w3.org/1999/xlink" x="0px" y="0px"
	 width="435px" height="280px" viewBox="0 0 435 280" enable-background="new 0 0 435 280" xml:space="preserve">
<rect x="1.5" y="0.6" fill="#8888BA" width="432" height="279.4"/>
<g>
	<path fill="#98D3CC" d="M217.4,223.9h-0.1c-42.9,0-76.9-41.1-48.4-87.4c34.4-50.6,47.1-76.3,48.4-79.2c0-0.1,0-0.1,0.1-0.1
		c0,0,0,0.1,0.1,0.1c1.4,2.8,14.1,28.6,48.4,79.2C294.3,182.8,260.3,223.9,217.4,223.9z"/>
	<path fill="#7BBFB5" d="M217.2,223.9c-42.9,0-77-41.1-48.4-87.4c34.4-50.6,47.1-76.3,48.4-79.2c0-0.1,0-0.1,0.1-0.1
		c0,0,0,0.1,0.1,0.1c0,0.1,0.1,0.2,0.1,0.2C212.1,90,153.7,202.2,217.2,223.9z"/>
	<ellipse fill="#C6E5E2" cx="251" cy="170.2" rx="11" ry="20.9"/>
</g>
</svg>
