<?xml version="1.0" encoding="utf-8"?>
<!-- Generator: Adobe Illustrator 24.3.0, SVG Export Plug-In . SVG Version: 6.00 Build 0)  -->
<svg version="1.1" id="Layer_1" xmlns="http://www.w3.org/2000/svg" xmlns:xlink="http://www.w3.org/1999/xlink" x="0px" y="0px"
	 width="435px" height="280px" viewBox="0 0 435 280" enable-background="new 0 0 435 280" xml:space="preserve">
<g id="image_03">
	<rect x="1.5" y="0.6" fill="#F5B9BA" width="432" height="279.4"/>

	<path fill="#B59959" d="M284.3,237.8h-4.1c-5.2,0-9.5-4.3-9.5-9.5v-9.1c0-5.2,4.3-9.5,9.5-9.5h4.1c5.2,0,9.5,4.3,9.5,9.5v9.1
		C293.7,233.5,289.5,237.8,284.3,237.8z"/>
	<path fill="#B59959" d="M147.3,237.8h-4.1c-5.2,0-9.5-4.3-9.5-9.5v-9.1c0-5.2,4.3-9.5,9.5-9.5h4.1c5.2,0,9.5,4.3,9.5,9.5v9.1
		C156.7,233.5,152.5,237.8,147.3,237.8z"/>
	
		<defs>
			<path id="SVGID_1_" d="M147.3,237.8h-4.1c-5.2,0-9.5-4.3-9.5-9.5v-9.1c0-5.2,4.3-9.5,9.5-9.5h4.1c5.2,0,9.5,4.3,9.5,9.5v9.1
				C156.7,233.5,152.5,237.8,147.3,237.8z"/>
		</defs>
		<clipPath id="SVGID_2_">
			<use xlink:href="#SVGID_1_"  overflow="visible"/>
		</clipPath>
		<path opacity="0.5" clip-path="url(#SVGID_2_)" fill="#9E7D3C" d="M131.7,208.8v14c0,0,14,3,27,0l-2-16.8L131.7,208.8z"/>
	
		<defs>
			<path id="SVGID_3_" d="M284.3,237.8h-4.1c-5.2,0-9.5-4.3-9.5-9.5v-9.1c0-5.2,4.3-9.5,9.5-9.5h4.1c5.2,0,9.5,4.3,9.5,9.5v9.1
				C293.7,233.5,289.5,237.8,284.3,237.8z"/>
		</defs>
		<clipPath id="SVGID_4_">
			<use xlink:href="#SVGID_3_"  overflow="visible"/>
		</clipPath>
		<path opacity="0.5" clip-path="url(#SVGID_4_)" fill="#9E7D3C" d="M267.7,209.2v14c0,0,14,3,27,0l-2-16.8L267.7,209.2z"/>
	
	<path fill="#EAEAEA" d="M76.7,123.8c0,0,10.4,20.5,14,30c5.4,14.3,0.2,23.1,17,47c19,27,62,16,110,18c40-2.9,77,8,103-17
		c21.4-20.6,21-24,28-120l-65,5l-46.9,26.1l-48.1,9.9L76.7,123.8z"/>
	<path fill="#C6C6C6" d="M328.2,194.2c11.8-45.5,2.2-95.5-1.3-110.7l21.8-1.7C342.7,164.9,342.1,178.6,328.2,194.2z"/>
	<path fill="#DDDDDD" d="M328.2,194.2c-2.2,2.4-4.6,4.8-7.5,7.6c-13.2,12.7-29.3,16.2-47.2,16.8c22.4-47.9,8.7-100.9,8.7-100.9
		s-19.5,13.1-45.5,19.1c-22.1,5.1-121.2,5.1-151.3,4.8c-3.3-7-6.8-14-8.1-16.7l69.4,0.9l19.6-2.8l22.4-0.2l48.1-9.9l0.1,0l5.8-0.8
		l59.6-26.7l24.6-1.9C330.4,98.7,340,148.6,328.2,194.2z"/>
	<path fill="none" d="M146.7,125.7l-69.4-0.9c-0.4-0.7-0.6-1.1-0.6-1.1l89.6-0.8L146.7,125.7z"/>
	<polygon fill="none" points="242.7,112 236.9,112.8 283.7,86.7 302.3,85.3 	"/>
	<path fill="#F7F7F7" d="M115.1,134.3c-26.7,0-48.4-0.5-50.6-0.6c-3.9-0.1-6.9-3.3-6.8-7.2c0.1-3.9,3.3-6.9,7.2-6.8
		c34.1,0.8,126.8,1.6,147.6-4.6c27.2-10.1,41.6-18.2,53.2-24.7c23-12.9,33.5-18.8,98.7-17.2c3.9,0.1,6.9,3.3,6.8,7.2
		c-0.1,3.8-3.2,6.8-7,6.8c-0.1,0-0.1,0-0.2,0c-61.4-1.6-70.2,3.4-91.5,15.4c-11.4,6.4-27,15.2-55.4,25.7l-0.4,0.1
		C201.1,133.3,153.1,134.3,115.1,134.3z"/>
	<path fill="#C6E5E2" d="M167.9,119.5c-5.5,0.2-11.2,0.4-17,0.5c-6.5,0.1-13.1,0.2-19.7,0.3c-4.3,0-8.6,0.1-12.8,0.1
		c-3.9,0-7.8,0-11.6,0c-7.7,0-15-0.1-21.6-0.2c-0.2-1.1-0.3-2.2-0.3-3.4c0-9.4,7.6-17,17-17c1.8,0,3.6,0.3,5.3,0.8
		c3.8-8.2,12.1-13.8,21.7-13.8c12.3,0,22.5,9.3,23.8,21.2C159.4,108.9,165.1,113.4,167.9,119.5z"/>
	<path fill="#C6E5E2" d="M229.7,107.8c0,0.2,0,0.4,0,0.6c-5.1,2.2-10.8,4.4-17.2,6.8c-3.5,1-8.9,1.9-15.8,2.6c-1.9-2.8-3-6.2-3-9.9
		c0-9.9,8.1-18,18-18S229.7,97.8,229.7,107.8z"/>
	<circle fill="#C6E5E2" cx="270.7" cy="50.8" r="8"/>
	<path fill="#C6E5E2" d="M312.4,74.3c-11.5,1.2-19.6,3.2-26.8,6c-3.3,1.3-6.4,2.8-9.6,4.4c-3.3,1.7-6.7,3.6-10.4,5.7
		c-4.5,2.5-9.4,5.3-15.3,8.3c-4.7-3.9-7.7-9.8-7.7-16.4c0-11.9,9.6-21.5,21.5-21.5c5.5,0,10.6,2.1,14.4,5.5c3.5-4.6,9-7.5,15.1-7.5
		C303,58.8,310.8,65.5,312.4,74.3z"/>
</g>
</svg>
