<?xml version="1.0" encoding="utf-8"?>
<!-- Generator: Adobe Illustrator 24.3.0, SVG Export Plug-In . SVG Version: 6.00 Build 0)  -->
<svg version="1.1" id="Layer_1" xmlns="http://www.w3.org/2000/svg" xmlns:xlink="http://www.w3.org/1999/xlink" x="0px" y="0px"
	 viewBox="0 0 1920 1080" style="enable-background:new 0 0 1920 1080;" xml:space="preserve">
<style type="text/css">
	.st0{opacity:0.6;enable-background:new    ;}
	.st1{fill:#8888BA;}
	.st2{fill:#BABABA;}
	.st3{fill:#9B9B9B;}
	.st4{fill:#E57341;}
	.st5{fill:#F9DED4;}
	.st6{fill:#FF884D;}
	.st7{fill:#5E2D1D;}
	.st8{fill:#EAEAEA;}
	.st9{fill:#191919;}
	.st10{fill:#7DB545;}
	.st11{fill:#FFFFFF;}
	.st12{fill:#89472E;}
	.st13{fill:#B24E2B;}
	.st14{fill:#3F221B;}
	.st15{fill:#4C280F;}
</style>
<rect id="background" class="st0" width="1920" height="1080"/>
<path id="foreground" class="st1" d="M0,904v176h1920V904H0z"/>
<g id="medaljer">
	<g>
		<circle class="st2" cx="1246.5" cy="992.5" r="65"/>
		<g>
			<path class="st3" d="M1280.9,1026.9L1280.9,1026.9c6.9-6.9,6.9-18.1,0-25l-44.3-44.3c-6.9-6.9-18.1-6.9-25,0l0,0
				c-6.9,6.9-6.9,18.1,0,25l44.3,44.3C1262.8,1033.8,1274,1033.8,1280.9,1026.9z"/>
			<path class="st3" d="M1211.6,1026.9L1211.6,1026.9c-6.9-6.9-6.9-18.1,0-25l44.3-44.3c6.9-6.9,18.1-6.9,25,0l0,0
				c6.9,6.9,6.9,18.1,0,25l-44.3,44.3C1229.7,1033.8,1218.5,1033.8,1211.6,1026.9z"/>
		</g>
	</g>
	<g>
		<circle class="st2" cx="1410.5" cy="992.5" r="65"/>
		<g>
			<path class="st3" d="M1444.9,1026.9L1444.9,1026.9c6.9-6.9,6.9-18.1,0-25l-44.3-44.3c-6.9-6.9-18.1-6.9-25,0l0,0
				c-6.9,6.9-6.9,18.1,0,25l44.3,44.3C1426.8,1033.8,1438,1033.8,1444.9,1026.9z"/>
			<path class="st3" d="M1375.6,1026.9L1375.6,1026.9c-6.9-6.9-6.9-18.1,0-25l44.3-44.3c6.9-6.9,18.1-6.9,25,0l0,0
				c6.9,6.9,6.9,18.1,0,25l-44.3,44.3C1393.7,1033.8,1382.5,1033.8,1375.6,1026.9z"/>
		</g>
	</g>
	<g>
		<circle class="st2" cx="1574.6" cy="992" r="65"/>
		<g>
			<path class="st3" d="M1609,1026.4L1609,1026.4c6.9-6.9,6.9-18.1,0-25l-44.3-44.3c-6.9-6.9-18.1-6.9-25,0l0,0
				c-6.9,6.9-6.9,18.1,0,25l44.3,44.3C1590.9,1033.3,1602.1,1033.3,1609,1026.4z"/>
			<path class="st3" d="M1539.7,1026.4L1539.7,1026.4c-6.9-6.9-6.9-18.1,0-25l44.3-44.3c6.9-6.9,18.1-6.9,25,0l0,0
				c6.9,6.9,6.9,18.1,0,25l-44.3,44.3C1557.8,1033.3,1546.6,1033.3,1539.7,1026.4z"/>
		</g>
	</g>
	<g>
		<circle class="st2" cx="1738.6" cy="992" r="65"/>
		<g>
			<path class="st3" d="M1773,1026.4L1773,1026.4c6.9-6.9,6.9-18.1,0-25l-44.3-44.3c-6.9-6.9-18.1-6.9-25,0l0,0
				c-6.9,6.9-6.9,18.1,0,25l44.3,44.3C1754.9,1033.3,1766.1,1033.3,1773,1026.4z"/>
			<path class="st3" d="M1703.7,1026.4L1703.7,1026.4c-6.9-6.9-6.9-18.1,0-25l44.3-44.3c6.9-6.9,18.1-6.9,25,0l0,0
				c6.9,6.9,6.9,18.1,0,25l-44.3,44.3C1721.8,1033.3,1710.6,1033.3,1703.7,1026.4z"/>
		</g>
	</g>
</g>
<g id="snif">
	<path class="st4" d="M370.9,747.4c0,0-174.4,66.1-108.4,121.6C324.3,920.7,357.7,927.1,370.9,747.4z"/>
	<path class="st5" d="M37.9,730.2c0,0-3.7,140.6,61.8,173.2s59.7-44.1,59.7-44.1L37.9,730.2z"/>
	<path class="st6" d="M269.2,814.7c-39.6-2.6-40.3,9.7-50.2,10.6c-29.7,2.6-41,5.3-41,5.3s-66.1-81.9-140.1-100.4
		c0,0,114.9,124.1,113.1,148.9c-0.4,5.2,1.2-13.8-39.2-13.8c0,0,28.8,21.9,20.8,21.9c-1.7,0-9.8-5.8-21.9-2.3c0,0,15,4,15,7.5
		c-6.3,15-26,11-26,11c-5.2,20.8-8.9,24.8-35.4,48.8c0,0,58.1,84.6,174.4,95.1c47.6,5.3,89.9-35.7,87.2-37
		c-15.4-7.7-107,11.9-162.5-70c0,0,27.8,66.1,149.3,71.4c32.7,1.4,100.4-23.8,92.5-81.9c-21.1-15.9-107-7.9-128.2-7.9
		c-17.4,0,58.1,1.3,58.1,1.3S303.4,825.4,269,836c-3.6,1.1,18.5-7.9,18.5-7.9c-5-4-21.1-2.6-29.1,0
		C254.2,829.4,269.2,814.7,269.2,814.7z"/>
	<path class="st7" d="M380.2,936.3c11.4,34.2,43.6,6.6,38.3-6.6C413.2,919.1,376.2,924.4,380.2,936.3z"/>
	<path class="st8" d="M193.6,921.2c0,18.3,15.5,24.4,37.1,24.4c15.4,0,26.2-3.9,27.8-18.3c1.5-13.7,0-54.9-34-54.9
		C196.7,872.4,193.6,903.5,193.6,921.2z"/>
	<path class="st8" d="M328.6,916.1c0,6.3-0.1,3.5-27.1,3.5c-5.2,0-27.5,4-28.8,0c-3-9,2.9-44.4,25.1-47.1
		C324.9,869.2,328.6,890.8,328.6,916.1z"/>
	<ellipse class="st9" cx="225.8" cy="914.4" rx="18.3" ry="19.1"/>
	<path class="st10" d="M225.8,895.3c-10.1,0-18.3,8.5-18.3,19.1c0,10.5-3.1,19.1,18.3,19.1c21.6,0,18.3-8.5,18.3-19.1
		C244.2,903.8,236,895.3,225.8,895.3 M225.8,889.5c13.3,0,24.1,11.1,24.1,24.8c0,1.2,0,2.3,0.1,3.5c0.2,5.2,0.4,11.1-3.9,15.6
		c-3.8,4-10.1,5.7-20.2,5.7c-10.1,0-16.3-1.8-20.1-5.7c-4.4-4.6-4.2-10.5-4-15.8c0-1.1,0.1-2.2,0.1-3.3
		C201.7,900.7,212.6,889.5,225.8,889.5L225.8,889.5z"/>
	<path class="st10" d="M320.2,919.4c-0.5,0-0.9,0-1.4,0c-1.1,0-2.2,0-3.3-0.1c0.7-2.7,0.2-6.1,0.2-9.8c0-9.1-6.9-16.4-15.4-16.4
		s-15.4,7.4-15.4,16.4c0,3.6-0.4,7,0.2,9.7c-1.6,0-3.1,0-4.7,0.1c-0.4-2.3-0.3-4.7-0.2-6.9c0-0.9,0.1-1.9,0.1-2.9
		c0-11.6,9-21,20.1-21c11,0,20,9.4,20,21c0,1,0,2,0.1,3C320.5,914.8,320.6,917.1,320.2,919.4z"/>
	<path class="st9" d="M315.5,919.3c-4-0.1-8-0.1-12-0.2c-5.1,0-10.2,0-15.4,0c-1,0-2,0-3,0c-0.6-2.7-0.2-6.1-0.2-9.7
		c0-9.1,6.9-16.4,15.4-16.4s15.4,7.4,15.4,16.4C315.7,913.2,316.2,916.6,315.5,919.3z"/>
	
		<ellipse transform="matrix(0.5817 -0.8134 0.8134 0.5817 -642.049 553.4026)" class="st11" cx="217" cy="900.9" rx="7.6" ry="9.6"/>
	<ellipse transform="matrix(0.8716 -0.4903 0.4903 0.8716 -398.5992 206.0376)" class="st5" cx="194" cy="863.8" rx="11.7" ry="6"/>
	<ellipse transform="matrix(0.5 -0.866 0.866 0.5 -583.5988 715.2098)" class="st5" cx="327.6" cy="863" rx="5.2" ry="10"/>
	<path class="st4" d="M273.3,925.3c5-0.7,10.1-1.3,15.1-1.8c5.1-0.5,10.1-1,15.2-1.5c5.1-0.4,10.2-0.8,15.3-1.2
		c5.1-0.4,10.2-0.7,15.3-1c-5.1-0.2-10.2-0.4-15.3-0.5c-5.1-0.1-10.2-0.2-15.3-0.2c-5.1,0-10.2,0-15.4,0c-5.1,0.1-10.2,0.2-15.4,0.4
		c-1.6,0.1-2.8,1.4-2.8,3c0.1,1.6,1.4,2.8,3,2.8C273,925.3,273.1,925.3,273.3,925.3L273.3,925.3z"/>
	<path class="st12" d="M238.5,810.2c6.2-1.2,16.7-0.6,14.4,1.7c-4.6,4.6-29.7,13-29.7,13c-29.7,19.9-46.4,22.4-61.4,12.4
		c-1.7-1.2-6.9-4-6.6-7.2c0-2.7,28.2-1.4,28.2-1.4C181.7,828.4,223.5,813.1,238.5,810.2z"/>
	<path class="st12" d="M203.5,768.7c0,0-25.4,19.9-27.8,35.3c0,0-11-5.1-15-2.8s-2.6,10.4,0,25.9s72-15.4,72-15.4
		S222.1,778.2,203.5,768.7z"/>
	
		<ellipse transform="matrix(0.5817 -0.8134 0.8134 0.5817 -606.9785 614.5552)" class="st11" cx="294" cy="897.4" rx="6.8" ry="8.5"/>
	<path class="st13" d="M122.2,775.9c-8.9,1-19.6,4.8-32.1,13.5c-26.8-31.7-52.2-59.2-52.2-59.2C68.8,737.9,98.3,756.7,122.2,775.9z"
		/>
	<path class="st5" d="M326,1011c-2.2,4.9-35.2,34.8-74.6,36.7l0,0c-63.6-2.5-108.8-47-144.7-87.2c48.5-1.2,56.8-21.6,56.8-21.6
		c16,23.1,34.8,39.2,54.7,50.3c4.5,2.5,9.1,4.8,13.7,6.8c0,0,0.1,0,0.1,0.1c24.5,10.7,49.8,14.7,72.8,15.2c2.6,0.2,5.3,0.3,8,0.4
		C316.8,1011.8,321.2,1011.6,326,1011z"/>
	<path class="st13" d="M370.9,747.4c-1.9,25.8-4.2,47.7-7,66.3c-12.5-21.2-42-30-60.4-33.6C336.2,760.5,370.9,747.4,370.9,747.4z"/>
	<path class="st12" d="M226.5,796.5c-12,4.6-42.6,16.8-65.7,31.1c0-0.1-0.1-0.3-0.1-0.5c-2.6-15.5-4-23.6,0-25.9s15,2.8,15,2.8
		c2.4-15.4,27.8-35.3,27.8-35.3C213.7,773.9,221.5,786.3,226.5,796.5z"/>
	<path class="st14" d="M232.7,811.8c0,0-68,30.2-71.9,15.8c23.1-14.3,53.7-26.5,65.7-31.1C230.5,804.9,232.7,811.8,232.7,811.8z"/>
	<path class="st4" d="M334.2,919.9c-4.8,0.3-9.5,0.6-14.2,0.9c-0.3,0-0.7,0-1,0.1c-1.3,0.1-2.7,0.2-4,0.3c-3.8,0.3-7.5,0.6-11.2,0.9
		c-5.1,0.4-10.2,0.9-15.2,1.5c-0.1,0-0.2,0-0.4,0c-1.9,0.2-3.8,0.4-5.8,0.6c-3,0.4-6,0.7-9,1.1l0,0c-0.1,0-0.2,0-0.3,0
		c-1.6,0.1-2.9-1.2-3-2.8s1.2-2.9,2.8-3c2.6-0.1,5.2-0.2,7.7-0.2c1.6,0,3.1-0.1,4.7-0.1c1,0,2,0,3,0c5.1-0.1,10.2-0.1,15.4,0
		c4,0,8,0.1,12,0.2c1.1,0,2.2,0,3.3,0.1c0.5,0,0.9,0,1.4,0C324.9,919.5,329.5,919.7,334.2,919.9z"/>
	<path class="st15" d="M249,1015.6c-0.1,0-0.2-0.1-0.3-0.1s-0.2,0-0.4,0s-0.5,0-0.7,0c-0.5,0-0.9,0.1-1.4,0.1
		c-0.9,0.1-1.7,0.3-2.6,0.5c-1.7,0.3-3.3,0.7-4.8,1.1c-3.1,0.7-6.1,1.2-8.6,1.2c-2.6,0-4.6-0.5-6.8-2s-4.1-3.7-6.3-6.1
		c-0.1,0.7-0.2,1.5-0.2,2.3c0,0.7,0.1,1.5,0.3,2.3l0.3,1.1c0.1,0.4,0.3,0.7,0.5,1.1c0.1,0.2,0.2,0.4,0.2,0.6l0.3,0.5
		c0.2,0.4,0.4,0.7,0.7,1.1c1.1,1.4,2.7,2.7,4.7,3.6c2,0.9,4.2,1.3,6.3,1.3s4.1-0.3,5.9-0.9c1.8-0.5,3.5-1.2,5-2s2.9-1.7,4.2-2.7
		c0.6-0.5,1.3-1,1.9-1.5l0.9-0.8C248.3,1016.1,248.6,1015.8,249,1015.6z"/>
</g>
<g id="taleboble">
	<ellipse class="st11" cx="596.8" cy="681.5" rx="217" ry="141.5"/>
	<path class="st11" d="M443.1,853.4c-2.3,1.3-5.2-0.3-5.2-3v-43v-43c0-2.7,2.9-4.4,5.2-3l37.2,21.5l37.2,21.5c2.3,1.3,2.3,4.7,0,6
		l-37.2,21.5L443.1,853.4z"/>
</g>
</svg>
